<?xml version="1.0" encoding="UTF-8" standalone="no"?>
<!-- Created with Inkscape (http://www.inkscape.org/) -->

<svg
   xmlns:dc="http://purl.org/dc/elements/1.1/"
   xmlns:cc="http://creativecommons.org/ns#"
   xmlns:rdf="http://www.w3.org/1999/02/22-rdf-syntax-ns#"
   xmlns:svg="http://www.w3.org/2000/svg"
   xmlns="http://www.w3.org/2000/svg"
   xmlns:sodipodi="http://sodipodi.sourceforge.net/DTD/sodipodi-0.dtd"
   xmlns:inkscape="http://www.inkscape.org/namespaces/inkscape"
   width="220"
   height="220"
   viewBox="0 0 220 220"
   id="svg5999"
   version="1.1"
   inkscape:version="0.91 r13725"
   sodipodi:docname="icon.svg"
   inkscape:export-filename="/home/mh/rect4140-3.png"
   inkscape:export-xdpi="20.970873"
   inkscape:export-ydpi="20.970873">
  <defs
     id="defs6001">
    <inkscape:path-effect
       back_thickness="0.25"
       front_thickness="1"
       stroke_width_bottom="1"
       stroke_width_top="1"
       fat_output="true"
       bottom_smth_variation="0;1"
       top_smth_variation="0;1"
       scale_tb="1"
       scale_tf="1"
       scale_bb="1"
       scale_bf="1"
       top_tgt_variation="0;1"
       bottom_tgt_variation="0;1"
       top_edge_variation="2.5;1"
       bottom_edge_variation="2.5;1"
       bender="54.197031,965.98786 , 4.3226787,0"
       do_bend="true"
       growth="0"
       dist_rdm="75;1"
       direction="54.197031,963.95676 , 15.129376,0.97929277"
       is_visible="true"
       id="path-effect5674"
       effect="rough_hatches" />
    <inkscape:path-effect
       effect="rough_hatches"
       id="path-effect5670"
       is_visible="true"
       direction="54.197031,937.95676 , 15.129376,0.97929277"
       dist_rdm="75;1"
       growth="0"
       do_bend="true"
       bender="54.197031,939.98786 , 4.3226787,0"
       bottom_edge_variation="2.5;1"
       top_edge_variation="2.5;1"
       bottom_tgt_variation="0;1"
       top_tgt_variation="0;1"
       scale_bf="1"
       scale_bb="1"
       scale_tf="1"
       scale_tb="1"
       top_smth_variation="0;1"
       bottom_smth_variation="0;1"
       fat_output="true"
       stroke_width_top="1"
       stroke_width_bottom="1"
       front_thickness="1"
       back_thickness="0.25" />
    <inkscape:path-effect
       back_thickness="0.25"
       front_thickness="1"
       stroke_width_bottom="1"
       stroke_width_top="1"
       fat_output="true"
       bottom_smth_variation="0;1"
       top_smth_variation="0;1"
       scale_tb="1"
       scale_tf="1"
       scale_bb="1"
       scale_bf="1"
       top_tgt_variation="0;1"
       bottom_tgt_variation="0;1"
       top_edge_variation="2.5;1"
       bottom_edge_variation="2.5;1"
       bender="54.197031,907.98786 , 4.3226787,0"
       do_bend="true"
       growth="0"
       dist_rdm="75;1"
       direction="54.197031,905.95676 , 15.129376,0.97929277"
       is_visible="true"
       id="path-effect5666"
       effect="rough_hatches" />
    <inkscape:path-effect
       effect="rough_hatches"
       id="path-effect5567"
       is_visible="true"
       direction="54.197031,875.95676 , 15.129376,0.97929277"
       dist_rdm="75;1"
       growth="0"
       do_bend="true"
       bender="54.197031,877.98786 , 4.3226787,0"
       bottom_edge_variation="2.5;1"
       top_edge_variation="2.5;1"
       bottom_tgt_variation="0;1"
       top_tgt_variation="0;1"
       scale_bf="1"
       scale_bb="1"
       scale_tf="1"
       scale_tb="1"
       top_smth_variation="0;1"
       bottom_smth_variation="0;1"
       fat_output="true"
       stroke_width_top="1"
       stroke_width_bottom="1"
       front_thickness="1"
       back_thickness="0.25" />
  </defs>
  <sodipodi:namedview
     id="base"
     pagecolor="#ffffff"
     bordercolor="#666666"
     borderopacity="1.0"
     inkscape:pageopacity="0.0"
     inkscape:pageshadow="2"
     inkscape:zoom="1.4"
     inkscape:cx="323.12021"
     inkscape:cy="76.535424"
     inkscape:document-units="px"
     inkscape:current-layer="layer1"
     showgrid="false"
     inkscape:window-width="3200"
     inkscape:window-height="1647"
     inkscape:window-x="0"
     inkscape:window-y="53"
     inkscape:window-maximized="1"
     units="px" />
  <metadata
     id="metadata6004">
    <rdf:RDF>
      <cc:Work
         rdf:about="">
        <dc:format>image/svg+xml</dc:format>
        <dc:type
           rdf:resource="http://purl.org/dc/dcmitype/StillImage" />
        <dc:title></dc:title>
      </cc:Work>
    </rdf:RDF>
  </metadata>
  <g
     inkscape:label="Layer 1"
     inkscape:groupmode="layer"
     id="layer1"
     transform="translate(0,-832.36216)">
    <rect
       rx="25"
       y="842.36218"
       x="10"
       height="200"
       width="200"
       id="rect5364"
       style="color:#000000;clip-rule:nonzero;display:inline;overflow:visible;visibility:visible;opacity:1;isolation:auto;mix-blend-mode:normal;color-interpolation:sRGB;color-interpolation-filters:linearRGB;solid-color:#000000;solid-opacity:1;fill:#000000;fill-opacity:0;fill-rule:nonzero;stroke:#424242;stroke-width:6;stroke-linecap:butt;stroke-linejoin:miter;stroke-miterlimit:4;stroke-dasharray:none;stroke-dashoffset:0;stroke-opacity:1;color-rendering:auto;image-rendering:auto;shape-rendering:auto;text-rendering:auto;enable-background:accumulate" />
    <rect
       rx="3"
       y="867.44861"
       x="85.263947"
       height="20"
       width="100"
       id="rect5366"
       style="color:#000000;clip-rule:nonzero;display:inline;overflow:visible;visibility:visible;opacity:1;isolation:auto;mix-blend-mode:normal;color-interpolation:sRGB;color-interpolation-filters:linearRGB;solid-color:#000000;solid-opacity:1;fill:#000000;fill-opacity:0;fill-rule:nonzero;stroke:#424242;stroke-width:6;stroke-linecap:butt;stroke-linejoin:miter;stroke-miterlimit:4;stroke-dasharray:none;stroke-dashoffset:0;stroke-opacity:1;color-rendering:auto;image-rendering:auto;shape-rendering:auto;text-rendering:auto;enable-background:accumulate" />
    <rect
       style="color:#000000;clip-rule:nonzero;display:inline;overflow:visible;visibility:visible;opacity:1;isolation:auto;mix-blend-mode:normal;color-interpolation:sRGB;color-interpolation-filters:linearRGB;solid-color:#000000;solid-opacity:1;fill:#000000;fill-opacity:0;fill-rule:nonzero;stroke:#424242;stroke-width:6;stroke-linecap:butt;stroke-linejoin:miter;stroke-miterlimit:4;stroke-dasharray:none;stroke-dashoffset:0;stroke-opacity:1;color-rendering:auto;image-rendering:auto;shape-rendering:auto;text-rendering:auto;enable-background:accumulate"
       id="rect5514"
       width="100"
       height="20"
       x="85.263947"
       y="897.44861"
       rx="3" />
    <rect
       rx="3"
       y="929.44861"
       x="85.263947"
       height="20"
       width="100"
       id="rect5516"
       style="color:#000000;clip-rule:nonzero;display:inline;overflow:visible;visibility:visible;opacity:1;isolation:auto;mix-blend-mode:normal;color-interpolation:sRGB;color-interpolation-filters:linearRGB;solid-color:#000000;solid-opacity:1;fill:#000000;fill-opacity:0;fill-rule:nonzero;stroke:#424242;stroke-width:4.54310036;stroke-linecap:butt;stroke-linejoin:miter;stroke-miterlimit:4;stroke-dasharray:none;stroke-dashoffset:0;stroke-opacity:1;color-rendering:auto;image-rendering:auto;shape-rendering:auto;text-rendering:auto;enable-background:accumulate" />
    <rect
       style="color:#000000;clip-rule:nonzero;display:inline;overflow:visible;visibility:visible;opacity:1;isolation:auto;mix-blend-mode:normal;color-interpolation:sRGB;color-interpolation-filters:linearRGB;solid-color:#000000;solid-opacity:1;fill:#000000;fill-opacity:0;fill-rule:nonzero;stroke:#424242;stroke-width:6;stroke-linecap:butt;stroke-linejoin:miter;stroke-miterlimit:4;stroke-dasharray:none;stroke-dashoffset:0;stroke-opacity:1;color-rendering:auto;image-rendering:auto;shape-rendering:auto;text-rendering:auto;enable-background:accumulate"
       id="rect5518"
       width="100"
       height="20"
       x="85.263947"
       y="929.44861"
       rx="3" />
    <rect
       rx="0.56866473"
       y="957.797"
       x="84.875015"
       height="15"
       width="15"
       id="rect5520"
       style="color:#000000;clip-rule:nonzero;display:inline;overflow:visible;visibility:visible;opacity:1;isolation:auto;mix-blend-mode:normal;color-interpolation:sRGB;color-interpolation-filters:linearRGB;solid-color:#000000;solid-opacity:1;fill:#000000;fill-opacity:0;fill-rule:nonzero;stroke:#424242;stroke-width:3.12405038;stroke-linecap:butt;stroke-linejoin:miter;stroke-miterlimit:4;stroke-dasharray:none;stroke-dashoffset:0;stroke-opacity:1;color-rendering:auto;image-rendering:auto;shape-rendering:auto;text-rendering:auto;enable-background:accumulate" />
    <rect
       style="color:#000000;clip-rule:nonzero;display:inline;overflow:visible;visibility:visible;opacity:1;isolation:auto;mix-blend-mode:normal;color-interpolation:sRGB;color-interpolation-filters:linearRGB;solid-color:#000000;solid-opacity:1;fill:#000000;fill-opacity:0;fill-rule:nonzero;stroke:#424242;stroke-width:6;stroke-linecap:butt;stroke-linejoin:miter;stroke-miterlimit:4;stroke-dasharray:none;stroke-dashoffset:0;stroke-opacity:1;color-rendering:auto;image-rendering:auto;shape-rendering:auto;text-rendering:auto;enable-background:accumulate"
       id="rect5522"
       width="17"
       height="17"
       x="84.875015"
       y="957.797"
       rx="0.56866473" />
    <rect
       rx="0.56866473"
       y="957.797"
       x="110.87503"
       height="17"
       width="17"
       id="rect5524"
       style="color:#000000;clip-rule:nonzero;display:inline;overflow:visible;visibility:visible;opacity:1;isolation:auto;mix-blend-mode:normal;color-interpolation:sRGB;color-interpolation-filters:linearRGB;solid-color:#000000;solid-opacity:1;fill:#000000;fill-opacity:0;fill-rule:nonzero;stroke:#424242;stroke-width:6;stroke-linecap:butt;stroke-linejoin:miter;stroke-miterlimit:4;stroke-dasharray:none;stroke-dashoffset:0;stroke-opacity:1;color-rendering:auto;image-rendering:auto;shape-rendering:auto;text-rendering:auto;enable-background:accumulate" />
    <text
       xml:space="preserve"
       style="font-style:normal;font-variant:normal;font-weight:normal;font-stretch:normal;font-size:40px;line-height:125%;font-family:Arial;-inkscape-font-specification:Arial;letter-spacing:0px;word-spacing:0px;fill:#434343;fill-opacity:1;stroke:none;stroke-width:1px;stroke-linecap:butt;stroke-linejoin:miter;stroke-opacity:1"
       x="109.26146"
       y="971.87366"
       id="text5536"
       sodipodi:linespacing="125%"><tspan
         sodipodi:role="line"
         id="tspan5538"
         x="109.26146"
         y="971.87366"
         style="font-style:normal;font-variant:normal;font-weight:normal;font-stretch:normal;font-size:25px;font-family:Webdings;-inkscape-font-specification:Webdings;fill:#434343;fill-opacity:1">a</tspan></text>
    <rect
       style="color:#000000;clip-rule:nonzero;display:inline;overflow:visible;visibility:visible;opacity:1;isolation:auto;mix-blend-mode:normal;color-interpolation:sRGB;color-interpolation-filters:linearRGB;solid-color:#000000;solid-opacity:1;fill:none;fill-opacity:1;fill-rule:nonzero;stroke:#424242;stroke-width:4;stroke-linecap:butt;stroke-linejoin:miter;stroke-miterlimit:4;stroke-dasharray:none;stroke-dashoffset:0;stroke-opacity:1;color-rendering:auto;image-rendering:auto;shape-rendering:auto;text-rendering:auto;enable-background:accumulate"
       id="rect5540"
       width="17.036993"
       height="18.552223"
       x="168.59254"
       y="929.73267"
       rx="3.4073987" />
    <path
       style="color:#000000;clip-rule:nonzero;display:inline;overflow:visible;visibility:visible;opacity:1;isolation:auto;mix-blend-mode:normal;color-interpolation:sRGB;color-interpolation-filters:linearRGB;solid-color:#000000;solid-opacity:1;fill:none;fill-opacity:1;fill-rule:nonzero;stroke:#424242;stroke-width:4;stroke-linecap:butt;stroke-linejoin:miter;stroke-miterlimit:4;stroke-dasharray:none;stroke-dashoffset:0;stroke-opacity:1;color-rendering:auto;image-rendering:auto;shape-rendering:auto;text-rendering:auto;enable-background:accumulate"
       d="m 172.0553,935.30356 4.43857,5.7756 4.52538,-5.6832"
       id="path5542"
       inkscape:connector-curvature="0"
       sodipodi:nodetypes="ccc" />
    <rect
       style="color:#000000;clip-rule:nonzero;display:inline;overflow:visible;visibility:visible;opacity:1;isolation:auto;mix-blend-mode:normal;color-interpolation:sRGB;color-interpolation-filters:linearRGB;solid-color:#000000;solid-opacity:1;fill:none;fill-opacity:1;fill-rule:nonzero;stroke:#424242;stroke-width:6.0808382;stroke-linecap:butt;stroke-linejoin:miter;stroke-miterlimit:4;stroke-dasharray:none;stroke-dashoffset:0;stroke-opacity:1;color-rendering:auto;image-rendering:auto;shape-rendering:auto;text-rendering:auto;enable-background:accumulate"
       id="rect5558"
       width="61.794163"
       height="29.919163"
       x="123.04042"
       y="986.40259"
       rx="3.5092905" />
    <text
       xml:space="preserve"
       style="font-style:normal;font-weight:normal;font-size:40px;line-height:125%;font-family:sans-serif;letter-spacing:0px;word-spacing:0px;fill:#434343;fill-opacity:1;stroke:none;stroke-width:1px;stroke-linecap:butt;stroke-linejoin:miter;stroke-opacity:1"
       x="136.85031"
       y="1009.0463"
       id="text5560"
       sodipodi:linespacing="125%"><tspan
         sodipodi:role="line"
         id="tspan5562"
         x="136.85031"
         y="1009.0463"
         style="font-style:normal;font-variant:normal;font-weight:bold;font-stretch:normal;font-size:20px;font-family:sans-serif;-inkscape-font-specification:'sans-serif Bold';fill:#434343;fill-opacity:1">OK</tspan></text>
    <path
       style="color:#000000;clip-rule:nonzero;display:inline;overflow:visible;visibility:visible;opacity:0.93000034;isolation:auto;mix-blend-mode:normal;color-interpolation:sRGB;color-interpolation-filters:linearRGB;solid-color:#000000;solid-opacity:1;fill:none;fill-opacity:1;fill-rule:nonzero;stroke:#424242;stroke-width:2.78972697;stroke-linecap:butt;stroke-linejoin:miter;stroke-miterlimit:4;stroke-dasharray:none;stroke-dashoffset:0;stroke-opacity:1;color-rendering:auto;image-rendering:auto;shape-rendering:auto;text-rendering:auto;enable-background:accumulate"
       d="m 72.009315,882.98121 c 0,0 1.182841,-2.45197 1.361338,-4.8933 0.179274,-2.45197 -0.645796,-4.89331 -0.645796,-4.89331 0,0 0.82507,2.44134 0.645796,4.89331 -0.178497,2.44133 -1.361338,4.8933 -1.361338,4.8933 z m -3.116671,-10.07115 c 0,0 0.737931,2.37123 0.264448,4.76888 -0.470875,2.38443 -2.078445,4.76887 -3.160026,4.76887 -1.135897,0 -0.795857,-2.28942 -1.275079,-4.57884 -0.479222,-2.28942 -1.777705,-4.57885 -3.060188,-4.57885 -1.331738,0 -1.296773,2.46971 -1.889823,4.93942 -0.59305,2.46971 -1.814115,4.93942 -2.015006,4.93942 -0.250147,0 0.671163,-2.28942 0.648583,-4.57884 -0.02258,-2.28943 -0.989049,-4.57885 -1.884293,-4.57885 -0.958221,0 -0.929344,2.23095 -1.626669,4.4619 -0.697325,2.23095 -2.120852,4.4619 -3.011283,4.4619 -0.953405,0 -0.42861,-2.28942 -0.767586,-4.57884 -0.338976,-2.28942 -1.541723,-4.57884 -2.819754,-4.57884 -1.359419,0 -1.565813,1.86306 -2.228714,3.72613 -0.662901,1.86307 -1.782308,3.72614 -2.894681,3.72614 -1.19376,0 -1.116428,-2.28942 -1.676979,-4.57885 -0.560551,-2.28942 -1.758985,-4.57884 -2.373816,-4.57884 -0.66198,0 -0.03599,2.48998 -0.255494,4.97217 -0.218767,2.4739 -1.282774,4.9649 -1.62433,4.92544 -0.384168,-0.0444 0.16569,-2.30287 0.05988,-4.5258 -0.106037,-2.22766 -0.924284,-4.44794 -0.924284,-4.44794 0,0 0.842276,2.45913 0.810991,4.93652 -0.03116,2.46709 -0.86912,4.97877 -0.385986,5.03513 0.808522,0.0943 2.349555,-2.39573 2.784963,-4.88393 0.436777,-2.49603 -0.234868,-5.01368 -0.07721,-5.01368 0.48957,0 1.433864,2.28942 1.802906,4.57885 0.369042,2.28942 0.162831,4.57884 1.481853,4.57884 1.613419,0 3.139194,-1.86307 3.95794,-3.72614 0.818745,-1.86306 0.930462,-3.72613 1.788834,-3.72613 1.152769,0 2.101377,2.28942 2.248844,4.57884 0.147466,2.28942 -0.506208,4.57885 0.57246,4.57885 1.391476,0 3.252145,-2.23096 4.136088,-4.46191 0.883944,-2.23095 0.791161,-4.4619 1.248335,-4.4619 0.769984,0 1.482313,2.28942 1.313383,4.57885 -0.168929,2.28942 -1.219118,4.57884 -0.843709,4.57884 0.701937,0 2.380116,-2.46971 3.179756,-4.93942 0.79964,-2.46971 0.720742,-4.93941 1.551434,-4.93941 1.157221,0 2.201564,2.28942 2.489277,4.57884 0.287712,2.28942 -0.181206,4.57884 1.079953,4.57884 1.597932,0 3.51994,-2.63391 3.985404,-5.26783 0.468032,-2.64845 -0.610423,-5.26783 -0.610423,-5.26783 z"
       id="rect5564"
       inkscape:path-effect="#path-effect5567"
       inkscape:original-d="m 37.338587,872.91006 33.716893,0 c 1.43686,0 2.59361,0.5435 2.59361,1.2187 l 0,7.7182 c 0,0.6752 -1.15675,1.2187 -2.59361,1.2187 l -33.716893,0 c -1.436858,0 -2.593607,-0.5435 -2.593607,-1.2187 l 0,-7.7182 c 0,-0.6752 1.156749,-1.2187 2.593607,-1.2187 z"
       inkscape:connector-curvature="0" />
    <path
       inkscape:connector-curvature="0"
       inkscape:original-d="m 37.338587,902.91006 33.716893,0 c 1.43686,0 2.59361,0.5435 2.59361,1.2187 l 0,7.7182 c 0,0.6752 -1.15675,1.2187 -2.59361,1.2187 l -33.716893,0 c -1.436858,0 -2.593607,-0.5435 -2.593607,-1.2187 l 0,-7.7182 c 0,-0.6752 1.156749,-1.2187 2.593607,-1.2187 z"
       inkscape:path-effect="#path-effect5666"
       id="path5664"
       d="m 72.009315,912.98121 c 0,0 1.182841,-2.45197 1.361338,-4.8933 0.179274,-2.45197 -0.645796,-4.89331 -0.645796,-4.89331 0,0 0.82507,2.44134 0.645796,4.89331 -0.178497,2.44133 -1.361338,4.8933 -1.361338,4.8933 z m -3.116671,-10.07115 c 0,0 0.737931,2.37123 0.264448,4.76888 -0.470875,2.38443 -2.078445,4.76887 -3.160026,4.76887 -1.135897,0 -0.795857,-2.28942 -1.275079,-4.57884 -0.479222,-2.28942 -1.777705,-4.57885 -3.060188,-4.57885 -1.331738,0 -1.296773,2.46971 -1.889823,4.93942 -0.59305,2.46971 -1.814115,4.93942 -2.015006,4.93942 -0.250147,0 0.671163,-2.28942 0.648583,-4.57884 -0.02258,-2.28943 -0.989049,-4.57885 -1.884293,-4.57885 -0.958221,0 -0.929344,2.23095 -1.626669,4.4619 -0.697325,2.23095 -2.120852,4.4619 -3.011283,4.4619 -0.953405,0 -0.42861,-2.28942 -0.767586,-4.57884 -0.338976,-2.28942 -1.541723,-4.57884 -2.819754,-4.57884 -1.359419,0 -1.565813,1.86306 -2.228714,3.72613 -0.662901,1.86307 -1.782308,3.72614 -2.894681,3.72614 -1.19376,0 -1.116428,-2.28942 -1.676979,-4.57885 -0.560551,-2.28942 -1.758985,-4.57884 -2.373816,-4.57884 -0.646309,0 0.202322,2.74842 0.06156,5.49685 -0.140517,2.7437 -1.363249,5.49684 -1.363249,5.49684 0,0 1.352255,-2.50981 1.713829,-4.99789 0.363153,-2.49894 -0.184878,-4.99789 -0.02361,-4.99789 0.48957,0 1.433864,2.28942 1.802906,4.57885 0.369042,2.28942 0.162831,4.57884 1.481853,4.57884 1.613419,0 3.139194,-1.86307 3.95794,-3.72614 0.818745,-1.86306 0.930462,-3.72613 1.788834,-3.72613 1.152769,0 2.101377,2.28942 2.248844,4.57884 0.147466,2.28942 -0.506208,4.57885 0.57246,4.57885 1.391476,0 3.252145,-2.23096 4.136088,-4.46191 0.883944,-2.23095 0.791161,-4.4619 1.248335,-4.4619 0.769984,0 1.482313,2.28942 1.313383,4.57885 -0.168929,2.28942 -1.219118,4.57884 -0.843709,4.57884 0.701937,0 2.380116,-2.46971 3.179756,-4.93942 0.79964,-2.46971 0.720742,-4.93941 1.551434,-4.93941 1.157221,0 2.201564,2.28942 2.489277,4.57884 0.287712,2.28942 -0.181206,4.57884 1.079953,4.57884 1.597932,0 3.51994,-2.63391 3.985404,-5.26783 0.468032,-2.64845 -0.610423,-5.26783 -0.610423,-5.26783 z m -33.090027,9.92028 c 0,0 1.157397,-2.46293 1.300879,-4.91725 0.143984,-2.46293 -0.725947,-4.91725 -0.725947,-4.91725 0,0 0.869931,2.45432 0.725947,4.91725 -0.143482,2.45432 -1.300879,4.91725 -1.300879,4.91725 z"
       style="color:#000000;clip-rule:nonzero;display:inline;overflow:visible;visibility:visible;opacity:0.93000034;isolation:auto;mix-blend-mode:normal;color-interpolation:sRGB;color-interpolation-filters:linearRGB;solid-color:#000000;solid-opacity:1;fill:none;fill-opacity:1;fill-rule:nonzero;stroke:#424242;stroke-width:2.78972697;stroke-linecap:butt;stroke-linejoin:miter;stroke-miterlimit:4;stroke-dasharray:none;stroke-dashoffset:0;stroke-opacity:1;color-rendering:auto;image-rendering:auto;shape-rendering:auto;text-rendering:auto;enable-background:accumulate" />
    <path
       style="color:#000000;clip-rule:nonzero;display:inline;overflow:visible;visibility:visible;opacity:0.93000034;isolation:auto;mix-blend-mode:normal;color-interpolation:sRGB;color-interpolation-filters:linearRGB;solid-color:#000000;solid-opacity:1;fill:none;fill-opacity:1;fill-rule:nonzero;stroke:#424242;stroke-width:2.78972697;stroke-linecap:butt;stroke-linejoin:miter;stroke-miterlimit:4;stroke-dasharray:none;stroke-dashoffset:0;stroke-opacity:1;color-rendering:auto;image-rendering:auto;shape-rendering:auto;text-rendering:auto;enable-background:accumulate"
       d="m 72.009315,944.98121 c 0,0 1.182841,-2.45197 1.361338,-4.8933 0.179274,-2.45197 -0.645796,-4.89331 -0.645796,-4.89331 0,0 0.82507,2.44134 0.645796,4.89331 -0.178497,2.44133 -1.361338,4.8933 -1.361338,4.8933 z m -3.116671,-10.07115 c 0,0 0.737931,2.37123 0.264448,4.76888 -0.470875,2.38443 -2.078445,4.76887 -3.160026,4.76887 -1.135897,0 -0.795857,-2.28942 -1.275079,-4.57884 -0.479222,-2.28942 -1.777705,-4.57885 -3.060188,-4.57885 -1.331738,0 -1.296773,2.46971 -1.889823,4.93942 -0.59305,2.46971 -1.814115,4.93942 -2.015006,4.93942 -0.250147,0 0.671163,-2.28942 0.648583,-4.57884 -0.02258,-2.28943 -0.989049,-4.57885 -1.884293,-4.57885 -0.958221,0 -0.929344,2.23095 -1.626669,4.4619 -0.697325,2.23095 -2.120852,4.4619 -3.011283,4.4619 -0.953405,0 -0.42861,-2.28942 -0.767586,-4.57884 -0.338976,-2.28942 -1.541723,-4.57884 -2.819754,-4.57884 -1.359419,0 -1.565813,1.86306 -2.228714,3.72613 -0.662901,1.86307 -1.782308,3.72614 -2.894681,3.72614 -1.19376,0 -1.116428,-2.28942 -1.676979,-4.57885 -0.560551,-2.28942 -1.758985,-4.57884 -2.373816,-4.57884 -0.66198,0 -0.03599,2.48998 -0.255494,4.97217 -0.218767,2.4739 -1.282774,4.9649 -1.62433,4.92544 -0.384168,-0.0444 0.16569,-2.30287 0.05988,-4.5258 -0.106037,-2.22766 -0.924284,-4.44794 -0.924284,-4.44794 0,0 0.842276,2.45913 0.810991,4.93652 -0.03116,2.46709 -0.86912,4.97877 -0.385986,5.03513 0.808522,0.0943 2.349555,-2.39573 2.784963,-4.88393 0.436777,-2.49603 -0.234868,-5.01368 -0.07721,-5.01368 0.48957,0 1.433864,2.28942 1.802906,4.57885 0.369042,2.28942 0.162831,4.57884 1.481853,4.57884 1.613419,0 3.139194,-1.86307 3.95794,-3.72614 0.818745,-1.86306 0.930462,-3.72613 1.788834,-3.72613 1.152769,0 2.101377,2.28942 2.248844,4.57884 0.147466,2.28942 -0.506208,4.57885 0.57246,4.57885 1.391476,0 3.252145,-2.23096 4.136088,-4.46191 0.883944,-2.23095 0.791161,-4.4619 1.248335,-4.4619 0.769984,0 1.482313,2.28942 1.313383,4.57885 -0.168929,2.28942 -1.219118,4.57884 -0.843709,4.57884 0.701937,0 2.380116,-2.46971 3.179756,-4.93942 0.79964,-2.46971 0.720742,-4.93941 1.551434,-4.93941 1.157221,0 2.201564,2.28942 2.489277,4.57884 0.287712,2.28942 -0.181206,4.57884 1.079953,4.57884 1.597932,0 3.51994,-2.63391 3.985404,-5.26783 0.468032,-2.64845 -0.610423,-5.26783 -0.610423,-5.26783 z"
       id="path5668"
       inkscape:path-effect="#path-effect5670"
       inkscape:original-d="m 37.338587,934.91006 33.716893,0 c 1.43686,0 2.59361,0.5435 2.59361,1.2187 l 0,7.7182 c 0,0.6752 -1.15675,1.2187 -2.59361,1.2187 l -33.716893,0 c -1.436858,0 -2.593607,-0.5435 -2.593607,-1.2187 l 0,-7.7182 c 0,-0.6752 1.156749,-1.2187 2.593607,-1.2187 z"
       inkscape:connector-curvature="0" />
    <path
       inkscape:connector-curvature="0"
       inkscape:original-d="m 37.338587,960.91006 33.716893,0 c 1.43686,0 2.59361,0.5435 2.59361,1.2187 l 0,7.7182 c 0,0.6752 -1.15675,1.2187 -2.59361,1.2187 l -33.716893,0 c -1.436858,0 -2.593607,-0.5435 -2.593607,-1.2187 l 0,-7.7182 c 0,-0.6752 1.156749,-1.2187 2.593607,-1.2187 z"
       inkscape:path-effect="#path-effect5674"
       id="path5672"
       d="m 72.009315,970.98121 c 0,0 1.170446,-2.34898 1.160853,-4.71747 -0.0096,-2.37379 -1.139331,-4.74987 -2.233984,-4.83134 -1.157599,-0.0862 -1.067275,2.15954 -1.742761,4.44003 -0.674278,2.27641 -2.117329,4.57538 -3.196357,4.57538 -1.145591,0 -0.874928,-2.10913 -1.300274,-4.21827 -0.425346,-2.10913 -1.546702,-4.21827 -2.81949,-4.21827 -1.342227,0 -1.494493,2.28942 -2.141419,4.57885 -0.646926,2.28942 -1.78851,4.57884 -1.978913,4.57884 -0.246832,0 0.700342,-2.34789 0.661483,-4.69579 -0.03886,-2.34789 -1.06375,-4.69578 -1.96231,-4.69578 -0.954989,0 -0.868752,2.28942 -1.549798,4.57884 -0.681046,2.28942 -2.129375,4.57884 -3.023037,4.57884 -0.927319,0 -0.224204,-2.71577 -0.716536,-5.43155 -0.492332,-2.71577 -2.18011,-5.43155 -3.484228,-5.43155 -1.337776,0 -1.115646,2.28942 -1.625191,4.57884 -0.509544,2.28943 -1.750765,4.57885 -2.88478,4.57885 -1.205199,0 -1.188566,-2.07503 -1.664382,-4.15006 -0.475816,-2.07502 -1.444082,-4.15005 -2.047475,-4.15005 -0.660153,0 -0.07228,2.53403 -0.297773,5.06806 -0.224877,2.52709 -1.34285,5.06805 -1.34285,5.06805 0,0 1.247725,-2.29615 1.675496,-4.5691 0.429954,-2.28455 0.10812,-4.5691 0.281922,-4.5691 0.478132,0 1.210192,2.07503 1.512433,4.15006 0.302241,2.07502 0.174663,4.15005 1.505124,4.15005 1.635061,0 3.318314,-2.28942 4.019368,-4.57884 0.701054,-2.28943 0.41991,-4.57885 1.25664,-4.57885 1.178856,0 2.57683,2.71578 2.841988,5.43155 0.265158,2.71578 -0.602499,5.43156 0.450082,5.43156 1.394707,0 3.285069,-2.28943 4.157624,-4.57885 0.872556,-2.28942 0.727304,-4.57884 1.181248,-4.57884 0.773297,0 1.539158,2.34789 1.381617,4.69578 -0.157542,2.3479 -1.238486,4.69579 -0.866392,4.69579 0.691449,0 2.275066,-2.28942 3.113501,-4.57884 0.838435,-2.28943 0.931687,-4.57885 1.772868,-4.57885 1.147527,0 2.029823,2.10914 2.278741,4.21827 0.248918,2.10914 -0.135543,4.21827 1.13531,4.21827 1.578007,0 3.45783,-2.27987 4.326648,-4.54673 0.870454,-2.27114 0.728746,-4.51645 1.366606,-4.46868 0.945847,0.0708 1.836841,2.19961 1.811962,4.32522 -0.02482,2.12052 -1.013564,4.22568 -1.013564,4.22568 z m -36.206698,-0.15087 c 0,0 1.157397,-2.46293 1.300879,-4.91725 0.143984,-2.46293 -0.725947,-4.91725 -0.725947,-4.91725 0,0 0.869931,2.45432 0.725947,4.91725 -0.143482,2.45432 -1.300879,4.91725 -1.300879,4.91725 z"
       style="color:#000000;clip-rule:nonzero;display:inline;overflow:visible;visibility:visible;opacity:0.93000034;isolation:auto;mix-blend-mode:normal;color-interpolation:sRGB;color-interpolation-filters:linearRGB;solid-color:#000000;solid-opacity:1;fill:none;fill-opacity:1;fill-rule:nonzero;stroke:#424242;stroke-width:2.78972697;stroke-linecap:butt;stroke-linejoin:miter;stroke-miterlimit:4;stroke-dasharray:none;stroke-dashoffset:0;stroke-opacity:1;color-rendering:auto;image-rendering:auto;shape-rendering:auto;text-rendering:auto;enable-background:accumulate" />
  </g>
</svg>
