<?xml version="1.0" encoding="UTF-8" standalone="no"?>
<!-- Created with Inkscape (http://www.inkscape.org/) -->

<svg
   xmlns:dc="http://purl.org/dc/elements/1.1/"
   xmlns:cc="http://creativecommons.org/ns#"
   xmlns:rdf="http://www.w3.org/1999/02/22-rdf-syntax-ns#"
   xmlns:svg="http://www.w3.org/2000/svg"
   xmlns="http://www.w3.org/2000/svg"
   xmlns:sodipodi="http://sodipodi.sourceforge.net/DTD/sodipodi-0.dtd"
   xmlns:inkscape="http://www.inkscape.org/namespaces/inkscape"
   width="220"
   height="220"
   viewBox="0 0 220 220"
   id="svg5999"
   version="1.1"
   inkscape:version="0.91 r13725"
   sodipodi:docname="icon-headerfooter.svg"
   inkscape:export-filename="/home/mh/rect4140-3.png"
   inkscape:export-xdpi="20.970873"
   inkscape:export-ydpi="20.970873">
  <defs
     id="defs6001">
    <inkscape:path-effect
       back_thickness="0.25"
       front_thickness="1"
       stroke_width_bottom="1"
       stroke_width_top="1"
       fat_output="true"
       bottom_smth_variation="0;1"
       top_smth_variation="0;1"
       scale_tb="1"
       scale_tf="1"
       scale_bb="1"
       scale_bf="1"
       top_tgt_variation="0;1"
       bottom_tgt_variation="0;1"
       top_edge_variation="2.5;1"
       bottom_edge_variation="2.5;1"
       bender="54.197031,965.98786 , 4.3226787,0"
       do_bend="true"
       growth="0"
       dist_rdm="75;1"
       direction="54.197031,963.95676 , 15.129376,0.97929277"
       is_visible="true"
       id="path-effect5674"
       effect="rough_hatches" />
    <inkscape:path-effect
       effect="rough_hatches"
       id="path-effect5670"
       is_visible="true"
       direction="54.197031,937.95676 , 15.129376,0.97929277"
       dist_rdm="75;1"
       growth="0"
       do_bend="true"
       bender="54.197031,939.98786 , 4.3226787,0"
       bottom_edge_variation="2.5;1"
       top_edge_variation="2.5;1"
       bottom_tgt_variation="0;1"
       top_tgt_variation="0;1"
       scale_bf="1"
       scale_bb="1"
       scale_tf="1"
       scale_tb="1"
       top_smth_variation="0;1"
       bottom_smth_variation="0;1"
       fat_output="true"
       stroke_width_top="1"
       stroke_width_bottom="1"
       front_thickness="1"
       back_thickness="0.25" />
    <inkscape:path-effect
       back_thickness="0.25"
       front_thickness="1"
       stroke_width_bottom="1"
       stroke_width_top="1"
       fat_output="true"
       bottom_smth_variation="0;1"
       top_smth_variation="0;1"
       scale_tb="1"
       scale_tf="1"
       scale_bb="1"
       scale_bf="1"
       top_tgt_variation="0;1"
       bottom_tgt_variation="0;1"
       top_edge_variation="2.5;1"
       bottom_edge_variation="2.5;1"
       bender="54.197031,907.98786 , 4.3226787,0"
       do_bend="true"
       growth="0"
       dist_rdm="75;1"
       direction="54.197031,905.95676 , 15.129376,0.97929277"
       is_visible="true"
       id="path-effect5666"
       effect="rough_hatches" />
    <inkscape:path-effect
       effect="rough_hatches"
       id="path-effect5567"
       is_visible="true"
       direction="54.197031,875.95676 , 15.129376,0.97929277"
       dist_rdm="75;1"
       growth="0"
       do_bend="true"
       bender="54.197031,877.98786 , 4.3226787,0"
       bottom_edge_variation="2.5;1"
       top_edge_variation="2.5;1"
       bottom_tgt_variation="0;1"
       top_tgt_variation="0;1"
       scale_bf="1"
       scale_bb="1"
       scale_tf="1"
       scale_tb="1"
       top_smth_variation="0;1"
       bottom_smth_variation="0;1"
       fat_output="true"
       stroke_width_top="1"
       stroke_width_bottom="1"
       front_thickness="1"
       back_thickness="0.25" />
    <inkscape:path-effect
       effect="rough_hatches"
       id="path-effect5845"
       is_visible="true"
       direction="133,950.36216 , 15.129376,0.97929277"
       dist_rdm="75;1"
       growth="0"
       do_bend="true"
       bender="147.11076,954.64918 , 4.3226787,0"
       bottom_edge_variation="2.5;1"
       top_edge_variation="2.5;1"
       bottom_tgt_variation="0;1"
       top_tgt_variation="0;1"
       scale_bf="1"
       scale_bb="1"
       scale_tf="1"
       scale_tb="1"
       top_smth_variation="0;1"
       bottom_smth_variation="0;1"
       fat_output="true"
       stroke_width_top="1"
       stroke_width_bottom="1"
       front_thickness="1"
       back_thickness="0.25" />
    <inkscape:path-effect
       back_thickness="0.25"
       front_thickness="1"
       stroke_width_bottom="1"
       stroke_width_top="1"
       fat_output="true"
       bottom_smth_variation="0;1"
       top_smth_variation="0;1"
       scale_tb="1"
       scale_tf="1"
       scale_bb="1"
       scale_bf="1"
       top_tgt_variation="0;1"
       bottom_tgt_variation="0;1"
       top_edge_variation="2.5;1"
       bottom_edge_variation="2.5;1"
       bender="148,935.36216 , 9.6259796,0.50507627"
       do_bend="true"
       growth="0"
       dist_rdm="75;1"
       direction="153,935.36216 , 15.129376,0.97929277"
       is_visible="true"
       id="path-effect5841"
       effect="rough_hatches" />
    <inkscape:path-effect
       effect="rough_hatches"
       id="path-effect5837"
       is_visible="true"
       direction="143,915.36216 , 15.129376,0.97929277"
       dist_rdm="75;1"
       growth="0"
       do_bend="true"
       bender="143,920.36216 , 4.3226787,0"
       bottom_edge_variation="2.5;1"
       top_edge_variation="2.5;1"
       bottom_tgt_variation="0;1"
       top_tgt_variation="0;1"
       scale_bf="1"
       scale_bb="1"
       scale_tf="1"
       scale_tb="1"
       top_smth_variation="0;1"
       bottom_smth_variation="0;1"
       fat_output="true"
       stroke_width_top="1"
       stroke_width_bottom="1"
       front_thickness="1"
       back_thickness="0.25" />
    <inkscape:path-effect
       back_thickness="0.25"
       front_thickness="1"
       stroke_width_bottom="1"
       stroke_width_top="1"
       fat_output="true"
       bottom_smth_variation="0;1"
       top_smth_variation="0;1"
       scale_tb="1"
       scale_tf="1"
       scale_bb="1"
       scale_bf="1"
       top_tgt_variation="0;1"
       bottom_tgt_variation="0;1"
       top_edge_variation="2.5;1"
       bottom_edge_variation="2.5;1"
       bender="147.11076,900.64918 , 4.3226787,0"
       do_bend="true"
       growth="0"
       dist_rdm="75;1"
       direction="147.11076,898.61805 , 15.129376,0.97929277"
       is_visible="true"
       id="path-effect5833"
       effect="rough_hatches" />
    <inkscape:path-effect
       back_thickness="0.25"
       front_thickness="1"
       stroke_width_bottom="1"
       stroke_width_top="1"
       fat_output="true"
       bottom_smth_variation="0;1"
       top_smth_variation="0;1"
       scale_tb="1"
       scale_tf="1"
       scale_bb="1"
       scale_bf="1"
       top_tgt_variation="0;1"
       bottom_tgt_variation="0;1"
       top_edge_variation="2.5;1"
       bottom_edge_variation="2.5;1"
       bender="157.85959,878.53044 , 3.8749075,0"
       do_bend="true"
       growth="0"
       dist_rdm="75;1"
       direction="157.85959,877.4139 , 10.847555,2.3616985"
       is_visible="true"
       id="path-effect5977"
       effect="rough_hatches" />
    <inkscape:path-effect
       back_thickness="0.25"
       front_thickness="1"
       stroke_width_bottom="1"
       stroke_width_top="1"
       fat_output="true"
       bottom_smth_variation="0;1"
       top_smth_variation="0;1"
       scale_tb="1"
       scale_tf="1"
       scale_bb="1"
       scale_bf="1"
       top_tgt_variation="0;1"
       bottom_tgt_variation="0;1"
       top_edge_variation="2.5;1"
       bottom_edge_variation="2.5;1"
       bender="106.88897,1013.5317 , 13.532736,0"
       do_bend="true"
       growth="0"
       dist_rdm="75;1"
       direction="112.88898,1009.5317 , 20.936011,0.8778433"
       is_visible="true"
       id="path-effect5973"
       effect="rough_hatches" />
    <inkscape:path-effect
       effect="rough_hatches"
       id="path-effect5969"
       is_visible="true"
       direction="78.908933,880.01111 , 19.270046,-1.2361718"
       dist_rdm="75;1"
       growth="0"
       do_bend="true"
       bender="78.908933,881.89936 , 8.0311086,0"
       bottom_edge_variation="2.5;1"
       top_edge_variation="2.5;1"
       bottom_tgt_variation="0;1"
       top_tgt_variation="0;1"
       scale_bf="1"
       scale_bb="1"
       scale_tf="1"
       scale_tb="1"
       top_smth_variation="0;1"
       bottom_smth_variation="0;1"
       fat_output="true"
       stroke_width_top="1"
       stroke_width_bottom="1"
       front_thickness="1"
       back_thickness="0.25" />
  </defs>
  <sodipodi:namedview
     id="base"
     pagecolor="#ffffff"
     bordercolor="#666666"
     borderopacity="1.0"
     inkscape:pageopacity="0.0"
     inkscape:pageshadow="2"
     inkscape:zoom="1.4"
     inkscape:cx="323.12021"
     inkscape:cy="76.535424"
     inkscape:document-units="px"
     inkscape:current-layer="layer1"
     showgrid="false"
     inkscape:window-width="3200"
     inkscape:window-height="1647"
     inkscape:window-x="0"
     inkscape:window-y="53"
     inkscape:window-maximized="1"
     units="px" />
  <metadata
     id="metadata6004">
    <rdf:RDF>
      <cc:Work
         rdf:about="">
        <dc:format>image/svg+xml</dc:format>
        <dc:type
           rdf:resource="http://purl.org/dc/dcmitype/StillImage" />
        <dc:title></dc:title>
      </cc:Work>
    </rdf:RDF>
  </metadata>
  <g
     inkscape:label="Layer 1"
     inkscape:groupmode="layer"
     id="layer1"
     transform="translate(0,-832.36216)">
    <rect
       rx="10"
       y="867.36218"
       x="35.000004"
       height="150"
       width="150"
       id="rect5438"
       style="color:#000000;clip-rule:nonzero;display:inline;overflow:visible;visibility:visible;opacity:1;isolation:auto;mix-blend-mode:normal;color-interpolation:sRGB;color-interpolation-filters:linearRGB;solid-color:#000000;solid-opacity:1;fill:#000000;fill-opacity:0;fill-rule:nonzero;stroke:#e7e7e7;stroke-width:6;stroke-linecap:butt;stroke-linejoin:miter;stroke-miterlimit:4;stroke-dasharray:none;stroke-dashoffset:0;stroke-opacity:1;color-rendering:auto;image-rendering:auto;shape-rendering:auto;text-rendering:auto;enable-background:accumulate" />
    <rect
       rx="25"
       y="842.36218"
       x="10"
       height="200"
       width="200"
       id="rect5440"
       style="color:#000000;clip-rule:nonzero;display:inline;overflow:visible;visibility:visible;opacity:1;isolation:auto;mix-blend-mode:normal;color-interpolation:sRGB;color-interpolation-filters:linearRGB;solid-color:#000000;solid-opacity:1;fill:#000000;fill-opacity:0;fill-rule:nonzero;stroke:#424242;stroke-width:6;stroke-linecap:butt;stroke-linejoin:miter;stroke-miterlimit:4;stroke-dasharray:none;stroke-dashoffset:0;stroke-opacity:1;color-rendering:auto;image-rendering:auto;shape-rendering:auto;text-rendering:auto;enable-background:accumulate" />
    <rect
       style="color:#000000;clip-rule:nonzero;display:inline;overflow:visible;visibility:visible;opacity:1;isolation:auto;mix-blend-mode:normal;color-interpolation:sRGB;color-interpolation-filters:linearRGB;solid-color:#000000;solid-opacity:1;fill:#ffffff;fill-opacity:1;fill-rule:nonzero;stroke:#424242;stroke-width:6;stroke-linecap:butt;stroke-linejoin:miter;stroke-miterlimit:4;stroke-dasharray:none;stroke-dashoffset:0;stroke-opacity:1;color-rendering:auto;image-rendering:auto;shape-rendering:auto;text-rendering:auto;enable-background:accumulate"
       id="rect5963"
       width="149.04582"
       height="155.4744"
       x="35.630131"
       y="866.30328"
       rx="9.936388" />
    <rect
       rx="10.014431"
       y="895.97052"
       x="35.044804"
       height="106.38198"
       width="150.21646"
       id="rect5965"
       style="color:#000000;clip-rule:nonzero;display:inline;overflow:visible;visibility:visible;opacity:1;isolation:auto;mix-blend-mode:normal;color-interpolation:sRGB;color-interpolation-filters:linearRGB;solid-color:#000000;solid-opacity:1;fill:#ffffff;fill-opacity:1;fill-rule:nonzero;stroke:#424242;stroke-width:5;stroke-linecap:butt;stroke-linejoin:miter;stroke-miterlimit:4;stroke-dasharray:none;stroke-dashoffset:0;stroke-opacity:1;color-rendering:auto;image-rendering:auto;shape-rendering:auto;text-rendering:auto;enable-background:accumulate" />
    <path
       style="color:#000000;clip-rule:nonzero;display:inline;overflow:visible;visibility:visible;opacity:0.93000034;isolation:auto;mix-blend-mode:normal;color-interpolation:sRGB;color-interpolation-filters:linearRGB;solid-color:#000000;solid-opacity:1;fill:none;fill-opacity:1;fill-rule:nonzero;stroke:#424242;stroke-width:6;stroke-linecap:butt;stroke-linejoin:miter;stroke-miterlimit:4;stroke-dasharray:none;stroke-dashoffset:0;stroke-opacity:1;color-rendering:auto;image-rendering:auto;shape-rendering:auto;text-rendering:auto;enable-background:accumulate"
       d="m 113.90668,877.57771 c 0,0 0.34789,0.4131 0.63201,0.82204 0.28701,0.4131 0.51025,0.82203 0.51025,0.82203 0,0 -0.22324,-0.40893 -0.51025,-0.82203 -0.28412,-0.40894 -0.63201,-0.82204 -0.63201,-0.82204 z m 1.14226,7.71122 c 0,0 -0.39199,0.64789 -0.39199,0.64789 0,0 0.39199,-0.64789 0.39199,-0.64789 z m -6.24707,-8.11017 c 0,0 1.89367,2.19431 1.69229,4.41166 -0.20034,2.20584 -2.36577,4.41167 -3.85116,4.41167 -1.42832,0 -0.89298,-2.11081 -1.84362,-4.22163 -0.95064,-2.11081 -3.38725,-4.22162 -5.038954,-4.22162 -1.584558,0 -0.644775,2.2911 -1.085569,4.58221 -0.440794,2.29111 -2.262165,4.58221 -2.629548,4.58221 -0.300239,0 1.073448,-2.11081 0.802435,-4.22162 -0.271013,-2.11082 -2.186726,-4.22163 -3.345245,-4.22163 -1.11863,0 -0.373783,2.05234 -1.010221,4.10468 -0.636437,2.05234 -2.654158,4.10468 -3.889951,4.10468 -1.195902,0 -0.359012,-2.11081 -1.064784,-4.22163 -0.705772,-2.11081 -2.954206,-4.22162 -4.600239,-4.22162 -1.642269,0 -1.2976,1.68444 -1.829537,3.36888 -0.531936,1.68445 -1.940478,3.36889 -3.446257,3.36889 -1.502016,0 -1.466886,-2.11081 -2.68673,-4.22163 -1.219844,-2.11081 -3.694661,-4.22162 -4.49605,-4.22162 -0.730107,0 1.169988,2.32521 1.374715,4.65043 0.204727,2.32522 -1.285912,4.65043 -1.85584,4.65043 -0.498645,0 0.364374,-2.11081 -0.398882,-4.22162 -0.763257,-2.11082 -3.15279,-4.22163 -4.436023,-4.22163 -1.21726,0 0.04792,2.28136 -0.20565,4.56272 -0.253567,2.28136 -2.025879,4.56272 -2.635847,4.56272 -0.543996,0 0.555831,-2.11081 0.05773,-4.22162 -0.498107,-2.11081 -2.594145,-4.22163 -3.809353,-4.22163 -1.164555,0 -0.234212,2.1498 -0.844657,4.29959 -0.610445,2.1498 -2.761678,4.29959 -4.155621,4.29959 -1.318296,0 -0.451909,-2.32521 -1.026881,-4.65043 -0.566784,-2.29211 -2.733381,-4.65043 -2.733381,-4.65043 0,0 2.326849,2.59675 2.655324,5.14941 0.331314,2.5747 -1.155865,5.1494 0.255563,5.1494 1.894971,0 4.683312,-2.14979 5.680352,-4.29959 0.997041,-2.14979 0.20278,-4.29959 0.866307,-4.29959 1.08995,0 2.743776,2.11081 2.862297,4.22163 0.118521,2.11081 -1.298262,4.22162 -0.62901,4.22162 1.110997,0 3.544076,-2.28136 4.207898,-4.56272 0.663822,-2.28136 -0.441615,-4.56272 0.274617,-4.56272 1.157976,0 3.105296,2.11081 3.488967,4.22163 0.383672,2.11081 -0.796304,4.22162 -0.172401,4.22162 1.070955,0 3.230249,-2.32521 3.443663,-4.65043 0.213413,-2.32522 -1.519054,-4.65043 -1.289975,-4.65043 0.676131,0 2.708735,2.11081 3.548994,4.22162 0.840259,2.11082 0.488173,4.22163 2.115445,4.22163 2.006807,0 3.968774,-1.68444 4.803622,-3.36889 0.834848,-1.68444 0.542577,-3.36888 1.683818,-3.36888 1.520776,0 3.326997,2.11081 3.653184,4.22162 0.326187,2.11081 -0.82766,4.22163 0.4935,4.22163 1.736821,0 4.374125,-2.05234 5.379632,-4.10468 1.005507,-2.05234 0.379217,-4.10468 0.996818,-4.10468 1.033263,0 2.506762,2.11081 2.39819,4.22163 -0.108572,2.11081 -1.799216,4.22162 -1.373719,4.22162 0.86841,0 3.352302,-2.2911 4.205103,-4.58221 0.852796,-2.29111 0.07451,-4.58221 1.158036,-4.58221 1.52645,0 3.52085,2.11081 4.0919,4.22162 0.57106,2.11082 -0.28124,4.22163 1.27234,4.22163 2.01698,0 4.76183,-2.45532 5.02778,-4.91064 0.26779,-2.47228 -2.10541,-4.91064 -2.10541,-4.91064 z m -63.853941,0.18391 c 0,0 1.910965,2.31151 1.801024,4.61723 -0.108223,2.26969 -2.082752,4.60701 -2.540326,4.49929 -0.346046,-0.0815 0.585668,-2.10133 0.464968,-3.80585 -0.135551,-1.91427 -1.176838,-3.092 -1.295635,-2.53791 -0.446945,2.08463 -0.609003,3.84916 -0.609003,3.84916 0,0 0.322023,-0.61265 0.531573,-1.27252 0.129546,-0.40794 0.388525,-1.62841 0.368923,-1.57869 0.185067,-0.46944 0.83726,0.94652 0.614223,2.67666 -0.212763,1.65046 -1.376542,3.55593 -0.924345,3.6671 0.86152,0.21178 3.530358,-2.38309 3.764199,-4.92325 0.2385,-2.59075 -2.175601,-5.19122 -2.175601,-5.19122 z"
       id="path5967"
       inkscape:path-effect="#path-effect5969"
       inkscape:original-d="m 47.587627,877.17876 62.642643,0 c 2.66954,0 4.81867,0.50529 4.81867,1.13294 l 0,7.17532 c 0,0.62766 -2.14913,1.13294 -4.81867,1.13294 l -62.642643,0 c -2.66954,0 -4.81867,-0.50528 -4.81867,-1.13294 l 0,-7.17532 c 0,-0.62765 2.14913,-1.13294 4.81867,-1.13294 z"
       inkscape:connector-curvature="0" />
    <path
       inkscape:connector-curvature="0"
       inkscape:original-d="m 56.962607,1009.1256 105.555343,0 c 4.49829,0 8.11965,0.289 8.11965,0.648 l 0,4.1039 c 0,0.359 -3.62136,0.648 -8.11965,0.648 l -105.555343,0 c -4.49829,0 -8.11967,-0.289 -8.11967,-0.648 l 0,-4.1039 c 0,-0.359 3.62138,-0.648 8.11967,-0.648 z"
       inkscape:path-effect="#path-effect5973"
       id="path5971"
       d="m 167.8075,1009.2812 c 0,0 1.25059,0.5468 1.93384,1.0573 0.7318,0.5467 0.89626,1.0572 0.89626,1.0572 0,0 -0.16446,-0.5105 -0.89626,-1.0572 -0.68325,-0.5105 -1.93384,-1.0573 -1.93384,-1.0573 z m 2.8301,2.8838 c 0,0 -0.25004,0.396 -1.10921,0.8152 -0.84399,0.4119 -2.2424,0.8285 -3.36251,0.8572 -1.14477,0.029 0.20973,-1.0461 -0.63581,-2.1408 -0.84268,-1.0911 -3.8896,-2.1905 -5.86325,-2.1905 -1.01691,0 -1.00868,0.3202 -0.9543,0.8005 0.0587,0.5182 0.11493,1.0826 -0.5079,1.7609 -0.6069,0.661 -1.73157,1.2601 -3.14329,1.761 -1.35366,0.4802 -2.78448,0.8004 -3.4368,0.8004 -1.36909,0 0.60955,-1.1002 0.74253,-2.2004 0.13298,-1.1002 -1.57971,-2.2004 -2.32634,-2.2004 -0.62357,0 0.34513,1.0417 -0.56363,2.0834 -0.90877,1.0416 -3.69501,2.0833 -4.65259,2.0833 -0.83453,0 1.17226,-1.1002 0.95703,-2.2004 -0.21522,-1.1002 -2.65245,-2.2004 -4.36989,-2.2004 -1.67989,0 -1.49541,0.6733 -1.99067,1.3466 -0.49526,0.6733 -1.67025,1.3467 -3.07074,1.3467 -1.36295,0 -1.36406,-1.1002 -3.53803,-2.2004 -2.17397,-1.1002 -6.5208,-2.2004 -8.57003,-2.2004 -1.05795,0 -0.68521,0.3287 -0.0586,0.8218 0.68225,0.5368 1.41403,1.1067 1.64362,1.8079 0.22383,0.6836 -0.12321,1.2887 -0.77175,1.8079 -0.61584,0.4931 -1.39748,0.8218 -1.58787,0.8218 -0.44743,0 0.88604,-1.1002 0.0897,-2.2004 -0.79637,-1.1002 -3.72259,-2.2004 -4.68427,-2.2004 -0.51276,0 -0.0265,0.3177 0.48113,0.7944 0.53791,0.5049 0.97142,1.0836 0.77675,1.7475 -0.19241,0.6561 -0.96984,1.2503 -2.04307,1.7475 -1.0286,0.4766 -2.18401,0.7944 -2.63695,0.7944 -0.9697,0 0.80011,-1.1002 0.55836,-2.2004 -0.24176,-1.1002 -2.49507,-2.2004 -3.50591,-2.2004 -0.85897,0 0.51242,1.1392 -0.30919,2.2785 -0.82161,1.1392 -3.83623,2.2784 -4.88406,2.2784 -0.89597,0 1.07013,-1.1002 0.78965,-2.2004 -0.28049,-1.1002 -2.80756,-2.2004 -4.68476,-2.2004 -0.96813,0 -1.11459,0.2982 -1.24776,0.7456 -0.14466,0.4859 -0.27255,1.0052 -1.02102,1.6402 -0.72626,0.6162 -1.86705,1.1732 -3.222215,1.6402 -1.29796,0.4473 -2.607722,0.7456 -3.145987,0.7456 -1.135601,0 1.089314,-1.1002 1.365645,-2.2004 0.276332,-1.1002 -1.39592,-2.2004 -2.320733,-2.2004 -0.892482,0 -0.570831,0.644 -0.764234,1.2881 -0.193403,0.644 -0.90186,1.2881 -1.11127,1.2881 -0.177079,0 0.663836,-1.1002 -0.600514,-2.2004 -1.26435,-1.1002 -4.633965,-2.2004 -5.226982,-2.2004 -0.445641,0 2.46721,1.1246 3.121195,2.2492 0.653985,1.1246 -0.950895,2.2492 -2.067975,2.2492 -0.969704,0 -0.425462,-1.1002 -1.891247,-2.2004 -1.465784,-1.1002 -4.941597,-2.2004 -5.946287,-2.2004 -0.534651,0 0.09839,0.3208 0.849496,0.802 0.799189,0.5119 1.536386,1.0919 1.728044,1.7643 0.189788,0.6658 -0.213033,1.2589 -0.888368,1.7643 -0.642945,0.4812 -1.425415,0.8019 -1.555381,0.8019 -0.324544,0 1.289576,-1.1001 0.835296,-2.2003 -0.454279,-1.1002 -2.976957,-2.2004 -3.569974,-2.2004 -0.498049,0 1.17949,0.9367 1.428863,1.8735 0.249373,0.9368 -0.929419,1.8735 -1.336642,1.8735 -0.312255,0 0.640424,-1.1002 -0.459936,-2.2004 -1.100359,-1.1002 -4.253757,-2.2004 -4.773041,-2.2004 -0.290426,0 0.460621,0.3086 1.280027,0.7715 0.864428,0.4883 1.629005,1.0546 1.84763,1.6973 0.217142,0.6382 -0.159133,1.2132 -0.829749,1.6972 -0.641416,0.4629 -1.456427,0.7715 -1.713875,0.7715 -0.576463,0 0.792129,-1.1002 -0.194927,-2.2004 -0.987057,-1.1002 -4.329762,-2.2004 -6.323698,-2.2004 -1.030134,0 -0.931905,0.3275 -0.73652,0.8187 0.211892,0.5328 0.434084,1.1047 0.02373,1.8012 -0.400343,0.6795 -1.316532,1.2855 -2.482062,1.8012 -1.110124,0.4913 -2.266037,0.8188 -2.579473,0.8188 -0.688548,0 1.467201,-1.1008 1.358966,-2.1935 -0.107938,-1.0897 -2.468215,-2.1803 -4.205796,-2.1448 -1.632444,0.033 -1.355789,0.9581 -2.186021,1.8368 -0.824897,0.873 -2.74083,1.734 -3.445992,1.6118 -0.636679,-0.1105 -0.08463,-1.0219 -0.380732,-1.7514 -0.32075,-0.7902 -1.376649,-1.3878 -1.475623,-1.1742 0.04914,-0.1061 -0.192173,1.4272 -0.19517,1.4363 -0.159637,0.4863 -0.511704,0.8797 -0.511704,0.8797 0,0 0.4805,-0.3167 0.78367,-0.6309 0.267914,-0.2777 0.500039,-0.6916 0.492203,-0.686 0.225462,-0.1621 0.553189,0.4914 0.148476,1.2244 -0.390807,0.7078 -1.637218,1.5706 -1.00528,1.7012 0.899929,0.186 3.944357,-0.673 5.642707,-1.5689 1.701864,-0.8976 2.033499,-1.8566 3.18747,-1.8797 1.647791,-0.033 2.930106,1.0576 2.026484,2.1466 -0.906133,1.0921 -4.017306,2.1917 -3.202934,2.1917 0.563656,0 2.210948,-0.3275 3.901752,-0.8187 1.764029,-0.5126 3.314563,-1.125 4.340152,-1.8013 1.043358,-0.6879 1.31488,-1.2769 1.459028,-1.8012 0.135076,-0.4912 0.152895,-0.8187 0.932811,-0.8187 1.868826,0 4.128666,1.1002 4.095412,2.2004 -0.03325,1.1002 -2.359602,2.2004 -1.658029,2.2004 0.507668,0 1.796526,-0.3086 2.992325,-0.7715 1.242866,-0.4811 2.218326,-1.0618 2.591416,-1.6972 0.374951,-0.6386 0.07776,-1.213 -0.461294,-1.6973 -0.515243,-0.4628 -1.167773,-0.7714 -1.127566,-0.7714 0.394174,0 2.464707,1.1002 2.544756,2.2004 0.08005,1.1002 -1.830384,2.2003 -1.393019,2.2003 0.907662,0 3.20542,-0.9367 3.824793,-1.8735 0.619373,-0.9367 -0.43964,-1.8735 -0.44203,-1.8735 0.467907,0 1.90772,1.1002 1.341689,2.2004 -0.566031,1.1002 -3.137906,2.2004 -2.688252,2.2004 0.380186,0 1.647814,-0.3208 2.862108,-0.802 1.267013,-0.5021 2.286717,-1.1018 2.712243,-1.7643 0.428543,-0.6672 0.173345,-1.2576 -0.279498,-1.7643 -0.429978,-0.4812 -0.953189,-0.802 -0.668759,-0.802 0.879581,0 3.272528,1.1002 3.718003,2.2004 0.445475,1.1002 -1.056522,2.2004 0.03829,2.2004 1.617519,0 4.515551,-1.1246 4.904497,-2.2492 0.388947,-1.1246 -1.731192,-2.2492 -1.78599,-2.2492 0.467907,0 2.754657,1.1002 2.998697,2.2004 0.24404,1.1002 -1.554631,2.2004 -1.252442,2.2004 0.70985,0 2.265814,-0.644 3.056506,-1.2881 0.790691,-0.644 0.816108,-1.2881 1.20815,-1.2881 0.799704,0 1.389091,1.1002 0.09245,2.2004 -1.296642,1.1002 -4.479312,2.2004 -3.2186,2.2004 0.788484,0 2.562478,-0.2982 4.400401,-0.7456 1.90761,-0.4643 3.639125,-1.0268 4.931007,-1.6402 1.31779,-0.6257 1.90389,-1.1636 2.35447,-1.6402 0.42292,-0.4473 0.65828,-0.7456 1.3762,-0.7456 1.75208,0 3.19628,1.1002 2.45646,2.2004 -0.73982,1.1002 -3.66368,2.2004 -2.6426,2.2004 1.54827,0 5.86961,-1.1392 7.74772,-2.2784 1.87812,-1.1392 1.31302,-2.2785 1.67155,-2.2785 0.88573,0 2.05618,1.1002 1.27762,2.2004 -0.77856,1.1002 -3.50612,2.2004 -2.41131,2.2004 0.70315,0 2.34089,-0.3177 3.93661,-0.7943 1.65639,-0.4948 3.05359,-1.094 3.85139,-1.7476 0.80471,-0.6592 0.85655,-1.2471 0.65624,-1.7475 -0.19078,-0.4766 -0.57,-0.7944 -0.30746,-0.7944 0.83657,0 2.67993,1.1002 2.45599,2.2004 -0.22394,1.1002 -2.51516,2.2004 -1.94262,2.2004 0.44061,0 1.71476,-0.3287 2.91298,-0.8218 1.25301,-0.5156 2.2281,-1.1279 2.63606,-1.8079 0.4151,-0.6919 0.16045,-1.2804 -0.15464,-1.8079 -0.2945,-0.4931 -0.55005,-0.8218 0.25767,-0.8218 1.92413,0 5.18809,1.1002 6.34175,2.2004 1.15366,1.1002 0.19702,2.2004 1.68507,2.2004 1.90094,0 3.95058,-0.6733 5.07027,-1.3467 1.11969,-0.6733 1.30944,-1.3466 2.48888,-1.3466 1.59233,0 2.9467,1.1002 2.14161,2.2004 -0.80509,1.1002 -3.76963,2.2004 -2.80999,2.2004 1.45802,0 5.4605,-1.0417 7.33528,-2.0833 1.87479,-1.0417 1.62188,-2.0833 1.74501,-2.0833 0.62152,0 1.25135,1.1002 0.0981,2.2004 -1.15328,1.1002 -4.08968,2.2003 -2.59548,2.2003 0.90253,0 2.81795,-0.3201 4.7421,-0.8004 1.99675,-0.4984 3.74879,-1.1025 4.96406,-1.761 1.23776,-0.6706 1.67066,-1.2503 1.95334,-1.7609 0.2659,-0.4803 0.36693,-0.8005 1.13362,-0.8005 1.84951,0 3.8145,1.1011 3.64204,2.193 -0.17303,1.0956 -2.46771,2.1711 -1.15979,2.1384 1.72832,-0.043 4.15849,-0.7076 5.45254,-1.3669 1.33281,-0.6791 1.39016,-1.3047 1.39016,-1.3047 z"
       style="color:#000000;clip-rule:nonzero;display:inline;overflow:visible;visibility:visible;opacity:0.93000034;isolation:auto;mix-blend-mode:normal;color-interpolation:sRGB;color-interpolation-filters:linearRGB;solid-color:#000000;solid-opacity:1;fill:none;fill-opacity:1;fill-rule:nonzero;stroke:#424242;stroke-width:1.57419074;stroke-linecap:butt;stroke-linejoin:miter;stroke-miterlimit:4;stroke-dasharray:none;stroke-dashoffset:0;stroke-opacity:1;color-rendering:auto;image-rendering:auto;shape-rendering:auto;text-rendering:auto;enable-background:accumulate" />
    <path
       inkscape:connector-curvature="0"
       inkscape:original-d="m 142.74747,875.73908 30.22427,0 c 1.28802,0 2.32495,0.29878 2.32495,0.66992 l 0,4.24284 c 0,0.37114 -1.03693,0.66992 -2.32495,0.66992 l -30.22427,0 c -1.28802,0 -2.32495,-0.29878 -2.32495,-0.66992 l 0,-4.24284 c 0,-0.37114 1.03693,-0.66992 2.32495,-0.66992 z"
       inkscape:path-effect="#path-effect5977"
       id="path5975"
       d="m 174.17527,875.83513 c 0,0 0.43019,1.20358 -0.003,2.44083 -0.42692,1.22042 -1.65106,2.44083 -2.14712,2.44083 -0.58586,0 -0.0743,-1.15139 -0.26744,-2.30278 -0.19319,-1.1514 -1.09116,-2.30279 -2.14742,-2.30279 -1.13613,0 -1.29041,1.32792 -2.1098,2.65584 -0.81939,1.32793 -2.3039,2.65585 -2.97632,2.65585 -0.7523,0 -0.12174,-1.1514 0.0112,-2.30279 0.13297,-1.15139 -0.23164,-2.30278 -0.6255,-2.30278 -0.49427,0 -0.57866,1.09414 -1.1603,2.18828 -0.58164,1.09414 -1.66053,2.18828 -2.02283,2.18828 -0.46271,0 0.24707,-1.1514 0.2554,-2.30279 0.008,-1.15139 -0.68482,-2.30278 -1.6046,-2.30278 -1.04408,0 -1.40077,0.73392 -1.8912,1.46785 -0.49043,0.73392 -1.11459,1.46785 -1.73928,1.46785 -0.74896,0 -0.66041,-1.15139 -1.24668,-2.30279 -0.58627,-1.15139 -1.84737,-2.30278 -2.9469,-2.30278 -1.17615,0 -0.93874,1.36132 -1.27222,2.72264 -0.33347,1.36132 -1.23783,2.72263 -1.41422,2.72263 -0.253,0 0.32395,-1.15139 0.24938,-2.30278 -0.0746,-1.15139 -0.80068,-2.30279 -1.31105,-2.30279 -0.59115,0 -0.35948,1.31838 -0.86367,2.63676 -0.50419,1.31838 -1.74424,2.63676 -2.19938,2.63676 -0.52053,0 0.20302,-1.32315 0.26539,-2.6463 0.0625,-1.32614 -0.59993,-2.6463 -0.59993,-2.6463 0,0 0.71846,1.54951 0.38556,3.13486 -0.32914,1.56742 -1.61303,3.13485 -0.99019,3.13485 0.96686,0 2.78309,-1.31838 3.6076,-2.63676 0.82452,-1.31838 0.65731,-2.63676 0.73676,-2.63676 0.38243,0 0.76482,1.1514 0.55964,2.30279 -0.20517,1.15139 -0.99791,2.30278 -0.61698,2.30278 0.6881,0 2.17907,-1.36131 2.8433,-2.72263 0.66423,-1.36132 0.50173,-2.72264 1.16616,-2.72264 0.97161,0 1.88899,1.15139 2.19551,2.30279 0.30652,1.15139 0.002,2.30278 0.87907,2.30278 1.1364,0 2.19474,-0.73393 2.86349,-1.46785 0.66875,-0.73393 0.94791,-1.46785 1.48027,-1.46785 0.79185,0 1.14127,1.15139 0.8532,2.30278 -0.28807,1.15139 -1.21364,2.30279 -0.62301,2.30279 0.87401,0 2.47461,-1.09414 3.32209,-2.18828 0.84748,-1.09414 0.94185,-2.18828 0.92441,-2.18828 0.26593,0 0.28682,1.15139 -0.1259,2.30278 -0.41272,1.15139 -1.25906,2.30279 -0.37884,2.30279 1.18414,0 3.24714,-1.32792 4.38918,-2.65585 1.14203,-1.32792 1.36309,-2.65584 1.98751,-2.65584 0.92833,0 1.48259,1.15139 1.39602,2.30279 -0.0866,1.15139 -0.81396,2.30278 -0.10016,2.30278 1.03155,0 2.77377,-1.46469 3.28843,-2.92938 0.52321,-1.48903 -0.27603,-2.92939 -0.27603,-2.92939 z m -31.46687,-0.096 c 0,0 0.44384,1.21493 0.0838,2.39482 -0.35165,1.15248 -1.40187,2.25902 -1.58395,1.96107 -0.20507,-0.33556 -0.16748,-1.51902 -0.27991,-2.25728 -0.12919,-0.84832 -0.441,-1.5872 -0.441,-1.5872 0,0 0.32685,0.92927 0.30554,1.99697 -0.0172,0.86065 -0.42322,2.47966 -0.29623,2.82462 0.22915,0.62245 1.90061,-0.53704 2.50328,-2.1345 0.58744,-1.55711 -0.29156,-3.1985 -0.29156,-3.1985 z"
       style="color:#000000;clip-rule:nonzero;display:inline;overflow:visible;visibility:visible;opacity:0.93000034;isolation:auto;mix-blend-mode:normal;color-interpolation:sRGB;color-interpolation-filters:linearRGB;solid-color:#000000;solid-opacity:1;fill:none;fill-opacity:1;fill-rule:nonzero;stroke:#424242;stroke-width:2.19036841;stroke-linecap:butt;stroke-linejoin:miter;stroke-miterlimit:4;stroke-dasharray:none;stroke-dashoffset:0;stroke-opacity:1;color-rendering:auto;image-rendering:auto;shape-rendering:auto;text-rendering:auto;enable-background:accumulate" />
  </g>
</svg>
