<?xml version="1.0" encoding="UTF-8" standalone="no"?>
<!-- Created with Inkscape (http://www.inkscape.org/) -->

<svg
   xmlns:dc="http://purl.org/dc/elements/1.1/"
   xmlns:cc="http://creativecommons.org/ns#"
   xmlns:rdf="http://www.w3.org/1999/02/22-rdf-syntax-ns#"
   xmlns:svg="http://www.w3.org/2000/svg"
   xmlns="http://www.w3.org/2000/svg"
   xmlns:sodipodi="http://sodipodi.sourceforge.net/DTD/sodipodi-0.dtd"
   xmlns:inkscape="http://www.inkscape.org/namespaces/inkscape"
   width="220"
   height="220"
   viewBox="0 0 220 220"
   id="svg5999"
   version="1.1"
   inkscape:version="0.91 r13725"
   sodipodi:docname="icon-layout.svg"
   inkscape:export-filename="/home/mh/rect4140-3.png"
   inkscape:export-xdpi="20.970873"
   inkscape:export-ydpi="20.970873">
  <defs
     id="defs6001">
    <inkscape:path-effect
       effect="rough_hatches"
       id="path-effect7442"
       is_visible="true"
       direction="60,962.36216 , 11.668628,11.789342"
       dist_rdm="75;1"
       growth="0"
       do_bend="true"
       bender="45,947.36216 , 0.86021682,0"
       bottom_edge_variation="8.000002;1"
       top_edge_variation="8.000002;1"
       bottom_tgt_variation="0;1"
       top_tgt_variation="0;1"
       scale_bf="1"
       scale_bb="1"
       scale_tf="1"
       scale_tb="1"
       top_smth_variation="0;1"
       bottom_smth_variation="0;1"
       fat_output="true"
       stroke_width_top="1"
       stroke_width_bottom="1"
       front_thickness="1"
       back_thickness="0.25" />
    <inkscape:path-effect
       back_thickness="0.25"
       front_thickness="1"
       stroke_width_bottom="1"
       stroke_width_top="1"
       fat_output="true"
       bottom_smth_variation="0;1"
       top_smth_variation="0;1"
       scale_tb="1"
       scale_tf="1"
       scale_bb="1"
       scale_bf="1"
       top_tgt_variation="0;1"
       bottom_tgt_variation="0;1"
       top_edge_variation="8.000002;1"
       bottom_edge_variation="8.000002;1"
       bender="125.03012,908.11215 , 4.7124208,0.35714286"
       do_bend="true"
       growth="0"
       dist_rdm="75;1"
       direction="145,912.36216 , 10.098993,11.871253"
       is_visible="true"
       id="path-effect7438"
       effect="rough_hatches" />
    <inkscape:path-effect
       effect="rough_hatches"
       id="path-effect7434"
       is_visible="true"
       direction="130,967.36216 , 17.373093,15.404826"
       dist_rdm="75;1"
       growth="0"
       do_bend="true"
       bender="125,962.36219 , 5,0"
       bottom_edge_variation="8.000002;1"
       top_edge_variation="8.000002;1"
       bottom_tgt_variation="0;1"
       top_tgt_variation="0;1"
       scale_bf="1"
       scale_bb="1"
       scale_tf="1"
       scale_tb="1"
       top_smth_variation="0;1"
       bottom_smth_variation="0;1"
       fat_output="true"
       stroke_width_top="1"
       stroke_width_bottom="1"
       front_thickness="1"
       back_thickness="0.25" />
    <inkscape:path-effect
       back_thickness="0.25"
       front_thickness="1"
       stroke_width_bottom="1"
       stroke_width_top="1"
       fat_output="true"
       bottom_smth_variation="0;1"
       top_smth_variation="0;1"
       scale_tb="1"
       scale_tf="1"
       scale_bb="1"
       scale_bf="1"
       top_tgt_variation="0;1"
       bottom_tgt_variation="0;1"
       top_edge_variation="2.5;1"
       bottom_edge_variation="2.5;1"
       bender="54.197031,965.98786 , 4.3226787,0"
       do_bend="true"
       growth="0"
       dist_rdm="75;1"
       direction="54.197031,963.95676 , 15.129376,0.97929277"
       is_visible="true"
       id="path-effect5674"
       effect="rough_hatches" />
    <inkscape:path-effect
       effect="rough_hatches"
       id="path-effect5670"
       is_visible="true"
       direction="54.197031,937.95676 , 15.129376,0.97929277"
       dist_rdm="75;1"
       growth="0"
       do_bend="true"
       bender="54.197031,939.98786 , 4.3226787,0"
       bottom_edge_variation="2.5;1"
       top_edge_variation="2.5;1"
       bottom_tgt_variation="0;1"
       top_tgt_variation="0;1"
       scale_bf="1"
       scale_bb="1"
       scale_tf="1"
       scale_tb="1"
       top_smth_variation="0;1"
       bottom_smth_variation="0;1"
       fat_output="true"
       stroke_width_top="1"
       stroke_width_bottom="1"
       front_thickness="1"
       back_thickness="0.25" />
    <inkscape:path-effect
       back_thickness="0.25"
       front_thickness="1"
       stroke_width_bottom="1"
       stroke_width_top="1"
       fat_output="true"
       bottom_smth_variation="0;1"
       top_smth_variation="0;1"
       scale_tb="1"
       scale_tf="1"
       scale_bb="1"
       scale_bf="1"
       top_tgt_variation="0;1"
       bottom_tgt_variation="0;1"
       top_edge_variation="2.5;1"
       bottom_edge_variation="2.5;1"
       bender="54.197031,907.98786 , 4.3226787,0"
       do_bend="true"
       growth="0"
       dist_rdm="75;1"
       direction="54.197031,905.95676 , 15.129376,0.97929277"
       is_visible="true"
       id="path-effect5666"
       effect="rough_hatches" />
    <inkscape:path-effect
       effect="rough_hatches"
       id="path-effect5567"
       is_visible="true"
       direction="54.197031,875.95676 , 15.129376,0.97929277"
       dist_rdm="75;1"
       growth="0"
       do_bend="true"
       bender="54.197031,877.98786 , 4.3226787,0"
       bottom_edge_variation="2.5;1"
       top_edge_variation="2.5;1"
       bottom_tgt_variation="0;1"
       top_tgt_variation="0;1"
       scale_bf="1"
       scale_bb="1"
       scale_tf="1"
       scale_tb="1"
       top_smth_variation="0;1"
       bottom_smth_variation="0;1"
       fat_output="true"
       stroke_width_top="1"
       stroke_width_bottom="1"
       front_thickness="1"
       back_thickness="0.25" />
    <inkscape:path-effect
       effect="rough_hatches"
       id="path-effect5845"
       is_visible="true"
       direction="133,950.36216 , 15.129376,0.97929277"
       dist_rdm="75;1"
       growth="0"
       do_bend="true"
       bender="147.11076,954.64918 , 4.3226787,0"
       bottom_edge_variation="2.5;1"
       top_edge_variation="2.5;1"
       bottom_tgt_variation="0;1"
       top_tgt_variation="0;1"
       scale_bf="1"
       scale_bb="1"
       scale_tf="1"
       scale_tb="1"
       top_smth_variation="0;1"
       bottom_smth_variation="0;1"
       fat_output="true"
       stroke_width_top="1"
       stroke_width_bottom="1"
       front_thickness="1"
       back_thickness="0.25" />
    <inkscape:path-effect
       back_thickness="0.25"
       front_thickness="1"
       stroke_width_bottom="1"
       stroke_width_top="1"
       fat_output="true"
       bottom_smth_variation="0;1"
       top_smth_variation="0;1"
       scale_tb="1"
       scale_tf="1"
       scale_bb="1"
       scale_bf="1"
       top_tgt_variation="0;1"
       bottom_tgt_variation="0;1"
       top_edge_variation="2.5;1"
       bottom_edge_variation="2.5;1"
       bender="148,935.36216 , 9.6259796,0.50507627"
       do_bend="true"
       growth="0"
       dist_rdm="75;1"
       direction="153,935.36216 , 15.129376,0.97929277"
       is_visible="true"
       id="path-effect5841"
       effect="rough_hatches" />
    <inkscape:path-effect
       effect="rough_hatches"
       id="path-effect5837"
       is_visible="true"
       direction="143,915.36216 , 15.129376,0.97929277"
       dist_rdm="75;1"
       growth="0"
       do_bend="true"
       bender="143,920.36216 , 4.3226787,0"
       bottom_edge_variation="2.5;1"
       top_edge_variation="2.5;1"
       bottom_tgt_variation="0;1"
       top_tgt_variation="0;1"
       scale_bf="1"
       scale_bb="1"
       scale_tf="1"
       scale_tb="1"
       top_smth_variation="0;1"
       bottom_smth_variation="0;1"
       fat_output="true"
       stroke_width_top="1"
       stroke_width_bottom="1"
       front_thickness="1"
       back_thickness="0.25" />
    <inkscape:path-effect
       back_thickness="0.25"
       front_thickness="1"
       stroke_width_bottom="1"
       stroke_width_top="1"
       fat_output="true"
       bottom_smth_variation="0;1"
       top_smth_variation="0;1"
       scale_tb="1"
       scale_tf="1"
       scale_bb="1"
       scale_bf="1"
       top_tgt_variation="0;1"
       bottom_tgt_variation="0;1"
       top_edge_variation="2.5;1"
       bottom_edge_variation="2.5;1"
       bender="147.11076,900.64918 , 4.3226787,0"
       do_bend="true"
       growth="0"
       dist_rdm="75;1"
       direction="147.11076,898.61805 , 15.129376,0.97929277"
       is_visible="true"
       id="path-effect5833"
       effect="rough_hatches" />
    <inkscape:path-effect
       back_thickness="0.25"
       front_thickness="1"
       stroke_width_bottom="1"
       stroke_width_top="1"
       fat_output="true"
       bottom_smth_variation="0;1"
       top_smth_variation="0;1"
       scale_tb="1"
       scale_tf="1"
       scale_bb="1"
       scale_bf="1"
       top_tgt_variation="0;1"
       bottom_tgt_variation="0;1"
       top_edge_variation="2.5;1"
       bottom_edge_variation="2.5;1"
       bender="157.85959,878.53044 , 3.8749075,0"
       do_bend="true"
       growth="0"
       dist_rdm="75;1"
       direction="157.85959,877.4139 , 10.847555,2.3616985"
       is_visible="true"
       id="path-effect5977"
       effect="rough_hatches" />
    <inkscape:path-effect
       back_thickness="0.25"
       front_thickness="1"
       stroke_width_bottom="1"
       stroke_width_top="1"
       fat_output="true"
       bottom_smth_variation="0;1"
       top_smth_variation="0;1"
       scale_tb="1"
       scale_tf="1"
       scale_bb="1"
       scale_bf="1"
       top_tgt_variation="0;1"
       bottom_tgt_variation="0;1"
       top_edge_variation="2.5;1"
       bottom_edge_variation="2.5;1"
       bender="106.88897,1013.5317 , 13.532736,0"
       do_bend="true"
       growth="0"
       dist_rdm="75;1"
       direction="112.88898,1009.5317 , 20.936011,0.8778433"
       is_visible="true"
       id="path-effect5973"
       effect="rough_hatches" />
    <inkscape:path-effect
       effect="rough_hatches"
       id="path-effect5969"
       is_visible="true"
       direction="78.908933,880.01111 , 19.270046,-1.2361718"
       dist_rdm="75;1"
       growth="0"
       do_bend="true"
       bender="78.908933,881.89936 , 8.0311086,0"
       bottom_edge_variation="2.5;1"
       top_edge_variation="2.5;1"
       bottom_tgt_variation="0;1"
       top_tgt_variation="0;1"
       scale_bf="1"
       scale_bb="1"
       scale_tf="1"
       scale_tb="1"
       top_smth_variation="0;1"
       bottom_smth_variation="0;1"
       fat_output="true"
       stroke_width_top="1"
       stroke_width_bottom="1"
       front_thickness="1"
       back_thickness="0.25" />
  </defs>
  <sodipodi:namedview
     id="base"
     pagecolor="#ffffff"
     bordercolor="#666666"
     borderopacity="1.0"
     inkscape:pageopacity="0.0"
     inkscape:pageshadow="2"
     inkscape:zoom="2.8"
     inkscape:cx="28.253723"
     inkscape:cy="104.90317"
     inkscape:document-units="px"
     inkscape:current-layer="layer1"
     showgrid="true"
     inkscape:window-width="3200"
     inkscape:window-height="1647"
     inkscape:window-x="0"
     inkscape:window-y="53"
     inkscape:window-maximized="1"
     units="px">
    <inkscape:grid
       type="xygrid"
       id="grid7425" />
  </sodipodi:namedview>
  <metadata
     id="metadata6004">
    <rdf:RDF>
      <cc:Work
         rdf:about="">
        <dc:format>image/svg+xml</dc:format>
        <dc:type
           rdf:resource="http://purl.org/dc/dcmitype/StillImage" />
        <dc:title></dc:title>
      </cc:Work>
    </rdf:RDF>
  </metadata>
  <g
     inkscape:label="Layer 1"
     inkscape:groupmode="layer"
     id="layer1"
     transform="translate(0,-832.36216)">
    <rect
       rx="10"
       y="867.36218"
       x="35.000004"
       height="150"
       width="150"
       id="rect5438"
       style="color:#000000;clip-rule:nonzero;display:inline;overflow:visible;visibility:visible;opacity:1;isolation:auto;mix-blend-mode:normal;color-interpolation:sRGB;color-interpolation-filters:linearRGB;solid-color:#000000;solid-opacity:1;fill:#000000;fill-opacity:0;fill-rule:nonzero;stroke:#e7e7e7;stroke-width:6;stroke-linecap:butt;stroke-linejoin:miter;stroke-miterlimit:4;stroke-dasharray:none;stroke-dashoffset:0;stroke-opacity:1;color-rendering:auto;image-rendering:auto;shape-rendering:auto;text-rendering:auto;enable-background:accumulate" />
    <rect
       rx="25"
       y="842.36218"
       x="10"
       height="200"
       width="200"
       id="rect5440"
       style="color:#000000;clip-rule:nonzero;display:inline;overflow:visible;visibility:visible;opacity:1;isolation:auto;mix-blend-mode:normal;color-interpolation:sRGB;color-interpolation-filters:linearRGB;solid-color:#000000;solid-opacity:1;fill:#000000;fill-opacity:0;fill-rule:nonzero;stroke:#424242;stroke-width:6;stroke-linecap:butt;stroke-linejoin:miter;stroke-miterlimit:4;stroke-dasharray:none;stroke-dashoffset:0;stroke-opacity:1;color-rendering:auto;image-rendering:auto;shape-rendering:auto;text-rendering:auto;enable-background:accumulate" />
    <rect
       style="color:#000000;clip-rule:nonzero;display:inline;overflow:visible;visibility:visible;opacity:1;isolation:auto;mix-blend-mode:normal;color-interpolation:sRGB;color-interpolation-filters:linearRGB;solid-color:#000000;solid-opacity:1;fill:#ffffff;fill-opacity:1;fill-rule:nonzero;stroke:#424242;stroke-width:6;stroke-linecap:butt;stroke-linejoin:miter;stroke-miterlimit:4;stroke-dasharray:none;stroke-dashoffset:0;stroke-opacity:1;color-rendering:auto;image-rendering:auto;shape-rendering:auto;text-rendering:auto;enable-background:accumulate"
       id="rect5963"
       width="149.04582"
       height="155.4744"
       x="35.630131"
       y="866.30328"
       rx="9.936388" />
    <rect
       rx="10.014431"
       y="895.97052"
       x="35.044804"
       height="106.38198"
       width="150.21646"
       id="rect5965"
       style="color:#000000;clip-rule:nonzero;display:inline;overflow:visible;visibility:visible;opacity:1;isolation:auto;mix-blend-mode:normal;color-interpolation:sRGB;color-interpolation-filters:linearRGB;solid-color:#000000;solid-opacity:1;fill:#ffffff;fill-opacity:1;fill-rule:nonzero;stroke:#424242;stroke-width:5;stroke-linecap:butt;stroke-linejoin:miter;stroke-miterlimit:4;stroke-dasharray:none;stroke-dashoffset:0;stroke-opacity:1;color-rendering:auto;image-rendering:auto;shape-rendering:auto;text-rendering:auto;enable-background:accumulate" />
    <path
       style="fill:none;fill-rule:evenodd;stroke:#424242;stroke-width:6;stroke-linecap:butt;stroke-linejoin:miter;stroke-opacity:1;stroke-miterlimit:4;stroke-dasharray:none"
       d="M 64.397225,898.3139 65,1002.3622"
       id="path7427"
       inkscape:connector-curvature="0" />
    <path
       style="fill:none;fill-rule:evenodd;stroke:#424242;stroke-width:6;stroke-linecap:butt;stroke-linejoin:miter;stroke-opacity:1;stroke-miterlimit:4;stroke-dasharray:none"
       d="m 65,922.36216 120,0"
       id="path7429"
       inkscape:connector-curvature="0" />
    <path
       style="color:#000000;clip-rule:nonzero;display:inline;overflow:visible;visibility:visible;opacity:1;isolation:auto;mix-blend-mode:normal;color-interpolation:sRGB;color-interpolation-filters:linearRGB;solid-color:#000000;solid-opacity:1;fill:#000fea;fill-opacity:0.05490196;fill-rule:nonzero;stroke:#424242;stroke-width:3;stroke-linecap:butt;stroke-linejoin:miter;stroke-miterlimit:4;stroke-dasharray:none;stroke-dashoffset:0;stroke-opacity:1;color-rendering:auto;image-rendering:auto;shape-rendering:auto;text-rendering:auto;enable-background:accumulate"
       d="m 178.47948,990.4391 c 0,0 -5.22178,4.87889 -7.78507,4.24475 -2.8902,-0.71501 7.07704,-11.51892 7.15907,-17.45324 0.0451,-3.26548 -5.82043,1.62379 -12.32881,7.34754 -6.52159,5.73537 -13.73075,12.32986 -15.96615,12.53287 -2.47353,0.22464 4.52254,-8.40058 11.89783,-17.33446 7.40209,-8.96636 15.08829,-18.13458 15.10559,-19.15829 0.0214,-1.26639 -8.57304,7.89894 -17.85778,17.45687 -9.27401,9.54689 -19.1987,19.43586 -20.58231,19.56153 -1.59768,0.14511 8.63955,-11.48266 18.84753,-23.83932 10.26858,-12.43001 20.29218,-25.35353 20.33692,-28.16666 0.0481,-3.02706 -11.61422,9.24582 -24.45243,22.35722 -12.83471,13.10782 -26.82998,27.00652 -29.10378,27.21318 -2.39896,0.21803 12.6932,-17.1013 26.73923,-34.51333 14.04142,-17.40629 27.01157,-34.87818 24.19782,-34.9366 -2.89669,-0.0601 -19.42647,18.21481 -36.50209,36.52695 -17.08216,18.31915 -34.68231,36.64397 -35.50411,36.71863 -0.91126,0.0828 15.42887,-17.72827 30.69529,-35.5869 15.25975,-17.85083 29.42353,-35.72447 28.17154,-35.72786 -1.3319,-0.004 -17.23573,18.40813 -34.29715,36.85722 -17.06948,18.4578 -35.272876,36.9254 -36.943005,37.0771 -1.756099,0.1595 14.523495,-17.9047 29.889625,-36.03616 15.35941,-18.12353 29.78195,-36.28912 28.45432,-36.29271 -1.40456,-0.004 -17.38377,18.39149 -34.47063,36.82148 -17.094915,18.43868 -35.2737,36.88459 -36.824446,37.02549 -1.63416,0.1484 15.025726,-18.20891 30.388026,-36.63241 15.35547,-18.41531 29.38965,-36.87081 26.78021,-36.87788 -2.70708,-0.007 -16.44743,14.89306 -30.23908,29.36172 -13.758863,14.43426 -27.648746,28.53897 -27.727301,26.76826 -0.08523,-1.92123 11.707211,-15.88839 22.500136,-29.13524 10.853365,-13.32102 20.904405,-26.14368 19.753685,-26.14679 -1.33567,-0.004 -10.65979,10.42718 -20.004762,20.79002 -9.320603,10.33582 -18.732839,20.68428 -18.74866,20.38085 -0.02596,-0.49797 9.971153,-11.97082 19.301243,-23.18289 9.365159,-11.25421 18.172049,-22.37359 17.516879,-22.37536 -0.84305,-0.002 -9.80942,10.38038 -18.927305,20.38118 -9.105136,9.9868 -18.388579,19.63317 -18.468484,18.08836 -0.09099,-1.75915 7.527731,-11.40144 14.512592,-20.4781 7.014887,-9.11568 13.495637,-17.78253 12.247647,-17.78591 -1.46643,-0.004 -8.473694,7.63226 -15.308058,15.13877 -6.82334,7.4944 -13.503923,14.89515 -13.529951,14.35965 -0.0378,-0.77778 5.638292,-7.75423 10.978963,-14.47717 5.355234,-6.74127 10.421964,-13.28386 9.787547,-13.28557 -0.866667,-0.002 -5.68905,5.32568 -10.392194,10.52699 -4.698466,5.19615 -9.289764,10.28097 -9.316211,9.76635 -0.03974,-0.77327 4.289187,-6.26502 8.383215,-11.52481 4.103378,-5.27181 8.002384,-10.3476 7.480938,-10.34901 -0.759085,-0.002 -4.985744,4.68358 -9.103423,9.13192 -4.116209,4.44675 -8.124624,8.66084 -8.171424,7.70777 -0.120881,-2.46171 10.889358,-15.56839 5.391619,-15.57792 -5.857224,-0.0102 -12.28217,7.71514 -13.698026,6.95017 -1.743473,-0.94199 3.131383,-7.08046 3.131383,-7.08046 0,0 -5.723666,6.7643 -3.75508,7.82868 2.335885,1.26296 9.187405,-6.95801 13.707275,-6.95017 5.158268,0.009 -5.547743,12.74388 -5.412351,15.57792 0.08095,1.6944 4.430704,-2.51207 8.7158,-7.1479 4.283457,-4.63406 8.491005,-9.69203 8.581458,-9.69179 0.354294,9.6e-4 -3.558792,4.98482 -7.629471,10.21077 -4.060946,5.21345 -8.311683,10.70639 -8.263792,11.66305 0.06242,1.24678 4.998213,-3.83051 9.866182,-9.21339 4.869652,-5.38474 9.671388,-11.08049 9.869229,-11.07995 0.467138,0.001 -4.615985,6.45297 -9.94021,13.14891 -5.309118,6.67694 -10.908577,13.65495 -10.863246,14.61383 0.05948,1.25822 7.090344,-6.13293 14.088544,-13.81299 7.005281,-7.68783 13.991944,-15.68759 14.788714,-15.68543 1.08054,0.003 -5.42088,8.58071 -12.407934,17.65197 -6.956431,9.03149 -14.500808,18.67548 -14.403219,20.61204 0.113441,2.2511 9.75063,-7.38181 19.036457,-17.55258 9.292866,-10.1785 18.238076,-20.91743 18.410526,-20.91696 0.4875,0.001 -8.34393,11.03285 -17.683807,22.24325 -9.303739,11.16702 -19.229109,22.64256 -19.194943,23.315 0.05086,1.00094 9.821034,-9.33603 19.321444,-19.85239 9.520056,-10.5381 18.821606,-21.32029 19.486766,-21.31848 0.98294,0.003 -9.09532,12.73904 -19.925771,26.01703 -10.768997,13.20266 -22.491668,27.17237 -22.401616,29.265 0.10556,2.45302 14.359426,-11.63494 28.309607,-26.24923 13.97546,-14.64078 27.69643,-29.88626 29.73147,-29.88075 2.44289,0.007 -11.70651,18.47043 -27.09068,36.89 -15.391001,18.42775 -31.992888,36.78527 -30.175382,36.62027 2.283506,-0.2074 20.816521,-18.65227 37.919262,-37.07395 17.09461,-18.41293 32.7357,-36.775 33.47409,-36.773 1.16108,0.003 -13.37628,18.17703 -28.76399,36.30483 -15.39443,18.1357 -31.615619,36.20022 -29.67621,36.02402 2.40271,-0.2182 20.96036,-18.68475 38.03774,-37.12556 17.06925,-18.43203 32.63509,-36.81055 33.3008,-36.80874 1.08544,0.003 -13.19273,17.88489 -28.48041,35.73998 -15.29433,17.86287 -31.5757,35.6742 -30.48131,35.57478 1.55383,-0.14116 19.5027,-18.45903 36.59032,-36.75822 17.081,-18.29211 33.27338,-36.53387 35.51335,-36.48736 2.6495,0.055 -10.43433,17.5352 -24.50362,34.9465 -14.07391,17.41701 -29.10797,34.73808 -26.52586,34.50343 2.99932,-0.27256 16.9803,-13.77285 29.65127,-26.66385 12.68366,-12.90391 24.00916,-25.12595 23.97091,-22.90655 -0.045,2.61248 -10.17069,15.54618 -20.50088,28.02933 -10.27036,12.41083 -20.53232,24.13826 -18.75278,23.97665 2.11108,-0.19172 12.02255,-9.69384 21.12602,-19.03002 9.11965,-9.35278 17.3722,-18.47449 17.36334,-17.98838 -0.0151,0.82898 -7.80098,10.00743 -15.26019,19.02541 -7.4332,8.98655 -14.44759,17.7085 -11.7918,17.46734 2.96412,-0.26916 10.16759,-6.49071 16.51393,-12.02254 6.33851,-5.52502 11.84559,-10.37198 11.80749,-7.85787 -0.0842,5.55938 -10.33636,16.67269 -7.1823,17.45324 3.65176,0.90372 8.48865,-4.99297 8.48865,-4.99297 z"
       id="rect7431"
       inkscape:path-effect="#path-effect7434"
       inkscape:original-d="m 79.50977,927.41294 93.2533,0.25254 c 8.78223,0.0238 6.48054,0.14762 6.42855,4.40825 l -0.75761,62.09213 c -0.052,4.26064 -6.9833,-0.77545 -11.22678,-0.38996 l -94.51599,8.5863 c -4.243473,0.3855 6.656345,-2.67765 6.450896,-6.93365 l -2.77792,-57.54645 c -0.205447,-4.25598 -27.457907,-10.55203 3.145554,-10.46916 z"
       inkscape:connector-curvature="0"
       sodipodi:nodetypes="sssssssss" />
    <path
       sodipodi:nodetypes="cssssssssc"
       inkscape:connector-curvature="0"
       inkscape:original-d="m 78.907004,899.62077 94.550716,0.0614 c 8.90441,0.006 6.5707,0.0359 6.51799,1.07104 l -0.76815,15.08611 c -0.0527,1.03518 -7.08023,-0.0125 -11.38298,-0.0947 l -68.420257,-1.30669 c -4.302746,-0.0822 -25.419627,4.26498 -25.60221,3.22607 -0.641238,-3.64866 -1.282475,8.06834 -1.923712,-10.94598 -0.03555,-1.05422 -24.000638,-7.11732 7.028603,-7.09719 z"
       inkscape:path-effect="#path-effect7438"
       id="path7436"
       d="m 179.35865,912.87202 c 0,0 -4.85857,3.44668 -6.93932,3.29786 -1.27468,-0.0912 0.44231,-2.0247 2.38569,-4.44379 1.96993,-2.45215 4.07045,-5.2919 4.0798,-7.33171 0.0106,-2.31447 -4.47479,0.99718 -9.65082,4.74848 -5.2221,3.78469 -11.30695,8.08273 -12.79652,8.05416 -1.67061,-0.032 2.22482,-3.7958 5.95598,-7.58891 3.72702,-3.78891 7.29093,-7.60941 6.57086,-7.61001 -0.93466,-7.9e-4 -5.19499,3.68133 -9.80701,7.32209 -4.61737,3.64498 -9.58853,7.25072 -10.43936,7.23442 -1.067,-0.0204 3.08328,-3.74845 6.65011,-7.50861 3.56299,-3.75611 6.54528,-7.54555 4.72822,-7.54701 -2.04722,-0.002 -6.0208,2.85529 -10.06494,5.68269 -4.048,2.83009 -8.16767,5.63234 -9.59772,5.60519 -1.6606,-0.0315 1.95058,-3.7186 5.04733,-7.4336 3.09355,-3.71116 5.67509,-7.45139 3.4898,-7.45249 -2.39134,-0.001 -7.71638,4.14903 -13.0208,8.24922 -5.31153,4.10568 -10.60355,8.16527 -11.02514,8.15723 -0.63212,-0.0121 3.57612,-3.63016 7.32874,-7.2803 3.74857,-3.64621 7.04375,-7.32595 6.08328,-7.32657 -1.1713,-7.7e-4 -5.90566,4.01797 -11.04374,7.9873 -5.14462,3.97439 -10.69546,7.90199 -11.70654,7.88264 -1.2242,-0.0234 2.75058,-3.6017 6.41164,-7.20826 3.6572,-3.60276 7.00246,-7.23548 5.98457,-7.23627 -1.23606,-9.5e-4 -5.79317,3.69262 -10.64847,7.34393 -4.86103,3.65562 -10.02234,7.2713 -10.94461,7.25364 -1.14183,-0.0219 2.87,-3.55913 6.3091,-7.12464 3.43561,-3.5619 6.30116,-7.15301 4.29963,-7.15461 -2.22025,-0.002 -7.47331,3.81297 -12.9525,7.6379 -5.498754,3.83859 -11.191081,7.66233 -12.713352,7.87371 -1.796063,0.2494 2.387616,-3.39224 6.397794,-7.14775 4.000928,-3.74685 7.810598,-7.59815 6.880528,-7.59895 -1.15215,-9.9e-4 -5.18975,3.11806 -9.240672,6.21389 -4.062332,3.10454 -8.117044,6.17079 -8.247688,6.19211 -0.422841,0.069 4.632353,-3.92785 9.214385,-8.01385 4.566745,-4.07237 8.632665,-8.21086 8.078475,-8.21116 -0.75089,-4.1e-4 -5.664774,4.31743 -11.216478,8.62047 -5.570968,4.31797 -11.751054,8.59537 -13.010167,8.74942 -1.49976,0.1835 3.53923,-4.04891 8.1783,-8.39646 4.626594,-4.33585 8.832106,-8.77289 7.802911,-8.77347 -1.211834,-6.9e-4 -6.537589,4.41561 -12.112068,8.73451 -5.543572,4.29495 -11.451001,8.58722 -11.471497,8.38549 -0.03405,-0.33511 4.930427,-4.26937 9.235216,-8.04075 4.341147,-3.80324 8.154768,-7.5515 7.610398,-7.55188 -0.776158,-5.3e-4 -4.357965,2.91788 -7.988776,5.76938 -3.618131,2.84153 -7.33219,5.65624 -7.346639,5.47147 -0.02814,-0.35981 3.716187,-3.54109 7.011384,-6.57275 3.320391,-3.05484 6.282531,-6.03701 5.834842,-6.03727 -0.691682,-4e-4 -4.069703,2.81602 -7.499295,5.50605 -3.422769,2.68468 -6.92259,5.26941 -6.942326,4.84568 -0.02881,-0.61858 2.401773,-2.96041 4.131469,-5.0836 1.746623,-2.14398 2.853349,-4.13302 0.718638,-4.11527 -2.411796,0.02 -5.274625,1.52914 -7.704642,2.97619 -2.430136,1.44712 -4.430784,2.83624 -4.863746,2.63602 -0.613502,-0.2837 0.516414,-1.68093 1.747796,-3.0058 1.234121,-1.32781 2.569933,-2.5852 2.569933,-2.5852 0,0 -1.578487,1.39102 -3.037473,2.86654 -1.455379,1.47188 -2.791968,3.0307 -2.057924,3.37121 0.925974,0.42954 3.336443,-0.96028 5.853681,-2.46556 2.516402,-1.50478 5.139993,-3.12836 6.777891,-3.14186 1.941785,-0.016 0.80382,1.89575 -0.917215,4.0003 -1.703439,2.08304 -4.053367,4.42426 -4.024965,5.19159 0.0375,1.01319 3.964191,-1.54822 7.620177,-4.38897 3.650644,-2.83661 7.012383,-5.95436 6.931608,-5.95441 0.255013,1.6e-4 -2.753663,2.90749 -6.059459,5.92441 -3.278943,2.99242 -6.951919,6.17459 -6.917503,6.6757 0.05137,0.7479 4.200369,-2.04593 8.046789,-5.03505 3.848818,-2.99098 7.40492,-6.19675 7.408001,-6.19675 0.351247,2.6e-4 -3.51992,3.67732 -7.854765,7.4443 -4.296366,3.73354 -9.196255,7.66872 -9.153209,8.13602 0.067,0.72738 6.43757,-3.53779 12.226493,-7.97202 5.806954,-4.44803 11.101055,-9.13446 11.539047,-9.13419 0.839993,5.2e-4 -3.525802,4.44875 -8.209159,8.78819 -4.695715,4.35089 -9.68744,8.58039 -7.948963,8.36834 2.203917,-0.26882 8.794976,-4.54143 14.366227,-8.82863 5.550906,-4.27154 10.053038,-8.52725 10.045268,-8.52726 0.36498,2.2e-4 -3.864563,4.15619 -8.489302,8.23529 -4.639781,4.09238 -9.64698,8.08667 -8.972331,7.97694 1.131945,-0.18413 5.585618,-3.24606 9.622197,-6.30899 4.023809,-3.05324 7.608156,-6.08735 7.998316,-6.087 0.74016,6.8e-4 -3.22726,3.866 -7.280356,7.61812 -4.06215,3.7605 -8.191992,7.39979 -6.149577,7.11709 2.494791,-0.34532 8.593036,-4.16447 14.081483,-7.96784 5.4676,-3.78892 10.29146,-7.53228 11.75239,-7.53103 1.812,0.002 -1.18567,3.58809 -4.65804,7.14627 -3.47589,3.5618 -7.42883,7.0964 -6.09586,7.12197 1.68486,0.0323 7.26776,-3.57987 12.16742,-7.23624 4.89393,-3.6521 9.10787,-7.34988 9.5819,-7.34948 0.82788,6.8e-4 -2.65019,3.62878 -6.34473,7.22778 -3.69844,3.60281 -7.6148,7.17839 -6.19954,7.20552 1.77335,0.034 7.74824,-3.8899 12.93434,-7.86482 5.17955,-3.96991 9.57412,-7.99258 9.98527,-7.99229 0.77087,5.5e-4 -2.6574,3.67564 -6.44383,7.31806 -3.79052,3.64634 -7.94111,7.26171 -7.11856,7.27742 1.18244,0.0226 6.89865,-4.03325 12.25279,-8.13938 5.34703,-4.10067 10.33442,-8.25468 11.9686,-8.25377 1.99711,0.001 -0.71737,3.73671 -3.84897,7.44406 -3.13484,3.71119 -6.68886,7.3955 -4.83766,7.4307 2.18921,0.0416 6.72088,-2.75783 10.79965,-5.58922 4.07493,-2.82873 7.69891,-5.69044 8.98599,-5.68934 1.6281,0.001 -1.48813,3.78612 -5.08993,7.53837 -3.60569,3.75629 -7.69934,7.48151 -6.4416,7.50564 1.61188,0.0309 7.00341,-3.57133 11.65901,-7.21706 4.65027,-3.64154 8.56789,-7.32787 8.74223,-7.32772 0.53035,4.8e-4 -3.16826,3.81621 -6.93452,7.60121 -3.77046,3.78922 -7.60943,7.55018 -5.74775,7.58594 2.23556,0.0429 8.31248,-3.88799 13.39741,-7.48694 5.06662,-3.58599 9.21163,-6.85846 9.18953,-5.30512 -0.0264,1.85515 -2.22943,4.68498 -4.27054,7.17935 -2.01312,2.46016 -3.76436,4.4834 -2.313,4.5872 3.5314,0.25257 7.74104,-3.94279 7.74104,-3.94279 z"
       style="color:#000000;clip-rule:nonzero;display:inline;overflow:visible;visibility:visible;opacity:1;isolation:auto;mix-blend-mode:normal;color-interpolation:sRGB;color-interpolation-filters:linearRGB;solid-color:#000000;solid-opacity:1;fill:#000fea;fill-opacity:0.05490196;fill-rule:nonzero;stroke:#424242;stroke-width:2.74281669;stroke-linecap:butt;stroke-linejoin:miter;stroke-miterlimit:4;stroke-dasharray:none;stroke-dashoffset:0;stroke-opacity:1;color-rendering:auto;image-rendering:auto;shape-rendering:auto;text-rendering:auto;enable-background:accumulate" />
    <path
       style="color:#000000;clip-rule:nonzero;display:inline;overflow:visible;visibility:visible;opacity:1;isolation:auto;mix-blend-mode:normal;color-interpolation:sRGB;color-interpolation-filters:linearRGB;solid-color:#000000;solid-opacity:1;fill:#000fea;fill-opacity:0.05490196;fill-rule:nonzero;stroke:#424242;stroke-width:2.80579209;stroke-linecap:butt;stroke-linejoin:miter;stroke-miterlimit:4;stroke-dasharray:none;stroke-dashoffset:0;stroke-opacity:1;color-rendering:auto;image-rendering:auto;shape-rendering:auto;text-rendering:auto;enable-background:accumulate"
       d="m 59.712493,986.08377 c 0,0 -3.769223,3.0081 -9.636221,6.62365 -7.285085,4.48945 8.775615,-11.29292 8.782859,-15.34315 0.01058,-5.91822 -17.898427,14.4147 -17.931962,10.25884 -0.01304,-1.61647 16.304971,-21.12259 16.304184,-20.74548 0.0065,-3.11521 -15.810841,14.99581 -15.834455,12.10421 -0.0033,-0.40332 16.384789,-20.08725 16.38826,-21.83087 0.009,-4.52083 -12.562745,8.8966 -12.592018,5.59792 -0.01342,-1.51237 16.498061,-21.49092 16.501185,-23.92576 0.0082,-6.42259 -18.551464,15.27336 -18.572207,12.83812 0.0039,0.45629 16.634489,-19.5792 16.634576,-19.63184 0.0067,-4.08491 -18.219837,17.47185 -18.250122,13.79423 -0.0053,-0.64131 16.717099,-20.90511 16.717306,-21.01267 0.0076,-3.94923 -17.11598,16.03648 -17.14268,12.7686 -0.0035,-0.4325 16.806817,-20.9064 16.810803,-22.91294 0.01154,-5.80898 -17.725581,14.64287 -17.755354,10.92903 -0.02284,-2.8486 17.016277,-19.80215 15.477173,-20.03227 -1.978724,-0.29584 -11.405441,9.09715 -11.407272,8.90399 -0.0068,-0.7203 12.564582,-13.25135 11.572563,-13.27146 -1.498491,-0.0304 -12.057743,10.49944 -12.408108,8.87583 -0.444799,-2.06123 6.28495,-8.77566 4.392598,-8.81402 -2.410561,-0.0489 -7.238623,4.76967 -7.284369,4.28834 -0.09193,-0.96724 2.014212,-3.2474 2.014212,-3.2474 0,0 -2.841704,2.6597 -2.719157,3.95086 0.168666,1.77706 6.268036,-4.30896 7.284924,-4.28834 1.543754,0.0313 -4.901161,6.46117 -4.393739,8.81401 0.601718,2.79008 12.304788,-8.87794 12.409258,-8.87583 0.643258,0.013 -11.584296,12.20041 -11.574281,13.27147 0.01492,1.59609 10.666961,-9.01485 11.408424,-8.90399 1.229361,0.18381 -15.504997,16.8332 -15.479765,20.03227 0.04044,5.12773 17.766082,-15.33056 17.756768,-10.92903 -0.0035,1.64488 -16.820002,22.13758 -16.813768,22.91294 0.0374,4.65089 17.149495,-15.28549 17.144332,-12.76861 4.99e-4,-0.24322 -16.728081,20.01886 -16.720025,21.01268 0.04095,5.05263 18.256591,-16.44325 18.251907,-13.79423 5.35e-4,-0.30248 -16.636201,19.74099 -16.637117,19.63184 0.03254,3.87923 18.581015,-17.89791 18.573869,-12.83812 -0.0029,2.07807 -16.520516,22.06928 -16.504281,23.92576 0.04098,4.68644 12.599333,-8.70671 12.592742,-5.59792 -0.0029,1.38592 -16.397071,21.08607 -16.391085,21.83087 0.03421,4.25628 15.839758,-13.78976 15.836021,-12.10421 0.0016,-0.71834 -16.322536,18.77215 -16.306868,20.74548 0.04405,5.54809 17.941961,-14.78005 17.933289,-10.25884 -0.0071,3.7003 -17.023194,20.41965 -8.784845,15.34315 9.681495,-5.96577 10.352446,-7.32711 10.352446,-7.32711 z"
       id="path7440"
       inkscape:path-effect="#path-effect7442"
       inkscape:original-d="m 42.68974,902.29877 16.043613,0.32522 c 1.510924,0.031 1.114933,0.19001 1.10599,5.67448 L 59.709,988.22594 c -0.0089,5.48445 -1.20143,-0.99822 -1.931493,-0.50198 l -16.260849,11.05261 c -0.730062,0.49623 1.334406,0.66027 1.288404,-4.81815 l -0.656494,-78.18334 c -0.046,-5.47837 -4.72395,-13.58298 0.541172,-13.47631 z"
       inkscape:connector-curvature="0"
       sodipodi:nodetypes="sssssssss" />
  </g>
</svg>
