<?xml version="1.0" encoding="UTF-8" standalone="no"?>
<!-- Created with Inkscape (http://www.inkscape.org/) -->

<svg
   xmlns:dc="http://purl.org/dc/elements/1.1/"
   xmlns:cc="http://creativecommons.org/ns#"
   xmlns:rdf="http://www.w3.org/1999/02/22-rdf-syntax-ns#"
   xmlns:svg="http://www.w3.org/2000/svg"
   xmlns="http://www.w3.org/2000/svg"
   xmlns:sodipodi="http://sodipodi.sourceforge.net/DTD/sodipodi-0.dtd"
   xmlns:inkscape="http://www.inkscape.org/namespaces/inkscape"
   width="220"
   height="220"
   viewBox="0 0 220 220"
   id="svg5999"
   version="1.1"
   inkscape:version="0.91 r13725"
   sodipodi:docname="icon-themes.svg"
   inkscape:export-filename="/home/mh/rect4140-3.png"
   inkscape:export-xdpi="20.970873"
   inkscape:export-ydpi="20.970873">
  <defs
     id="defs6001">
    <inkscape:path-effect
       back_thickness="0.25"
       front_thickness="1"
       stroke_width_bottom="1"
       stroke_width_top="1"
       fat_output="true"
       bottom_smth_variation="0;1"
       top_smth_variation="0;1"
       scale_tb="1"
       scale_tf="1"
       scale_bb="1"
       scale_bf="1"
       top_tgt_variation="0;1"
       bottom_tgt_variation="0;1"
       top_edge_variation="8.000002;1"
       bottom_edge_variation="8.000002;1"
       bender="122.36386,955.41367 , 3.9308116,0"
       do_bend="true"
       growth="0"
       dist_rdm="75;1"
       direction="126.29467,959.59437 , 13.658071,12.880683"
       is_visible="true"
       id="path-effect4891"
       effect="rough_hatches" />
    <inkscape:path-effect
       effect="rough_hatches"
       id="path-effect4888"
       is_visible="true"
       direction="138.08711,913.60635 , 7.9394479,9.9261001"
       dist_rdm="75;1"
       growth="0"
       do_bend="true"
       bender="122.38754,910.05272 , 3.7047277,0.29862356"
       bottom_edge_variation="8.000002;1"
       top_edge_variation="8.000002;1"
       bottom_tgt_variation="0;1"
       top_tgt_variation="0;1"
       scale_bf="1"
       scale_bb="1"
       scale_tf="1"
       scale_tb="1"
       top_smth_variation="0;1"
       bottom_smth_variation="0;1"
       fat_output="true"
       stroke_width_top="1"
       stroke_width_bottom="1"
       front_thickness="1"
       back_thickness="0.25" />
    <inkscape:path-effect
       back_thickness="0.25"
       front_thickness="1"
       stroke_width_bottom="1"
       stroke_width_top="1"
       fat_output="true"
       bottom_smth_variation="0;1"
       top_smth_variation="0;1"
       scale_tb="1"
       scale_tf="1"
       scale_bb="1"
       scale_bf="1"
       top_tgt_variation="0;1"
       bottom_tgt_variation="0;1"
       top_edge_variation="8.000002;1"
       bottom_edge_variation="8.000002;1"
       bender="59.470874,942.87145 , 0.67627006,0"
       do_bend="true"
       growth="0"
       dist_rdm="75;1"
       direction="71.263309,955.41364 , 9.1734358,9.8576106"
       is_visible="true"
       id="path-effect4885"
       effect="rough_hatches" />
    <inkscape:path-effect
       back_thickness="0.25"
       front_thickness="1"
       stroke_width_bottom="1"
       stroke_width_top="1"
       fat_output="true"
       bottom_smth_variation="0;1"
       top_smth_variation="0;1"
       scale_tb="1"
       scale_tf="1"
       scale_bb="1"
       scale_bf="1"
       top_tgt_variation="0;1"
       bottom_tgt_variation="0;1"
       top_edge_variation="8.000002;1"
       bottom_edge_variation="8.000002;1"
       bender="144.36386,975.41367 , 3.9308116,0"
       do_bend="true"
       growth="0"
       dist_rdm="75;1"
       direction="148.29467,979.59437 , 13.658071,12.880683"
       is_visible="true"
       id="path-effect4877"
       effect="rough_hatches" />
    <inkscape:path-effect
       effect="rough_hatches"
       id="path-effect4874"
       is_visible="true"
       direction="160.08711,933.60635 , 7.9394479,9.9261001"
       dist_rdm="75;1"
       growth="0"
       do_bend="true"
       bender="144.38754,930.05272 , 3.7047277,0.29862356"
       bottom_edge_variation="8.000002;1"
       top_edge_variation="8.000002;1"
       bottom_tgt_variation="0;1"
       top_tgt_variation="0;1"
       scale_bf="1"
       scale_bb="1"
       scale_tf="1"
       scale_tb="1"
       top_smth_variation="0;1"
       bottom_smth_variation="0;1"
       fat_output="true"
       stroke_width_top="1"
       stroke_width_bottom="1"
       front_thickness="1"
       back_thickness="0.25" />
    <inkscape:path-effect
       back_thickness="0.25"
       front_thickness="1"
       stroke_width_bottom="1"
       stroke_width_top="1"
       fat_output="true"
       bottom_smth_variation="0;1"
       top_smth_variation="0;1"
       scale_tb="1"
       scale_tf="1"
       scale_bb="1"
       scale_bf="1"
       top_tgt_variation="0;1"
       bottom_tgt_variation="0;1"
       top_edge_variation="8.000002;1"
       bottom_edge_variation="8.000002;1"
       bender="81.470874,962.87145 , 0.67627006,0"
       do_bend="true"
       growth="0"
       dist_rdm="75;1"
       direction="93.263309,975.41364 , 9.1734358,9.8576106"
       is_visible="true"
       id="path-effect4871"
       effect="rough_hatches" />
    <inkscape:path-effect
       effect="rough_hatches"
       id="path-effect7442"
       is_visible="true"
       direction="49.263309,941.41364 , 9.1734358,9.8576106"
       dist_rdm="75;1"
       growth="0"
       do_bend="true"
       bender="37.470874,928.87145 , 0.67627006,0"
       bottom_edge_variation="8.000002;1"
       top_edge_variation="8.000002;1"
       bottom_tgt_variation="0;1"
       top_tgt_variation="0;1"
       scale_bf="1"
       scale_bb="1"
       scale_tf="1"
       scale_tb="1"
       top_smth_variation="0;1"
       bottom_smth_variation="0;1"
       fat_output="true"
       stroke_width_top="1"
       stroke_width_bottom="1"
       front_thickness="1"
       back_thickness="0.25" />
    <inkscape:path-effect
       back_thickness="0.25"
       front_thickness="1"
       stroke_width_bottom="1"
       stroke_width_top="1"
       fat_output="true"
       bottom_smth_variation="0;1"
       top_smth_variation="0;1"
       scale_tb="1"
       scale_tf="1"
       scale_bb="1"
       scale_bf="1"
       top_tgt_variation="0;1"
       bottom_tgt_variation="0;1"
       top_edge_variation="8.000002;1"
       bottom_edge_variation="8.000002;1"
       bender="100.38754,896.05272 , 3.7047277,0.29862356"
       do_bend="true"
       growth="0"
       dist_rdm="75;1"
       direction="116.08711,899.60635 , 7.9394479,9.9261001"
       is_visible="true"
       id="path-effect7438"
       effect="rough_hatches" />
    <inkscape:path-effect
       effect="rough_hatches"
       id="path-effect7434"
       is_visible="true"
       direction="104.29467,945.59437 , 13.658071,12.880683"
       dist_rdm="75;1"
       growth="0"
       do_bend="true"
       bender="100.36386,941.41367 , 3.9308116,0"
       bottom_edge_variation="8.000002;1"
       top_edge_variation="8.000002;1"
       bottom_tgt_variation="0;1"
       top_tgt_variation="0;1"
       scale_bf="1"
       scale_bb="1"
       scale_tf="1"
       scale_tb="1"
       top_smth_variation="0;1"
       bottom_smth_variation="0;1"
       fat_output="true"
       stroke_width_top="1"
       stroke_width_bottom="1"
       front_thickness="1"
       back_thickness="0.25" />
    <inkscape:path-effect
       back_thickness="0.25"
       front_thickness="1"
       stroke_width_bottom="1"
       stroke_width_top="1"
       fat_output="true"
       bottom_smth_variation="0;1"
       top_smth_variation="0;1"
       scale_tb="1"
       scale_tf="1"
       scale_bb="1"
       scale_bf="1"
       top_tgt_variation="0;1"
       bottom_tgt_variation="0;1"
       top_edge_variation="2.5;1"
       bottom_edge_variation="2.5;1"
       bender="54.197031,965.98786 , 4.3226787,0"
       do_bend="true"
       growth="0"
       dist_rdm="75;1"
       direction="54.197031,963.95676 , 15.129376,0.97929277"
       is_visible="true"
       id="path-effect5674"
       effect="rough_hatches" />
    <inkscape:path-effect
       effect="rough_hatches"
       id="path-effect5670"
       is_visible="true"
       direction="54.197031,937.95676 , 15.129376,0.97929277"
       dist_rdm="75;1"
       growth="0"
       do_bend="true"
       bender="54.197031,939.98786 , 4.3226787,0"
       bottom_edge_variation="2.5;1"
       top_edge_variation="2.5;1"
       bottom_tgt_variation="0;1"
       top_tgt_variation="0;1"
       scale_bf="1"
       scale_bb="1"
       scale_tf="1"
       scale_tb="1"
       top_smth_variation="0;1"
       bottom_smth_variation="0;1"
       fat_output="true"
       stroke_width_top="1"
       stroke_width_bottom="1"
       front_thickness="1"
       back_thickness="0.25" />
    <inkscape:path-effect
       back_thickness="0.25"
       front_thickness="1"
       stroke_width_bottom="1"
       stroke_width_top="1"
       fat_output="true"
       bottom_smth_variation="0;1"
       top_smth_variation="0;1"
       scale_tb="1"
       scale_tf="1"
       scale_bb="1"
       scale_bf="1"
       top_tgt_variation="0;1"
       bottom_tgt_variation="0;1"
       top_edge_variation="2.5;1"
       bottom_edge_variation="2.5;1"
       bender="54.197031,907.98786 , 4.3226787,0"
       do_bend="true"
       growth="0"
       dist_rdm="75;1"
       direction="54.197031,905.95676 , 15.129376,0.97929277"
       is_visible="true"
       id="path-effect5666"
       effect="rough_hatches" />
    <inkscape:path-effect
       effect="rough_hatches"
       id="path-effect5567"
       is_visible="true"
       direction="54.197031,875.95676 , 15.129376,0.97929277"
       dist_rdm="75;1"
       growth="0"
       do_bend="true"
       bender="54.197031,877.98786 , 4.3226787,0"
       bottom_edge_variation="2.5;1"
       top_edge_variation="2.5;1"
       bottom_tgt_variation="0;1"
       top_tgt_variation="0;1"
       scale_bf="1"
       scale_bb="1"
       scale_tf="1"
       scale_tb="1"
       top_smth_variation="0;1"
       bottom_smth_variation="0;1"
       fat_output="true"
       stroke_width_top="1"
       stroke_width_bottom="1"
       front_thickness="1"
       back_thickness="0.25" />
    <inkscape:path-effect
       effect="rough_hatches"
       id="path-effect5845"
       is_visible="true"
       direction="133,950.36216 , 15.129376,0.97929277"
       dist_rdm="75;1"
       growth="0"
       do_bend="true"
       bender="147.11076,954.64918 , 4.3226787,0"
       bottom_edge_variation="2.5;1"
       top_edge_variation="2.5;1"
       bottom_tgt_variation="0;1"
       top_tgt_variation="0;1"
       scale_bf="1"
       scale_bb="1"
       scale_tf="1"
       scale_tb="1"
       top_smth_variation="0;1"
       bottom_smth_variation="0;1"
       fat_output="true"
       stroke_width_top="1"
       stroke_width_bottom="1"
       front_thickness="1"
       back_thickness="0.25" />
    <inkscape:path-effect
       back_thickness="0.25"
       front_thickness="1"
       stroke_width_bottom="1"
       stroke_width_top="1"
       fat_output="true"
       bottom_smth_variation="0;1"
       top_smth_variation="0;1"
       scale_tb="1"
       scale_tf="1"
       scale_bb="1"
       scale_bf="1"
       top_tgt_variation="0;1"
       bottom_tgt_variation="0;1"
       top_edge_variation="2.5;1"
       bottom_edge_variation="2.5;1"
       bender="148,935.36216 , 9.6259796,0.50507627"
       do_bend="true"
       growth="0"
       dist_rdm="75;1"
       direction="153,935.36216 , 15.129376,0.97929277"
       is_visible="true"
       id="path-effect5841"
       effect="rough_hatches" />
    <inkscape:path-effect
       effect="rough_hatches"
       id="path-effect5837"
       is_visible="true"
       direction="143,915.36216 , 15.129376,0.97929277"
       dist_rdm="75;1"
       growth="0"
       do_bend="true"
       bender="143,920.36216 , 4.3226787,0"
       bottom_edge_variation="2.5;1"
       top_edge_variation="2.5;1"
       bottom_tgt_variation="0;1"
       top_tgt_variation="0;1"
       scale_bf="1"
       scale_bb="1"
       scale_tf="1"
       scale_tb="1"
       top_smth_variation="0;1"
       bottom_smth_variation="0;1"
       fat_output="true"
       stroke_width_top="1"
       stroke_width_bottom="1"
       front_thickness="1"
       back_thickness="0.25" />
    <inkscape:path-effect
       back_thickness="0.25"
       front_thickness="1"
       stroke_width_bottom="1"
       stroke_width_top="1"
       fat_output="true"
       bottom_smth_variation="0;1"
       top_smth_variation="0;1"
       scale_tb="1"
       scale_tf="1"
       scale_bb="1"
       scale_bf="1"
       top_tgt_variation="0;1"
       bottom_tgt_variation="0;1"
       top_edge_variation="2.5;1"
       bottom_edge_variation="2.5;1"
       bender="147.11076,900.64918 , 4.3226787,0"
       do_bend="true"
       growth="0"
       dist_rdm="75;1"
       direction="147.11076,898.61805 , 15.129376,0.97929277"
       is_visible="true"
       id="path-effect5833"
       effect="rough_hatches" />
    <inkscape:path-effect
       back_thickness="0.25"
       front_thickness="1"
       stroke_width_bottom="1"
       stroke_width_top="1"
       fat_output="true"
       bottom_smth_variation="0;1"
       top_smth_variation="0;1"
       scale_tb="1"
       scale_tf="1"
       scale_bb="1"
       scale_bf="1"
       top_tgt_variation="0;1"
       bottom_tgt_variation="0;1"
       top_edge_variation="2.5;1"
       bottom_edge_variation="2.5;1"
       bender="157.85959,878.53044 , 3.8749075,0"
       do_bend="true"
       growth="0"
       dist_rdm="75;1"
       direction="157.85959,877.4139 , 10.847555,2.3616985"
       is_visible="true"
       id="path-effect5977"
       effect="rough_hatches" />
    <inkscape:path-effect
       back_thickness="0.25"
       front_thickness="1"
       stroke_width_bottom="1"
       stroke_width_top="1"
       fat_output="true"
       bottom_smth_variation="0;1"
       top_smth_variation="0;1"
       scale_tb="1"
       scale_tf="1"
       scale_bb="1"
       scale_bf="1"
       top_tgt_variation="0;1"
       bottom_tgt_variation="0;1"
       top_edge_variation="2.5;1"
       bottom_edge_variation="2.5;1"
       bender="106.88897,1013.5317 , 13.532736,0"
       do_bend="true"
       growth="0"
       dist_rdm="75;1"
       direction="112.88898,1009.5317 , 20.936011,0.8778433"
       is_visible="true"
       id="path-effect5973"
       effect="rough_hatches" />
    <inkscape:path-effect
       effect="rough_hatches"
       id="path-effect5969"
       is_visible="true"
       direction="78.908933,880.01111 , 19.270046,-1.2361718"
       dist_rdm="75;1"
       growth="0"
       do_bend="true"
       bender="78.908933,881.89936 , 8.0311086,0"
       bottom_edge_variation="2.5;1"
       top_edge_variation="2.5;1"
       bottom_tgt_variation="0;1"
       top_tgt_variation="0;1"
       scale_bf="1"
       scale_bb="1"
       scale_tf="1"
       scale_tb="1"
       top_smth_variation="0;1"
       bottom_smth_variation="0;1"
       fat_output="true"
       stroke_width_top="1"
       stroke_width_bottom="1"
       front_thickness="1"
       back_thickness="0.25" />
  </defs>
  <sodipodi:namedview
     id="base"
     pagecolor="#ffffff"
     bordercolor="#666666"
     borderopacity="1.0"
     inkscape:pageopacity="0.0"
     inkscape:pageshadow="2"
     inkscape:zoom="5.6"
     inkscape:cx="-10.996606"
     inkscape:cy="113.14634"
     inkscape:document-units="px"
     inkscape:current-layer="layer1"
     showgrid="true"
     inkscape:window-width="3200"
     inkscape:window-height="1647"
     inkscape:window-x="0"
     inkscape:window-y="53"
     inkscape:window-maximized="1"
     units="px">
    <inkscape:grid
       type="xygrid"
       id="grid7425" />
  </sodipodi:namedview>
  <metadata
     id="metadata6004">
    <rdf:RDF>
      <cc:Work
         rdf:about="">
        <dc:format>image/svg+xml</dc:format>
        <dc:type
           rdf:resource="http://purl.org/dc/dcmitype/StillImage" />
        <dc:title></dc:title>
      </cc:Work>
    </rdf:RDF>
  </metadata>
  <g
     inkscape:label="Layer 1"
     inkscape:groupmode="layer"
     id="layer1"
     transform="translate(0,-832.36216)">
    <rect
       rx="25"
       y="842.36218"
       x="10"
       height="200"
       width="200"
       id="rect5440"
       style="color:#000000;clip-rule:nonzero;display:inline;overflow:visible;visibility:visible;opacity:1;isolation:auto;mix-blend-mode:normal;color-interpolation:sRGB;color-interpolation-filters:linearRGB;solid-color:#000000;solid-opacity:1;fill:#000000;fill-opacity:0;fill-rule:nonzero;stroke:#424242;stroke-width:6;stroke-linecap:butt;stroke-linejoin:miter;stroke-miterlimit:4;stroke-dasharray:none;stroke-dashoffset:0;stroke-opacity:1;color-rendering:auto;image-rendering:auto;shape-rendering:auto;text-rendering:auto;enable-background:accumulate" />
    <rect
       rx="7.8616233"
       y="861.9798"
       x="29.609253"
       height="125.42189"
       width="117.92435"
       id="rect5438"
       style="color:#000000;clip-rule:nonzero;display:inline;overflow:visible;visibility:visible;opacity:1;isolation:auto;mix-blend-mode:normal;color-interpolation:sRGB;color-interpolation-filters:linearRGB;solid-color:#000000;solid-opacity:1;fill:#969696;fill-opacity:1;fill-rule:nonzero;stroke:#e7e7e7;stroke-width:4.86461449;stroke-linecap:butt;stroke-linejoin:miter;stroke-miterlimit:4;stroke-dasharray:none;stroke-dashoffset:0;stroke-opacity:1;color-rendering:auto;image-rendering:auto;shape-rendering:auto;text-rendering:auto;enable-background:accumulate" />
    <rect
       style="color:#000000;clip-rule:nonzero;display:inline;overflow:visible;visibility:visible;opacity:1;isolation:auto;mix-blend-mode:normal;color-interpolation:sRGB;color-interpolation-filters:linearRGB;solid-color:#000000;solid-opacity:1;fill:#969696;fill-opacity:1;fill-rule:nonzero;stroke:#424242;stroke-width:4.86461449;stroke-linecap:butt;stroke-linejoin:miter;stroke-miterlimit:4;stroke-dasharray:none;stroke-dashoffset:0;stroke-opacity:1;color-rendering:auto;image-rendering:auto;shape-rendering:auto;text-rendering:auto;enable-background:accumulate"
       id="rect5963"
       width="117.17421"
       height="129.99928"
       x="30.104635"
       y="861.09442"
       rx="7.811614" />
    <rect
       rx="7.8729682"
       y="885.90051"
       x="29.644474"
       height="88.950859"
       width="118.09452"
       id="rect5965"
       style="color:#000000;clip-rule:nonzero;display:inline;overflow:visible;visibility:visible;opacity:1;isolation:auto;mix-blend-mode:normal;color-interpolation:sRGB;color-interpolation-filters:linearRGB;solid-color:#000000;solid-opacity:1;fill:#969696;fill-opacity:1;fill-rule:nonzero;stroke:#424242;stroke-width:4.05384541;stroke-linecap:butt;stroke-linejoin:miter;stroke-miterlimit:4;stroke-dasharray:none;stroke-dashoffset:0;stroke-opacity:1;color-rendering:auto;image-rendering:auto;shape-rendering:auto;text-rendering:auto;enable-background:accumulate" />
    <path
       style="fill:#969696;fill-opacity:1;fill-rule:evenodd;stroke:#424242;stroke-width:4.86461449;stroke-linecap:butt;stroke-linejoin:miter;stroke-miterlimit:4;stroke-dasharray:none;stroke-opacity:1"
       d="m 52.720241,887.85995 0.473879,86.99956"
       id="path7427"
       inkscape:connector-curvature="0" />
    <path
       style="fill:#969696;fill-opacity:1;fill-rule:evenodd;stroke:#424242;stroke-width:4.86461449;stroke-linecap:butt;stroke-linejoin:miter;stroke-miterlimit:4;stroke-dasharray:none;stroke-opacity:1"
       d="m 53.19412,907.9678 94.33948,0"
       id="path7429"
       inkscape:connector-curvature="0" />
    <path
       style="color:#000000;clip-rule:nonzero;display:inline;overflow:visible;visibility:visible;opacity:1;isolation:auto;mix-blend-mode:normal;color-interpolation:sRGB;color-interpolation-filters:linearRGB;solid-color:#000000;solid-opacity:1;fill:#969696;fill-opacity:1;fill-rule:nonzero;stroke:#424242;stroke-width:2.43230724;stroke-linecap:butt;stroke-linejoin:miter;stroke-miterlimit:4;stroke-dasharray:none;stroke-dashoffset:0;stroke-opacity:1;color-rendering:auto;image-rendering:auto;shape-rendering:auto;text-rendering:auto;enable-background:accumulate"
       d="m 142.39579,965.90408 c 0,0 -3.83263,3.18135 -5.77678,2.63167 -2.30662,-0.65217 5.00469,-8.11266 5.06648,-12.77766 0.0346,-2.61422 -4.74908,1.06766 -10.03688,5.42436 -5.29751,4.3647 -11.13094,9.42085 -12.93588,9.59518 -2.06647,0.19959 3.47994,-6.30521 9.39033,-13.0594 5.92775,-6.77404 12.15705,-13.73158 12.17043,-14.53672 0.0175,-1.05484 -7.0019,5.8839 -14.51484,13.13739 -7.507,7.24776 -15.48364,14.78069 -16.56939,14.88557 -1.33133,0.1286 6.901,-8.73127 15.18761,-18.16047 8.32633,-9.47439 16.56419,-19.3719 16.59791,-21.54455 0.0373,-2.40657 -9.46566,6.8006 -19.80953,16.66674 -10.34378,9.86607 -21.522403,20.36506 -23.350087,20.54175 -2.016803,0.19496 10.415767,-13.29294 22.349757,-27.11766 11.95763,-13.85212 23.30706,-27.92901 21.89576,-29.04898 -1.49358,-1.18526 -15.88127,13.674 -30.96176,28.91635 -15.066056,15.22776 -30.74836,30.74614 -31.369766,30.80619 -0.752109,0.0727 13.766848,-14.87014 27.430406,-29.85402 13.6575,-14.97725 26.43948,-29.97451 25.38559,-29.97755 -1.17572,-0.003 -15.53503,15.51149 -30.78931,31.05803 -15.261634,15.55403 -31.396452,31.11606 -32.725519,31.24446 -1.462957,0.14132 13.037804,-15.02795 26.818136,-30.25589 13.774223,-15.22119 26.806873,-30.47961 25.690063,-30.48283 -1.23249,-0.004 -15.43213,15.22475 -30.072726,30.10911 -14.578228,14.82096 -29.767175,29.48692 -29.406288,28.04167 0.400799,-1.60509 14.280289,-16.29775 26.500872,-30.19957 12.326482,-14.02228 23.328022,-27.61433 21.168962,-27.62055 -2.32562,-0.007 -13.830224,11.59847 -25.250723,22.87704 -11.397533,11.2559 -22.767396,22.2525 -22.822372,20.91529 -0.06254,-1.52122 9.57906,-12.35646 18.49591,-22.65684 8.958261,-10.34822 17.326871,-20.30465 16.35949,-20.30744 -1.18182,-0.003 -8.735233,7.81915 -16.21737,15.60443 -7.466224,7.76873 -14.907727,15.54956 -14.916144,15.37991 -0.01908,-0.38466 8.14454,-9.24962 15.83024,-17.93187 7.709427,-8.70906 15.014413,-17.31547 14.458169,-17.31708 -0.771751,-0.002 -8.210048,7.99 -15.697842,15.69704 -7.478956,7.69795 -15.026478,15.13763 -15.083149,13.98485 -0.06786,-1.38038 6.135781,-8.79811 11.863389,-15.79131 5.74784,-7.01791 11.086835,-13.68521 10.035597,-13.68824 -1.28736,-0.004 -7.123965,5.88837 -12.768265,11.6953 -5.636528,5.79893 -11.102358,11.53651 -11.118493,11.18384 -0.02741,-0.59916 4.571129,-5.91853 8.918802,-11.05167 4.357286,-5.1445 8.494659,-10.1367 7.952598,-10.13826 -0.787908,-0.002 -4.647144,3.9185 -8.368887,7.7568 -3.718708,3.83517 -7.307955,7.59719 -7.324322,7.26177 -0.02895,-0.59335 3.453882,-4.74584 6.757939,-8.72656 3.310132,-3.98804 6.461312,-7.82621 6.012506,-7.82751 -0.697947,-0.002 -4.172633,3.54636 -7.525349,6.92581 -3.351598,3.37833 -6.58262,6.59105 -6.614052,5.91213 -0.08787,-1.89802 8.616939,-11.60062 4.034717,-11.6071 -5.006429,-0.007 -10.538915,6.20209 -11.575059,5.59735 -1.362585,-0.79526 2.792473,-5.70308 2.792473,-5.70308 0,0 -5.026001,5.50534 -3.442052,6.43059 1.938387,1.13229 7.952233,-5.60249 11.583203,-5.59735 4.234249,0.006 -4.152926,9.34754 -4.051604,11.6071 0.06275,1.39935 3.643062,-1.80706 7.167223,-5.36833 3.522644,-3.55974 6.980006,-7.46964 6.990857,-7.46961 0.277042,8e-4 -2.886215,3.74952 -6.161141,7.69296 -3.26854,3.93575 -6.669933,8.08923 -6.633391,8.86111 0.04964,1.04846 3.990517,-2.70743 7.88193,-6.72358 3.891964,-4.01672 7.732435,-8.29528 7.833132,-8.29499 0.370187,0.001 -3.781213,4.90468 -8.104721,10.00499 -4.313449,5.08845 -8.831876,10.40911 -8.797511,11.18494 0.04686,1.05793 5.869728,-4.67168 11.684039,-10.6508 5.818696,-5.98363 11.636638,-12.23007 12.236008,-12.22834 0.879211,0.003 -4.477586,6.58274 -10.194418,13.55721 -5.696111,6.9492 -11.821596,14.36833 -11.747461,15.92234 0.08799,1.84453 7.995349,-5.58404 15.656882,-13.46075 7.665463,-7.88076 15.084342,-16.22138 15.167297,-16.22114 0.38403,0.001 -6.942132,8.52143 -14.62276,17.18757 -7.655996,8.63834 -15.743707,17.50552 -15.716936,18.06138 0.04114,0.85421 7.845562,-6.9173 15.493116,-14.86188 7.659494,-7.95699 15.192304,-16.12388 15.685479,-16.12246 0.795063,0.002 -7.596931,9.87395 -16.528379,20.1799 -8.889186,10.25718 -18.456549,21.09454 -18.389534,22.78438 0.07967,2.00893 11.818346,-8.97369 23.408073,-20.40514 11.606145,-11.44765 23.093196,-23.3919 24.728746,-23.38719 1.98594,0.006 -9.01663,13.48332 -21.304951,27.4485 -12.179942,13.842 -25.989067,28.54031 -26.449016,30.37161 -0.588923,2.34482 14.974289,-12.28798 29.826706,-27.35344 14.899081,-15.1128 29.198001,-30.79889 29.736921,-30.79733 0.94557,0.003 -12.20361,15.27034 -26.004848,30.49625 -13.807345,15.23264 -28.245434,30.40219 -26.59173,30.24246 2.091408,-0.20201 18.587736,-15.76289 33.852578,-31.29813 15.25741,-15.52766 29.2621,-31.00576 29.7529,-31.00435 0.88265,0.003 -12.01544,15.009 -25.69958,29.99096 -13.690187,14.98858 -28.146127,29.93169 -27.20347,29.84061 1.380179,-0.13335 17.270078,-15.49169 32.27095,-30.6206 15.01695,-15.14514 29.06141,-29.9648 30.14747,-29.10194 1.30837,1.03949 -10.15262,15.12604 -22.15211,29.00257 -11.97605,13.84943 -24.381851,27.37736 -22.175127,27.16407 2.583854,-0.24975 13.750307,-10.36927 23.919047,-20.02635 10.17624,-9.66422 19.32253,-18.8214 19.2947,-17.18215 -0.0336,1.98178 -8.37554,11.88988 -16.76284,21.41571 -8.34819,9.48142 -16.60126,18.4362 -15.08044,18.28932 1.84358,-0.17806 9.80859,-7.34039 17.13502,-14.38388 7.33684,-7.05348 13.99555,-13.94757 13.98998,-13.63909 -0.0112,0.61882 -6.34242,7.587 -12.3273,14.4113 -5.96817,6.80524 -11.52991,13.40272 -9.27361,13.18483 2.56374,-0.24759 8.39199,-4.94404 13.50525,-9.11012 5.10803,-4.16183 9.51715,-7.79989 9.48936,-5.90942 -0.0633,4.30352 -7.65408,12.051 -5.08507,12.77766 3.01999,0.85421 6.49978,-3.35918 6.49978,-3.35918 z"
       id="rect7431"
       inkscape:path-effect="#path-effect7434"
       inkscape:original-d="m 64.601155,912.19099 73.312235,0.21116 c 6.90425,0.0199 5.09475,0.12344 5.05388,3.68594 l -0.5956,51.91809 c -0.0409,3.56251 -5.49001,-0.64839 -8.82608,-0.32607 l -74.304907,7.1794 c -3.336058,0.32234 5.232968,-2.2389 5.071452,-5.79754 l -2.183896,-48.11723 c -0.161515,-3.55862 -21.586372,-8.82304 2.472916,-8.75375 z"
       inkscape:connector-curvature="0"
       sodipodi:nodetypes="sssssssss" />
    <path
       sodipodi:nodetypes="cssssssssc"
       inkscape:connector-curvature="0"
       inkscape:original-d="m 64.127283,888.95268 74.332207,0.0513 c 7.00032,0.005 5.16564,0.03 5.1242,0.89555 l -0.60389,12.61419 c -0.0414,0.86556 -5.56621,-0.0104 -8.94887,-0.0792 l -53.789427,-1.09259 c -3.382657,-0.0687 -19.983953,3.56615 -20.127493,2.69747 -0.504117,-3.05082 -1.008234,6.74631 -1.51235,-9.15244 -0.02795,-0.88148 -18.868398,-5.95112 5.525623,-5.93429 z"
       inkscape:path-effect="#path-effect7438"
       id="path7436"
       d="m 143.02124,901.64804 c 0,0 -2.51664,1.33389 -4.10175,1.23084 -2.02992,-0.13197 3.43957,-4.46681 3.63646,-7.70296 0.11641,-1.91345 -3.44742,0.33939 -7.47713,2.97034 -4.06772,2.65577 -8.73765,5.74635 -9.90694,5.72249 -1.39307,-0.0284 2.07432,-3.15543 5.41568,-6.30686 3.33763,-3.14791 6.55038,-6.32212 5.92497,-6.32297 -0.86484,-0.001 -4.68547,3.03977 -8.74195,6.04644 -4.06123,3.01018 -8.36007,5.98794 -9.00364,5.97482 -0.88373,-0.018 2.79277,-3.11336 5.98893,-6.2356 3.1927,-3.11886 5.90749,-6.26555 4.35387,-6.26691 -1.80731,-0.002 -5.2207,2.24772 -8.62465,4.47407 -3.4071,2.22841 -6.80567,4.43525 -7.93686,4.41243 -1.38402,-0.0279 1.81437,-3.08784 4.59067,-6.17085 2.77342,-3.0798 5.12688,-6.18359 3.26284,-6.18454 -2.09501,-0.001 -6.89609,3.5002 -11.62793,6.95819 -4.7384,3.46277 -9.408783,6.88589 -9.69103,6.88017 -0.516765,-0.0105 3.18683,-3.00792 6.51863,-6.03213 3.32818,-3.02093 6.28656,-6.06984 5.45769,-6.07041 -1.06443,-7.4e-4 -5.35519,3.37544 -9.93317,6.70915 -4.583982,3.33809 -9.457473,6.63611 -10.236926,6.62024 -1.016472,-0.0207 2.491223,-2.98194 5.746834,-5.96658 3.252157,-2.98148 6.253842,-5.98774 5.376092,-5.98848 -1.12028,-9.4e-4 -5.207304,3.06444 -9.487394,6.09431 -4.285229,3.03351 -8.76537,6.03359 -9.469414,6.01924 -0.94704,-0.0193 2.588243,-2.94366 5.65234,-5.89139 3.060986,-2.94474 5.653112,-5.91357 3.942896,-5.91507 -1.950127,-0.002 -6.84191,3.34077 -11.919481,6.69677 -5.099908,3.37076 -10.344538,6.72566 -11.632872,6.94187 -1.608174,0.26989 2.375714,-2.91194 6.216367,-6.21133 3.830614,-3.29077 7.498213,-6.68925 6.689975,-6.69002 -1.047797,-10e-4 -4.784022,2.68093 -8.48972,5.33775 -3.715448,2.6638 -7.383736,5.29173 -7.39872,5.29391 -0.326472,0.0475 4.450243,-3.47632 8.794271,-7.07676 4.32973,-3.58858 8.202978,-7.23506 7.713799,-7.23533 -0.703871,-4e-4 -5.211317,3.66093 -10.051194,7.19742 -4.830533,3.52967 -10.039476,6.9747 -10.377389,6.6464 -0.433847,-0.4215 3.733885,-3.83819 7.387933,-7.12455 3.670281,-3.30096 6.897071,-6.52558 6.025233,-6.52609 -1.116472,-6.5e-4 -4.990725,2.89532 -8.857051,5.73851 -3.850413,2.83148 -7.753604,5.65757 -7.759242,5.54645 -0.01481,-0.29193 3.084578,-2.76307 5.829886,-5.12237 2.763394,-2.37485 5.238527,-4.68985 4.772943,-4.69019 -0.742324,-5.5e-4 -2.917191,1.53621 -4.984125,3.04209 -2.063034,1.50303 -4.033224,2.98734 -4.039039,2.89248 -0.0186,-0.30344 2.088261,-2.12898 3.974659,-3.85413 1.896734,-1.7346 3.610483,-3.39966 3.22329,-3.39989 -0.669616,-4e-4 -2.853512,1.60396 -5.001783,3.16352 -2.146952,1.55861 -4.265686,3.07929 -4.465384,2.9336 -0.348842,-0.2545 0.889196,-1.51226 1.691795,-2.68222 0.80433,-1.17248 1.181962,-2.26489 -0.714427,-2.18802 -4.3821,0.17763 -6.569034,2.61187 -6.569034,2.61187 0,0 3.100278,-1.8741 5.826173,-1.98417 1.689445,-0.0682 1.245497,0.98505 0.454663,2.13542 -0.789057,1.14778 -1.933941,2.4005 -1.484217,2.73061 0.610184,0.44789 3.155049,-1.06815 5.418528,-2.70179 2.263357,-1.63355 4.24684,-3.38942 4.120979,-3.3895 0.187924,1.3e-4 -1.556022,1.58853 -3.424331,3.28452 -1.857106,1.68581 -3.879168,3.51166 -3.856228,3.96284 0.03477,0.68381 2.431613,-0.7863 4.715427,-2.44128 2.280093,-1.65227 4.435169,-3.48758 4.377985,-3.48763 0.265733,2.2e-4 -2.248389,2.24074 -4.990044,4.57793 -2.722138,2.32056 -5.742714,4.79231 -5.725268,5.22556 0.0271,0.67297 4.386291,-2.1306 8.480634,-5.10924 4.098787,-2.98187 7.952913,-6.16519 8.268779,-6.16498 0.673323,4.3e-4 -2.640401,3.17975 -6.319655,6.45701 -3.662396,3.26224 -7.76304,6.67721 -7.248855,7.18111 0.670939,0.65751 6.344077,-2.77601 11.337219,-6.38763 4.998511,-3.6155 9.347496,-7.44297 9.254708,-7.44303 0.292877,1.8e-4 -3.746356,3.66227 -8.132821,7.25658 -4.400531,3.60584 -9.124465,7.1269 -8.540198,7.04222 1.040683,-0.15084 5.122217,-2.77457 8.811423,-5.40011 3.678195,-2.6177 6.945927,-5.22169 7.202631,-5.22143 0.611365,6.2e-4 -3.226046,3.41893 -7.113127,6.71769 -3.89671,3.30695 -7.823611,6.48666 -5.940227,6.17181 2.373551,-0.39679 8.03031,-3.74634 13.098574,-7.07083 5.043854,-3.30848 9.454456,-6.5557 10.617614,-6.5546 1.513478,0.001 -1.210952,2.96559 -4.305412,5.90659 -3.097618,2.94401 -6.567266,5.8658 -5.422477,5.88918 1.493157,0.0305 6.406142,-2.9661 10.727427,-6.00079 4.316167,-3.0311 8.043578,-6.10147 8.373228,-6.10117 0.68059,6.2e-4 -2.454092,3.00215 -5.740303,5.97985 -3.289715,2.98087 -6.732262,5.93952 -5.518139,5.96428 1.568193,0.032 6.877017,-3.26228 11.500022,-6.60131 4.61702,-3.33471 8.55173,-6.71558 8.82777,-6.71537 0.6322,4.8e-4 -2.45942,3.04465 -5.82218,6.06176 -3.36643,3.02039 -7.005689,6.01518 -6.291935,6.02968 1.069355,0.0217 6.175105,-3.39762 10.953665,-6.86124 4.77202,-3.45888 9.21934,-6.96466 10.52934,-6.9639 1.66886,9.6e-4 -0.81765,3.10002 -3.62584,6.17599 -2.81113,3.07918 -5.94572,6.13641 -4.36464,6.16836 1.91619,0.0387 5.73719,-2.16543 9.17195,-4.39563 3.43164,-2.22818 6.47867,-4.48314 7.49735,-4.48218 1.35754,0.001 -1.49135,3.14315 -4.71958,6.25812 -3.23174,3.11835 -6.84489,6.21098 -5.76385,6.23306 1.43094,0.0292 6.16094,-2.94488 10.25759,-5.95617 4.09192,-3.00782 7.55339,-6.05377 7.62985,-6.05366 0.42868,6.1e-4 -2.91891,3.16994 -6.29253,6.31395 -3.3774,3.14753 -6.78166,6.27184 -5.19094,6.30436 1.94421,0.0398 6.58834,-2.69107 10.49047,-5.16614 3.88831,-2.4663 7.08386,-4.69053 7.00004,-3.5181 -0.20539,2.87276 -6.0925,7.54197 -3.72078,7.69616 3.08025,0.20026 4.91973,-1.85248 4.91973,-1.85248 z"
       style="color:#000000;clip-rule:nonzero;display:inline;overflow:visible;visibility:visible;opacity:1;isolation:auto;mix-blend-mode:normal;color-interpolation:sRGB;color-interpolation-filters:linearRGB;solid-color:#000000;solid-opacity:1;fill:#969696;fill-opacity:1;fill-rule:nonzero;stroke:#424242;stroke-width:2.22379088;stroke-linecap:butt;stroke-linejoin:miter;stroke-miterlimit:4;stroke-dasharray:none;stroke-dashoffset:0;stroke-opacity:1;color-rendering:auto;image-rendering:auto;shape-rendering:auto;text-rendering:auto;enable-background:accumulate" />
    <rect
       style="color:#000000;clip-rule:nonzero;display:inline;overflow:visible;visibility:visible;opacity:1;isolation:auto;mix-blend-mode:normal;color-interpolation:sRGB;color-interpolation-filters:linearRGB;solid-color:#000000;solid-opacity:1;fill:#000000;fill-opacity:1;fill-rule:nonzero;stroke:#e7e7e7;stroke-width:4.86461449;stroke-linecap:butt;stroke-linejoin:miter;stroke-miterlimit:4;stroke-dasharray:none;stroke-dashoffset:0;stroke-opacity:1;color-rendering:auto;image-rendering:auto;shape-rendering:auto;text-rendering:auto;enable-background:accumulate"
       id="rect4784"
       width="117.92435"
       height="125.42189"
       x="51.609253"
       y="875.9798"
       rx="7.8616233" />
    <rect
       rx="7.811614"
       y="875.09442"
       x="52.104637"
       height="129.99928"
       width="117.17421"
       id="rect4786"
       style="color:#000000;clip-rule:nonzero;display:inline;overflow:visible;visibility:visible;opacity:1;isolation:auto;mix-blend-mode:normal;color-interpolation:sRGB;color-interpolation-filters:linearRGB;solid-color:#000000;solid-opacity:1;fill:#000000;fill-opacity:1;fill-rule:nonzero;stroke:#424242;stroke-width:4.86461449;stroke-linecap:butt;stroke-linejoin:miter;stroke-miterlimit:4;stroke-dasharray:none;stroke-dashoffset:0;stroke-opacity:1;color-rendering:auto;image-rendering:auto;shape-rendering:auto;text-rendering:auto;enable-background:accumulate" />
    <rect
       style="color:#000000;clip-rule:nonzero;display:inline;overflow:visible;visibility:visible;opacity:1;isolation:auto;mix-blend-mode:normal;color-interpolation:sRGB;color-interpolation-filters:linearRGB;solid-color:#000000;solid-opacity:1;fill:#000000;fill-opacity:1;fill-rule:nonzero;stroke:#424242;stroke-width:4.05384541;stroke-linecap:butt;stroke-linejoin:miter;stroke-miterlimit:4;stroke-dasharray:none;stroke-dashoffset:0;stroke-opacity:1;color-rendering:auto;image-rendering:auto;shape-rendering:auto;text-rendering:auto;enable-background:accumulate"
       id="rect4788"
       width="118.09452"
       height="88.950859"
       x="51.644474"
       y="899.90051"
       rx="7.8729682" />
    <path
       inkscape:connector-curvature="0"
       id="path4790"
       d="m 74.720241,901.85995 0.473879,86.99956"
       style="fill:#000000;fill-opacity:1;fill-rule:evenodd;stroke:#424242;stroke-width:4.86461449;stroke-linecap:butt;stroke-linejoin:miter;stroke-miterlimit:4;stroke-dasharray:none;stroke-opacity:1" />
    <path
       inkscape:connector-curvature="0"
       id="path4792"
       d="m 75.19412,921.9678 94.33948,0"
       style="fill:#000000;fill-opacity:1;fill-rule:evenodd;stroke:#424242;stroke-width:4.86461449;stroke-linecap:butt;stroke-linejoin:miter;stroke-miterlimit:4;stroke-dasharray:none;stroke-opacity:1" />
    <path
       sodipodi:nodetypes="sssssssss"
       inkscape:connector-curvature="0"
       inkscape:original-d="m 86.601155,926.19099 73.312235,0.21116 c 6.90426,0.0199 5.09475,0.12344 5.05388,3.68594 l -0.5956,51.91809 c -0.0409,3.56251 -5.49001,-0.64839 -8.82608,-0.32607 l -74.304906,7.1794 c -3.336059,0.32234 5.232967,-2.2389 5.071451,-5.79754 l -2.183896,-48.11723 c -0.161515,-3.55862 -21.586372,-8.82304 2.472916,-8.75375 z"
       inkscape:path-effect="#path-effect4891"
       id="path4794"
       d="m 164.39579,979.90408 c 0,0 -3.83263,3.18135 -5.77678,2.63167 -2.30662,-0.65217 5.00469,-8.11266 5.06648,-12.77766 0.0346,-2.61422 -4.74908,1.06766 -10.03688,5.42436 -5.29751,4.3647 -11.13094,9.42085 -12.93588,9.59518 -2.06647,0.19959 3.47994,-6.30521 9.39033,-13.0594 5.92775,-6.77404 12.15705,-13.73158 12.17043,-14.53672 0.0175,-1.05484 -7.0019,5.8839 -14.51484,13.13739 -7.507,7.24776 -15.48364,14.78069 -16.56939,14.88557 -1.33133,0.1286 6.901,-8.73127 15.18761,-18.16047 8.32633,-9.47439 16.56419,-19.3719 16.59791,-21.54455 0.0373,-2.40657 -9.46566,6.8006 -19.80953,16.66674 -10.34378,9.86607 -21.5224,20.36506 -23.35009,20.54175 -2.0168,0.19496 10.41577,-13.29294 22.34976,-27.11766 11.95763,-13.85212 23.30706,-27.92901 21.89576,-29.04898 -1.49358,-1.18526 -15.88127,13.674 -30.96176,28.91635 -15.06606,15.22776 -30.74836,30.74614 -31.36977,30.80619 -0.75211,0.0727 13.76685,-14.87014 27.43041,-29.85402 13.6575,-14.97725 26.43948,-29.97451 25.38559,-29.97755 -1.17572,-0.003 -15.53503,15.51149 -30.78931,31.05803 -15.26163,15.55403 -31.396452,31.11606 -32.725519,31.24446 -1.462957,0.14132 13.037809,-15.02795 26.818139,-30.25589 13.77422,-15.22119 26.80687,-30.47961 25.69006,-30.48283 -1.23249,-0.004 -15.43213,15.22475 -30.07273,30.10911 -14.578224,14.82096 -29.767171,29.48692 -29.406284,28.04167 0.400799,-1.60509 14.280289,-16.29775 26.500874,-30.19957 12.32648,-14.02228 23.32802,-27.61433 21.16896,-27.62055 -2.32562,-0.007 -13.83022,11.59847 -25.25072,22.87704 -11.397536,11.2559 -22.767399,22.2525 -22.822375,20.91529 -0.06254,-1.52122 9.57906,-12.35646 18.495905,-22.65684 8.95827,-10.34822 17.32688,-20.30465 16.35949,-20.30744 -1.18182,-0.003 -8.73523,7.81915 -16.21736,15.60443 -7.466229,7.76873 -14.907732,15.54956 -14.916149,15.37991 -0.01908,-0.38466 8.14454,-9.24962 15.830239,-17.93187 7.70943,-8.70906 15.01441,-17.31547 14.45817,-17.31708 -0.77175,-0.002 -8.21005,7.99 -15.69784,15.69704 -7.478958,7.69795 -15.02648,15.13763 -15.083151,13.98485 -0.06786,-1.38038 6.135781,-8.79811 11.863389,-15.79131 5.747842,-7.01791 11.086832,-13.68521 10.035602,-13.68824 -1.28737,-0.004 -7.12397,5.88837 -12.76827,11.6953 -5.636528,5.79893 -11.102358,11.53651 -11.118493,11.18384 -0.02741,-0.59916 4.571129,-5.91853 8.918802,-11.05167 4.357286,-5.1445 8.494661,-10.1367 7.952601,-10.13826 -0.78791,-0.002 -4.647147,3.9185 -8.36889,7.7568 -3.718708,3.83517 -7.307955,7.59719 -7.324322,7.26177 -0.02895,-0.59335 3.453882,-4.74584 6.757939,-8.72656 3.310132,-3.98804 6.461312,-7.82621 6.012506,-7.82751 -0.697947,-0.002 -4.172633,3.54636 -7.525349,6.92581 -3.351598,3.37833 -6.58262,6.59105 -6.614052,5.91213 -0.08787,-1.89802 8.616939,-11.60062 4.034717,-11.6071 -5.006429,-0.007 -10.538915,6.20209 -11.575059,5.59735 -1.362585,-0.79526 2.792473,-5.70308 2.792473,-5.70308 0,0 -5.026001,5.50534 -3.442052,6.43059 1.938387,1.13229 7.952233,-5.60249 11.583203,-5.59735 4.234249,0.006 -4.152926,9.34754 -4.051604,11.6071 0.06275,1.39935 3.643062,-1.80706 7.167223,-5.36833 3.522644,-3.55974 6.980006,-7.46964 6.990857,-7.46961 0.277042,8e-4 -2.886215,3.74952 -6.161141,7.69296 -3.26854,3.93575 -6.669933,8.08923 -6.633391,8.86111 0.04964,1.04846 3.990517,-2.70743 7.88193,-6.72358 3.891964,-4.01672 7.732432,-8.29528 7.833132,-8.29499 0.37019,0.001 -3.781213,4.90468 -8.104721,10.00499 -4.313449,5.08845 -8.831876,10.40911 -8.797511,11.18494 0.04686,1.05793 5.869728,-4.67168 11.684039,-10.6508 5.818693,-5.98363 11.636643,-12.23007 12.236013,-12.22834 0.87921,0.003 -4.47759,6.58274 -10.194423,13.55721 -5.696111,6.9492 -11.821596,14.36833 -11.747461,15.92234 0.08799,1.84453 7.995349,-5.58404 15.656884,-13.46075 7.66546,-7.88076 15.08434,-16.22138 15.16729,-16.22114 0.38404,0.001 -6.94213,8.52143 -14.62275,17.18757 -7.656001,8.63834 -15.743712,17.50552 -15.716941,18.06138 0.04114,0.85421 7.845562,-6.9173 15.493121,-14.86188 7.65949,-7.95699 15.1923,-16.12388 15.68547,-16.12246 0.79507,0.002 -7.59693,9.87395 -16.52838,20.1799 -8.889181,10.25718 -18.456544,21.09454 -18.389529,22.78438 0.07967,2.00893 11.818346,-8.97369 23.408069,-20.40514 11.60615,-11.44765 23.0932,-23.3919 24.72875,-23.38719 1.98594,0.006 -9.01663,13.48332 -21.30495,27.4485 -12.179943,13.842 -25.989068,28.54031 -26.449018,30.37161 -0.588922,2.34482 14.97429,-12.28798 29.826708,-27.35344 14.89908,-15.1128 29.198,-30.79889 29.73692,-30.79733 0.94557,0.003 -12.20361,15.27034 -26.00485,30.49625 -13.80734,15.23264 -28.245432,30.40219 -26.591728,30.24246 2.091408,-0.20201 18.587738,-15.76289 33.852578,-31.29813 15.25741,-15.52766 29.2621,-31.00576 29.7529,-31.00435 0.88265,0.003 -12.01544,15.009 -25.69958,29.99096 -13.69019,14.98858 -28.14613,29.93169 -27.20347,29.84061 1.38018,-0.13335 17.27008,-15.49169 32.27095,-30.6206 15.01695,-15.14514 29.06141,-29.9648 30.14747,-29.10194 1.30837,1.03949 -10.15262,15.12604 -22.15211,29.00257 -11.97605,13.84943 -24.38185,27.37736 -22.17513,27.16407 2.58386,-0.24975 13.75031,-10.36927 23.91905,-20.02635 10.17624,-9.66422 19.32253,-18.8214 19.2947,-17.18215 -0.0336,1.98178 -8.37554,11.88988 -16.76284,21.41571 -8.34819,9.48142 -16.60126,18.4362 -15.08044,18.28932 1.84358,-0.17806 9.80859,-7.34039 17.13502,-14.38388 7.33684,-7.05348 13.99555,-13.94757 13.98998,-13.63909 -0.0112,0.61882 -6.34242,7.587 -12.3273,14.4113 -5.96817,6.80524 -11.52991,13.40272 -9.27361,13.18483 2.56374,-0.24759 8.39199,-4.94404 13.50525,-9.11012 5.10803,-4.16183 9.51715,-7.79989 9.48936,-5.90942 -0.0633,4.30352 -7.65408,12.051 -5.08507,12.77766 3.01999,0.85421 6.49978,-3.35918 6.49978,-3.35918 z"
       style="color:#000000;clip-rule:nonzero;display:inline;overflow:visible;visibility:visible;opacity:1;isolation:auto;mix-blend-mode:normal;color-interpolation:sRGB;color-interpolation-filters:linearRGB;solid-color:#000000;solid-opacity:1;fill:#000000;fill-opacity:1;fill-rule:nonzero;stroke:#424242;stroke-width:2.43230724;stroke-linecap:butt;stroke-linejoin:miter;stroke-miterlimit:4;stroke-dasharray:none;stroke-dashoffset:0;stroke-opacity:1;color-rendering:auto;image-rendering:auto;shape-rendering:auto;text-rendering:auto;enable-background:accumulate" />
    <path
       style="color:#000000;clip-rule:nonzero;display:inline;overflow:visible;visibility:visible;opacity:1;isolation:auto;mix-blend-mode:normal;color-interpolation:sRGB;color-interpolation-filters:linearRGB;solid-color:#000000;solid-opacity:1;fill:#000000;fill-opacity:1;fill-rule:nonzero;stroke:#424242;stroke-width:2.22379088;stroke-linecap:butt;stroke-linejoin:miter;stroke-miterlimit:4;stroke-dasharray:none;stroke-dashoffset:0;stroke-opacity:1;color-rendering:auto;image-rendering:auto;shape-rendering:auto;text-rendering:auto;enable-background:accumulate"
       d="m 165.02124,915.64804 c 0,0 -2.51664,1.33389 -4.10175,1.23084 -2.02992,-0.13197 3.43957,-4.46681 3.63646,-7.70296 0.11641,-1.91345 -3.44742,0.33939 -7.47713,2.97034 -4.06772,2.65577 -8.73765,5.74635 -9.90694,5.72249 -1.39307,-0.0284 2.07432,-3.15543 5.41568,-6.30686 3.33763,-3.14791 6.55038,-6.32212 5.92497,-6.32297 -0.86484,-0.001 -4.68547,3.03977 -8.74195,6.04644 -4.06123,3.01018 -8.36007,5.98794 -9.00364,5.97482 -0.88373,-0.018 2.79277,-3.11336 5.98893,-6.2356 3.1927,-3.11886 5.90749,-6.26555 4.35387,-6.26691 -1.80731,-0.002 -5.2207,2.24772 -8.62465,4.47407 -3.4071,2.22841 -6.80567,4.43525 -7.93686,4.41243 -1.38402,-0.0279 1.81437,-3.08784 4.59067,-6.17085 2.77342,-3.0798 5.12688,-6.18359 3.26284,-6.18454 -2.09501,-0.001 -6.89609,3.5002 -11.62793,6.95819 -4.7384,3.46277 -9.40878,6.88589 -9.69103,6.88017 -0.51676,-0.0105 3.18683,-3.00792 6.51863,-6.03213 3.32818,-3.02093 6.28656,-6.06984 5.45769,-6.07041 -1.06443,-7.4e-4 -5.35519,3.37544 -9.93317,6.70915 -4.58398,3.33809 -9.45747,6.63611 -10.23693,6.62024 -1.01647,-0.0207 2.49123,-2.98194 5.74684,-5.96658 3.25216,-2.98148 6.25384,-5.98774 5.37609,-5.98848 -1.12028,-9.4e-4 -5.2073,3.06444 -9.48739,6.09431 -4.28523,3.03351 -8.76537,6.03359 -9.46942,6.01924 -0.94704,-0.0193 2.58824,-2.94366 5.65234,-5.89139 3.06099,-2.94474 5.65311,-5.91357 3.9429,-5.91507 -1.95013,-0.002 -6.84191,3.34077 -11.91948,6.69677 -5.099911,3.37076 -10.344541,6.72566 -11.632874,6.94187 -1.608175,0.26989 2.375714,-2.91194 6.216366,-6.21133 3.830618,-3.29077 7.498208,-6.68925 6.689978,-6.69002 -1.0478,-10e-4 -4.784025,2.68093 -8.489723,5.33775 -3.715448,2.6638 -7.383736,5.29173 -7.39872,5.29391 -0.326472,0.0475 4.450243,-3.47632 8.794271,-7.07676 4.329732,-3.58858 8.202982,-7.23506 7.713802,-7.23533 -0.70387,-4e-4 -5.21132,3.66093 -10.051197,7.19742 -4.830532,3.52967 -10.039476,6.9747 -10.377389,6.6464 -0.433847,-0.4215 3.733885,-3.83819 7.387933,-7.12455 3.670281,-3.30096 6.897071,-6.52558 6.025233,-6.52609 -1.116472,-6.5e-4 -4.990724,2.89532 -8.857051,5.73851 -3.850413,2.83147 -7.753604,5.65757 -7.759241,5.54645 -0.01481,-0.29193 3.084578,-2.76307 5.829885,-5.12237 2.763394,-2.37485 5.238527,-4.68985 4.772943,-4.69019 -0.742324,-5.5e-4 -2.917191,1.53621 -4.984125,3.04209 -2.063034,1.50303 -4.033224,2.98734 -4.039038,2.89248 -0.0186,-0.30344 2.08826,-2.12898 3.974658,-3.85413 1.896734,-1.7346 3.610483,-3.39966 3.22329,-3.39989 -0.669616,-4e-4 -2.853512,1.60396 -5.001783,3.16352 -2.146952,1.55861 -4.265686,3.07929 -4.465384,2.9336 -0.348842,-0.2545 0.889196,-1.51226 1.691795,-2.68222 0.80433,-1.17248 1.181962,-2.26489 -0.714427,-2.18802 -4.382101,0.17763 -6.569034,2.61187 -6.569034,2.61187 0,0 3.100278,-1.8741 5.826173,-1.98417 1.689445,-0.0682 1.245497,0.98505 0.454663,2.13542 -0.789057,1.14778 -1.933941,2.4005 -1.484216,2.73061 0.610183,0.44789 3.155048,-1.06815 5.418527,-2.70179 2.263357,-1.63355 4.24684,-3.38942 4.120979,-3.3895 0.187924,1.3e-4 -1.556022,1.58853 -3.424331,3.28452 -1.857106,1.68581 -3.879168,3.51166 -3.856228,3.96284 0.03477,0.68381 2.431613,-0.7863 4.715427,-2.44128 2.280093,-1.65227 4.435169,-3.48758 4.377985,-3.48763 0.265733,2.2e-4 -2.248389,2.24074 -4.990044,4.57793 -2.722138,2.32056 -5.742714,4.79231 -5.725268,5.22556 0.0271,0.67297 4.386291,-2.1306 8.480634,-5.10924 4.098787,-2.98187 7.952913,-6.16519 8.268779,-6.16498 0.673323,4.3e-4 -2.640401,3.17975 -6.319655,6.45701 -3.662395,3.26224 -7.76304,6.67721 -7.248854,7.18111 0.670938,0.65751 6.344076,-2.77601 11.337218,-6.38763 4.998511,-3.6155 9.347493,-7.44297 9.254713,-7.44303 0.29287,1.8e-4 -3.74636,3.66227 -8.132826,7.25658 -4.400531,3.60584 -9.124465,7.1269 -8.540198,7.04222 1.040683,-0.15084 5.122217,-2.77457 8.811423,-5.40011 3.678195,-2.6177 6.945931,-5.22169 7.202631,-5.22143 0.61136,6.2e-4 -3.22605,3.41893 -7.113127,6.71769 -3.89671,3.30695 -7.823611,6.48666 -5.940227,6.17181 2.373551,-0.39679 8.030311,-3.74634 13.098574,-7.07083 5.04385,-3.30848 9.45446,-6.5557 10.61761,-6.5546 1.51348,0.001 -1.21095,2.96559 -4.30541,5.90659 -3.09762,2.94401 -6.56726,5.8658 -5.42248,5.88918 1.49316,0.0305 6.40615,-2.9661 10.72743,-6.00079 4.31617,-3.0311 8.04358,-6.10147 8.37323,-6.10117 0.68059,6.2e-4 -2.45409,3.00215 -5.7403,5.97985 -3.28972,2.98087 -6.73227,5.93952 -5.51814,5.96428 1.56819,0.032 6.87701,-3.26228 11.50002,-6.60131 4.61702,-3.33471 8.55173,-6.71558 8.82777,-6.71537 0.6322,4.8e-4 -2.45942,3.04465 -5.82218,6.06176 -3.36643,3.02039 -7.00569,6.01518 -6.29194,6.02968 1.06936,0.0217 6.17511,-3.39762 10.95367,-6.86124 4.77202,-3.45888 9.21934,-6.96466 10.52934,-6.9639 1.66886,9.6e-4 -0.81765,3.10002 -3.62584,6.17599 -2.81113,3.07918 -5.94572,6.13641 -4.36464,6.16836 1.91619,0.0387 5.73719,-2.16543 9.17195,-4.39563 3.43164,-2.22818 6.47867,-4.48314 7.49735,-4.48218 1.35754,0.001 -1.49135,3.14315 -4.71958,6.25812 -3.23174,3.11835 -6.84489,6.21098 -5.76385,6.23306 1.43094,0.0292 6.16094,-2.94488 10.25759,-5.95617 4.09192,-3.00782 7.55339,-6.05377 7.62985,-6.05366 0.42868,6.1e-4 -2.91891,3.16994 -6.29253,6.31395 -3.3774,3.14753 -6.78166,6.27184 -5.19094,6.30436 1.94421,0.0398 6.58834,-2.69107 10.49047,-5.16614 3.88831,-2.4663 7.08386,-4.69053 7.00004,-3.5181 -0.20539,2.87276 -6.0925,7.54197 -3.72078,7.69616 3.08025,0.20026 4.91973,-1.85248 4.91973,-1.85248 z"
       id="path4796"
       inkscape:path-effect="#path-effect4888"
       inkscape:original-d="m 86.127283,902.95268 74.332207,0.0513 c 7.00032,0.005 5.16564,0.03 5.1242,0.89555 l -0.60389,12.61419 c -0.0414,0.86556 -5.56621,-0.0104 -8.94887,-0.0792 l -53.78943,-1.09259 c -3.382654,-0.0687 -19.98395,3.56615 -20.12749,2.69747 -0.504117,-3.05082 -1.008233,6.74631 -1.51235,-9.15244 -0.02795,-0.88148 -18.868397,-5.95112 5.525623,-5.93429 z"
       inkscape:connector-curvature="0"
       sodipodi:nodetypes="cssssssssc" />
    <rect
       rx="7.8616233"
       y="895.9798"
       x="73.609253"
       height="125.42189"
       width="117.92435"
       id="rect4802"
       style="color:#000000;clip-rule:nonzero;display:inline;overflow:visible;visibility:visible;opacity:1;isolation:auto;mix-blend-mode:normal;color-interpolation:sRGB;color-interpolation-filters:linearRGB;solid-color:#000000;solid-opacity:1;fill:#000000;fill-opacity:0;fill-rule:nonzero;stroke:#e7e7e7;stroke-width:4.86461449;stroke-linecap:butt;stroke-linejoin:miter;stroke-miterlimit:4;stroke-dasharray:none;stroke-dashoffset:0;stroke-opacity:1;color-rendering:auto;image-rendering:auto;shape-rendering:auto;text-rendering:auto;enable-background:accumulate" />
    <rect
       style="color:#000000;clip-rule:nonzero;display:inline;overflow:visible;visibility:visible;opacity:1;isolation:auto;mix-blend-mode:normal;color-interpolation:sRGB;color-interpolation-filters:linearRGB;solid-color:#000000;solid-opacity:1;fill:#ffffff;fill-opacity:1;fill-rule:nonzero;stroke:#424242;stroke-width:4.86461449;stroke-linecap:butt;stroke-linejoin:miter;stroke-miterlimit:4;stroke-dasharray:none;stroke-dashoffset:0;stroke-opacity:1;color-rendering:auto;image-rendering:auto;shape-rendering:auto;text-rendering:auto;enable-background:accumulate"
       id="rect4804"
       width="117.17421"
       height="129.99928"
       x="74.104637"
       y="895.09442"
       rx="7.811614" />
    <rect
       rx="7.8729682"
       y="919.90051"
       x="73.64447"
       height="88.950859"
       width="118.09452"
       id="rect4806"
       style="color:#000000;clip-rule:nonzero;display:inline;overflow:visible;visibility:visible;opacity:1;isolation:auto;mix-blend-mode:normal;color-interpolation:sRGB;color-interpolation-filters:linearRGB;solid-color:#000000;solid-opacity:1;fill:#ffffff;fill-opacity:1;fill-rule:nonzero;stroke:#424242;stroke-width:4.05384541;stroke-linecap:butt;stroke-linejoin:miter;stroke-miterlimit:4;stroke-dasharray:none;stroke-dashoffset:0;stroke-opacity:1;color-rendering:auto;image-rendering:auto;shape-rendering:auto;text-rendering:auto;enable-background:accumulate" />
    <path
       style="fill:none;fill-rule:evenodd;stroke:#424242;stroke-width:4.86461449;stroke-linecap:butt;stroke-linejoin:miter;stroke-miterlimit:4;stroke-dasharray:none;stroke-opacity:1"
       d="m 96.720241,921.85995 0.473879,86.99955"
       id="path4808"
       inkscape:connector-curvature="0" />
    <path
       style="fill:none;fill-rule:evenodd;stroke:#424242;stroke-width:4.86461449;stroke-linecap:butt;stroke-linejoin:miter;stroke-miterlimit:4;stroke-dasharray:none;stroke-opacity:1"
       d="m 97.19412,941.9678 94.33948,0"
       id="path4810"
       inkscape:connector-curvature="0" />
  </g>
</svg>
