<?xml version="1.0" encoding="UTF-8" standalone="no"?>
<!-- Created with Inkscape (http://www.inkscape.org/) -->

<svg
   xmlns:dc="http://purl.org/dc/elements/1.1/"
   xmlns:cc="http://creativecommons.org/ns#"
   xmlns:rdf="http://www.w3.org/1999/02/22-rdf-syntax-ns#"
   xmlns:svg="http://www.w3.org/2000/svg"
   xmlns="http://www.w3.org/2000/svg"
   xmlns:sodipodi="http://sodipodi.sourceforge.net/DTD/sodipodi-0.dtd"
   xmlns:inkscape="http://www.inkscape.org/namespaces/inkscape"
   width="220"
   height="220"
   viewBox="0 0 220 220"
   id="svg5999"
   version="1.1"
   inkscape:version="0.91 r13725"
   sodipodi:docname="icon.svg"
   inkscape:export-filename="/home/mh/rect4140-3.png"
   inkscape:export-xdpi="20.970873"
   inkscape:export-ydpi="20.970873">
  <defs
     id="defs6001">
    <inkscape:path-effect
       effect="rough_hatches"
       id="path-effect7442"
       is_visible="true"
       direction="60,962.36216 , 11.668628,11.789342"
       dist_rdm="75;1"
       growth="0"
       do_bend="true"
       bender="45,947.36216 , 0.86021682,0"
       bottom_edge_variation="8.000002;1"
       top_edge_variation="8.000002;1"
       bottom_tgt_variation="0;1"
       top_tgt_variation="0;1"
       scale_bf="1"
       scale_bb="1"
       scale_tf="1"
       scale_tb="1"
       top_smth_variation="0;1"
       bottom_smth_variation="0;1"
       fat_output="true"
       stroke_width_top="1"
       stroke_width_bottom="1"
       front_thickness="1"
       back_thickness="0.25" />
    <inkscape:path-effect
       back_thickness="0.25"
       front_thickness="1"
       stroke_width_bottom="1"
       stroke_width_top="1"
       fat_output="true"
       bottom_smth_variation="0;1"
       top_smth_variation="0;1"
       scale_tb="1"
       scale_tf="1"
       scale_bb="1"
       scale_bf="1"
       top_tgt_variation="0;1"
       bottom_tgt_variation="0;1"
       top_edge_variation="8.000002;1"
       bottom_edge_variation="8.000002;1"
       bender="380.38726,843.46929 , 4.7124208,0.35714286"
       do_bend="true"
       growth="0"
       dist_rdm="75;1"
       direction="400.35714,847.7193 , 10.098993,11.871253"
       is_visible="true"
       id="path-effect7438"
       effect="rough_hatches" />
    <inkscape:path-effect
       effect="rough_hatches"
       id="path-effect7434"
       is_visible="true"
       direction="130,967.36216 , 17.373093,15.404826"
       dist_rdm="75;1"
       growth="0"
       do_bend="true"
       bender="125,962.36219 , 5,0"
       bottom_edge_variation="8.000002;1"
       top_edge_variation="8.000002;1"
       bottom_tgt_variation="0;1"
       top_tgt_variation="0;1"
       scale_bf="1"
       scale_bb="1"
       scale_tf="1"
       scale_tb="1"
       top_smth_variation="0;1"
       bottom_smth_variation="0;1"
       fat_output="true"
       stroke_width_top="1"
       stroke_width_bottom="1"
       front_thickness="1"
       back_thickness="0.25" />
    <inkscape:path-effect
       back_thickness="0.25"
       front_thickness="1"
       stroke_width_bottom="1"
       stroke_width_top="1"
       fat_output="true"
       bottom_smth_variation="0;1"
       top_smth_variation="0;1"
       scale_tb="1"
       scale_tf="1"
       scale_bb="1"
       scale_bf="1"
       top_tgt_variation="0;1"
       bottom_tgt_variation="0;1"
       top_edge_variation="2.5;1"
       bottom_edge_variation="2.5;1"
       bender="54.197031,965.98786 , 4.3226787,0"
       do_bend="true"
       growth="0"
       dist_rdm="75;1"
       direction="54.197031,963.95676 , 15.129376,0.97929277"
       is_visible="true"
       id="path-effect5674"
       effect="rough_hatches" />
    <inkscape:path-effect
       effect="rough_hatches"
       id="path-effect5670"
       is_visible="true"
       direction="54.197031,937.95676 , 15.129376,0.97929277"
       dist_rdm="75;1"
       growth="0"
       do_bend="true"
       bender="54.197031,939.98786 , 4.3226787,0"
       bottom_edge_variation="2.5;1"
       top_edge_variation="2.5;1"
       bottom_tgt_variation="0;1"
       top_tgt_variation="0;1"
       scale_bf="1"
       scale_bb="1"
       scale_tf="1"
       scale_tb="1"
       top_smth_variation="0;1"
       bottom_smth_variation="0;1"
       fat_output="true"
       stroke_width_top="1"
       stroke_width_bottom="1"
       front_thickness="1"
       back_thickness="0.25" />
    <inkscape:path-effect
       back_thickness="0.25"
       front_thickness="1"
       stroke_width_bottom="1"
       stroke_width_top="1"
       fat_output="true"
       bottom_smth_variation="0;1"
       top_smth_variation="0;1"
       scale_tb="1"
       scale_tf="1"
       scale_bb="1"
       scale_bf="1"
       top_tgt_variation="0;1"
       bottom_tgt_variation="0;1"
       top_edge_variation="2.5;1"
       bottom_edge_variation="2.5;1"
       bender="54.197031,907.98786 , 4.3226787,0"
       do_bend="true"
       growth="0"
       dist_rdm="75;1"
       direction="54.197031,905.95676 , 15.129376,0.97929277"
       is_visible="true"
       id="path-effect5666"
       effect="rough_hatches" />
    <inkscape:path-effect
       effect="rough_hatches"
       id="path-effect5567"
       is_visible="true"
       direction="54.197031,875.95676 , 15.129376,0.97929277"
       dist_rdm="75;1"
       growth="0"
       do_bend="true"
       bender="54.197031,877.98786 , 4.3226787,0"
       bottom_edge_variation="2.5;1"
       top_edge_variation="2.5;1"
       bottom_tgt_variation="0;1"
       top_tgt_variation="0;1"
       scale_bf="1"
       scale_bb="1"
       scale_tf="1"
       scale_tb="1"
       top_smth_variation="0;1"
       bottom_smth_variation="0;1"
       fat_output="true"
       stroke_width_top="1"
       stroke_width_bottom="1"
       front_thickness="1"
       back_thickness="0.25" />
    <inkscape:path-effect
       effect="rough_hatches"
       id="path-effect5845"
       is_visible="true"
       direction="133,950.36216 , 15.129376,0.97929277"
       dist_rdm="75;1"
       growth="0"
       do_bend="true"
       bender="147.11076,954.64918 , 4.3226787,0"
       bottom_edge_variation="2.5;1"
       top_edge_variation="2.5;1"
       bottom_tgt_variation="0;1"
       top_tgt_variation="0;1"
       scale_bf="1"
       scale_bb="1"
       scale_tf="1"
       scale_tb="1"
       top_smth_variation="0;1"
       bottom_smth_variation="0;1"
       fat_output="true"
       stroke_width_top="1"
       stroke_width_bottom="1"
       front_thickness="1"
       back_thickness="0.25" />
    <inkscape:path-effect
       back_thickness="0.25"
       front_thickness="1"
       stroke_width_bottom="1"
       stroke_width_top="1"
       fat_output="true"
       bottom_smth_variation="0;1"
       top_smth_variation="0;1"
       scale_tb="1"
       scale_tf="1"
       scale_bb="1"
       scale_bf="1"
       top_tgt_variation="0;1"
       bottom_tgt_variation="0;1"
       top_edge_variation="2.5;1"
       bottom_edge_variation="2.5;1"
       bender="148,935.36216 , 9.6259796,0.50507627"
       do_bend="true"
       growth="0"
       dist_rdm="75;1"
       direction="153,935.36216 , 15.129376,0.97929277"
       is_visible="true"
       id="path-effect5841"
       effect="rough_hatches" />
    <inkscape:path-effect
       effect="rough_hatches"
       id="path-effect5837"
       is_visible="true"
       direction="143,915.36216 , 15.129376,0.97929277"
       dist_rdm="75;1"
       growth="0"
       do_bend="true"
       bender="143,920.36216 , 4.3226787,0"
       bottom_edge_variation="2.5;1"
       top_edge_variation="2.5;1"
       bottom_tgt_variation="0;1"
       top_tgt_variation="0;1"
       scale_bf="1"
       scale_bb="1"
       scale_tf="1"
       scale_tb="1"
       top_smth_variation="0;1"
       bottom_smth_variation="0;1"
       fat_output="true"
       stroke_width_top="1"
       stroke_width_bottom="1"
       front_thickness="1"
       back_thickness="0.25" />
    <inkscape:path-effect
       back_thickness="0.25"
       front_thickness="1"
       stroke_width_bottom="1"
       stroke_width_top="1"
       fat_output="true"
       bottom_smth_variation="0;1"
       top_smth_variation="0;1"
       scale_tb="1"
       scale_tf="1"
       scale_bb="1"
       scale_bf="1"
       top_tgt_variation="0;1"
       bottom_tgt_variation="0;1"
       top_edge_variation="2.5;1"
       bottom_edge_variation="2.5;1"
       bender="147.11076,900.64918 , 4.3226787,0"
       do_bend="true"
       growth="0"
       dist_rdm="75;1"
       direction="147.11076,898.61805 , 15.129376,0.97929277"
       is_visible="true"
       id="path-effect5833"
       effect="rough_hatches" />
    <inkscape:path-effect
       back_thickness="0.25"
       front_thickness="1"
       stroke_width_bottom="1"
       stroke_width_top="1"
       fat_output="true"
       bottom_smth_variation="0;1"
       top_smth_variation="0;1"
       scale_tb="1"
       scale_tf="1"
       scale_bb="1"
       scale_bf="1"
       top_tgt_variation="0;1"
       bottom_tgt_variation="0;1"
       top_edge_variation="2.5;1"
       bottom_edge_variation="2.5;1"
       bender="157.85959,878.53044 , 3.8749075,0"
       do_bend="true"
       growth="0"
       dist_rdm="75;1"
       direction="157.85959,877.4139 , 10.847555,2.3616985"
       is_visible="true"
       id="path-effect5977"
       effect="rough_hatches" />
    <inkscape:path-effect
       back_thickness="0.25"
       front_thickness="1"
       stroke_width_bottom="1"
       stroke_width_top="1"
       fat_output="true"
       bottom_smth_variation="0;1"
       top_smth_variation="0;1"
       scale_tb="1"
       scale_tf="1"
       scale_bb="1"
       scale_bf="1"
       top_tgt_variation="0;1"
       bottom_tgt_variation="0;1"
       top_edge_variation="2.5;1"
       bottom_edge_variation="2.5;1"
       bender="106.88897,1013.5317 , 13.532736,0"
       do_bend="true"
       growth="0"
       dist_rdm="75;1"
       direction="112.88898,1009.5317 , 20.936011,0.8778433"
       is_visible="true"
       id="path-effect5973"
       effect="rough_hatches" />
    <inkscape:path-effect
       effect="rough_hatches"
       id="path-effect5969"
       is_visible="true"
       direction="78.908933,880.01111 , 19.270046,-1.2361718"
       dist_rdm="75;1"
       growth="0"
       do_bend="true"
       bender="78.908933,881.89936 , 8.0311086,0"
       bottom_edge_variation="2.5;1"
       top_edge_variation="2.5;1"
       bottom_tgt_variation="0;1"
       top_tgt_variation="0;1"
       scale_bf="1"
       scale_bb="1"
       scale_tf="1"
       scale_tb="1"
       top_smth_variation="0;1"
       bottom_smth_variation="0;1"
       fat_output="true"
       stroke_width_top="1"
       stroke_width_bottom="1"
       front_thickness="1"
       back_thickness="0.25" />
    <inkscape:path-effect
       effect="rough_hatches"
       id="path-effect5845-6"
       is_visible="true"
       direction="133,950.36214 , 15.129376,0.97929277"
       dist_rdm="75;1"
       growth="0"
       do_bend="true"
       bender="147.11076,954.64914 , 4.3226787,0"
       bottom_edge_variation="2.5;1"
       top_edge_variation="2.5;1"
       bottom_tgt_variation="0;1"
       top_tgt_variation="0;1"
       scale_bf="1"
       scale_bb="1"
       scale_tf="1"
       scale_tb="1"
       top_smth_variation="0;1"
       bottom_smth_variation="0;1"
       fat_output="true"
       stroke_width_top="1"
       stroke_width_bottom="1"
       front_thickness="1"
       back_thickness="0.25" />
    <inkscape:path-effect
       back_thickness="0.25"
       front_thickness="1"
       stroke_width_bottom="1"
       stroke_width_top="1"
       fat_output="true"
       bottom_smth_variation="0;1"
       top_smth_variation="0;1"
       scale_tb="1"
       scale_tf="1"
       scale_bb="1"
       scale_bf="1"
       top_tgt_variation="0;1"
       bottom_tgt_variation="0;1"
       top_edge_variation="2.5;1"
       bottom_edge_variation="2.5;1"
       bender="148,935.36214 , 9.6259796,0.50507627"
       do_bend="true"
       growth="0"
       dist_rdm="75;1"
       direction="153,935.36214 , 15.129376,0.97929277"
       is_visible="true"
       id="path-effect5841-1"
       effect="rough_hatches" />
    <inkscape:path-effect
       effect="rough_hatches"
       id="path-effect5837-8"
       is_visible="true"
       direction="143,915.36214 , 15.129376,0.97929277"
       dist_rdm="75;1"
       growth="0"
       do_bend="true"
       bender="143,920.36214 , 4.3226787,0"
       bottom_edge_variation="2.5;1"
       top_edge_variation="2.5;1"
       bottom_tgt_variation="0;1"
       top_tgt_variation="0;1"
       scale_bf="1"
       scale_bb="1"
       scale_tf="1"
       scale_tb="1"
       top_smth_variation="0;1"
       bottom_smth_variation="0;1"
       fat_output="true"
       stroke_width_top="1"
       stroke_width_bottom="1"
       front_thickness="1"
       back_thickness="0.25" />
    <inkscape:path-effect
       back_thickness="0.25"
       front_thickness="1"
       stroke_width_bottom="1"
       stroke_width_top="1"
       fat_output="true"
       bottom_smth_variation="0;1"
       top_smth_variation="0;1"
       scale_tb="1"
       scale_tf="1"
       scale_bb="1"
       scale_bf="1"
       top_tgt_variation="0;1"
       bottom_tgt_variation="0;1"
       top_edge_variation="2.5;1"
       bottom_edge_variation="2.5;1"
       bender="147.11076,900.64914 , 4.3226787,0"
       do_bend="true"
       growth="0"
       dist_rdm="75;1"
       direction="147.11076,898.61804 , 15.129376,0.97929277"
       is_visible="true"
       id="path-effect5833-5"
       effect="rough_hatches" />
  </defs>
  <sodipodi:namedview
     id="base"
     pagecolor="#ffffff"
     bordercolor="#666666"
     borderopacity="1.0"
     inkscape:pageopacity="0.0"
     inkscape:pageshadow="2"
     inkscape:zoom="5.6"
     inkscape:cx="95.378575"
     inkscape:cy="89.806538"
     inkscape:document-units="px"
     inkscape:current-layer="layer1"
     showgrid="true"
     inkscape:window-width="3200"
     inkscape:window-height="1647"
     inkscape:window-x="0"
     inkscape:window-y="53"
     inkscape:window-maximized="1"
     units="px">
    <inkscape:grid
       type="xygrid"
       id="grid7425" />
  </sodipodi:namedview>
  <metadata
     id="metadata6004">
    <rdf:RDF>
      <cc:Work
         rdf:about="">
        <dc:format>image/svg+xml</dc:format>
        <dc:type
           rdf:resource="http://purl.org/dc/dcmitype/StillImage" />
        <dc:title></dc:title>
      </cc:Work>
    </rdf:RDF>
  </metadata>
  <g
     inkscape:label="Layer 1"
     inkscape:groupmode="layer"
     id="layer1"
     transform="translate(0,-832.36216)">
    <rect
       rx="9.936388"
       y="862.07239"
       x="34.74115"
       height="155.4744"
       width="149.04582"
       id="rect8003"
       style="color:#000000;clip-rule:nonzero;display:inline;overflow:visible;visibility:visible;opacity:1;isolation:auto;mix-blend-mode:normal;color-interpolation:sRGB;color-interpolation-filters:linearRGB;solid-color:#000000;solid-opacity:1;fill:#ffffff;fill-opacity:1;fill-rule:nonzero;stroke:#424242;stroke-width:6;stroke-linecap:butt;stroke-linejoin:miter;stroke-miterlimit:4;stroke-dasharray:none;stroke-dashoffset:0;stroke-opacity:1;color-rendering:auto;image-rendering:auto;shape-rendering:auto;text-rendering:auto;enable-background:accumulate" />
    <rect
       rx="25"
       y="842.36218"
       x="10"
       height="200"
       width="200"
       id="rect5420"
       style="color:#000000;clip-rule:nonzero;display:inline;overflow:visible;visibility:visible;opacity:1;isolation:auto;mix-blend-mode:normal;color-interpolation:sRGB;color-interpolation-filters:linearRGB;solid-color:#000000;solid-opacity:1;fill:#000000;fill-opacity:0;fill-rule:nonzero;stroke:#424242;stroke-width:6;stroke-linecap:butt;stroke-linejoin:miter;stroke-miterlimit:4;stroke-dasharray:none;stroke-dashoffset:0;stroke-opacity:1;color-rendering:auto;image-rendering:auto;shape-rendering:auto;text-rendering:auto;enable-background:accumulate" />
    <rect
       rx="10"
       y="887.36218"
       x="35"
       height="130"
       width="150"
       id="rect5825"
       style="color:#000000;clip-rule:nonzero;display:inline;overflow:visible;visibility:visible;opacity:1;isolation:auto;mix-blend-mode:normal;color-interpolation:sRGB;color-interpolation-filters:linearRGB;solid-color:#000000;solid-opacity:1;fill:#ffffff;fill-opacity:1;fill-rule:nonzero;stroke:#424242;stroke-width:6;stroke-linecap:butt;stroke-linejoin:miter;stroke-miterlimit:4;stroke-dasharray:none;stroke-dashoffset:0;stroke-opacity:1;color-rendering:auto;image-rendering:auto;shape-rendering:auto;text-rendering:auto;enable-background:accumulate" />
    <rect
       style="color:#000000;clip-rule:nonzero;display:inline;overflow:visible;visibility:visible;opacity:1;isolation:auto;mix-blend-mode:normal;color-interpolation:sRGB;color-interpolation-filters:linearRGB;solid-color:#000000;solid-opacity:1;fill:#ffffff;fill-opacity:1;fill-rule:nonzero;stroke:#424242;stroke-width:6;stroke-linecap:butt;stroke-linejoin:miter;stroke-miterlimit:4;stroke-dasharray:none;stroke-dashoffset:0;stroke-opacity:1;color-rendering:auto;image-rendering:auto;shape-rendering:auto;text-rendering:auto;enable-background:accumulate"
       id="rect5821"
       width="50"
       height="100"
       x="123"
       y="867.89795"
       rx="10" />
    <rect
       style="color:#000000;clip-rule:nonzero;display:inline;overflow:visible;visibility:visible;opacity:1;isolation:auto;mix-blend-mode:normal;color-interpolation:sRGB;color-interpolation-filters:linearRGB;solid-color:#000000;solid-opacity:1;fill:none;fill-opacity:1;fill-rule:nonzero;stroke:#424242;stroke-width:6;stroke-linecap:butt;stroke-linejoin:miter;stroke-miterlimit:4;stroke-dasharray:none;stroke-dashoffset:0;stroke-opacity:1;color-rendering:auto;image-rendering:auto;shape-rendering:auto;text-rendering:auto;enable-background:accumulate"
       id="rect5827"
       width="150"
       height="130"
       x="34.600006"
       y="887.36218"
       rx="10" />
    <path
       inkscape:connector-curvature="0"
       inkscape:original-d="m 130.25232,895.57134 33.71689,0 c 1.43686,0 2.59361,0.5436 2.59361,1.2187 l 0,7.7183 c 0,0.6751 -1.15675,1.2187 -2.59361,1.2187 l -33.71689,0 c -1.43686,0 -2.59361,-0.5436 -2.59361,-1.2187 l 0,-7.7183 c 0,-0.6751 1.15675,-1.2187 2.59361,-1.2187 z"
       inkscape:path-effect="#path-effect5833-5"
       id="path5831"
       d="m 164.92304,905.64258 c 0,0 1.18284,-2.45199 1.36134,-4.89333 0.17928,-2.45199 -0.64578,-4.89333 -0.64578,-4.89333 0,0 0.82506,2.44134 0.64578,4.89333 -0.1785,2.44134 -1.36134,4.89333 -1.36134,4.89333 z m -3.11667,-10.07124 c 0,0 0.73793,2.37125 0.26445,4.76893 -0.47088,2.38446 -2.07845,4.76892 -3.16003,4.76892 -1.1359,0 -0.79586,-2.28944 -1.27508,-4.57889 -0.47922,-2.28945 -1.7777,-4.5789 -3.06018,-4.5789 -1.33174,0 -1.29678,2.46974 -1.88983,4.93947 -0.59305,2.46974 -1.81412,4.93947 -2.01501,4.93947 -0.25014,0 0.67117,-2.28945 0.64859,-4.57889 -0.0226,-2.28945 -0.98905,-4.5789 -1.8843,-4.5789 -0.95822,0 -0.92934,2.23098 -1.62666,4.46195 -0.69733,2.23098 -2.12086,4.46195 -3.01129,4.46195 -0.95341,0 -0.42861,-2.28944 -0.76758,-4.57889 -0.33898,-2.28945 -1.54173,-4.57889 -2.81976,-4.57889 -1.35941,0 -1.56581,1.86309 -2.22871,3.72618 -0.6629,1.8631 -1.78232,3.72619 -2.89469,3.72619 -1.19376,0 -1.11642,-2.28945 -1.67697,-4.5789 -0.56055,-2.28944 -1.75898,-4.57889 -2.37381,-4.57889 -0.64631,0 0.20232,2.74845 0.0616,5.4969 -0.14052,2.74373 -1.36325,5.49689 -1.36325,5.49689 0,0 1.35225,-2.50983 1.71383,-4.99794 0.36315,-2.49897 -0.18488,-4.99794 -0.0236,-4.99794 0.48957,0 1.43386,2.28945 1.8029,4.5789 0.36904,2.28944 0.16283,4.57889 1.48185,4.57889 1.61342,0 3.1392,-1.86309 3.95794,-3.72619 0.81875,-1.86309 0.93046,-3.72618 1.78884,-3.72618 1.15277,0 2.10138,2.28944 2.24884,4.57889 0.14747,2.28945 -0.5062,4.5789 0.57246,4.5789 1.39148,0 3.25215,-2.23098 4.13609,-4.46196 0.88394,-2.23097 0.79116,-4.46195 1.24833,-4.46195 0.76999,0 1.48232,2.28945 1.31339,4.5789 -0.16893,2.28944 -1.21912,4.57889 -0.84371,4.57889 0.70194,0 2.38012,-2.46973 3.17976,-4.93947 0.79964,-2.46973 0.72074,-4.93946 1.55143,-4.93946 1.15722,0 2.20156,2.28944 2.48928,4.57889 0.28771,2.28945 -0.18121,4.57889 1.07995,4.57889 1.59793,0 3.51994,-2.63394 3.9854,-5.26788 0.46804,-2.64847 -0.61042,-5.26788 -0.61042,-5.26788 z m -33.09002,9.92036 c 0,0 1.15739,-2.46295 1.30087,-4.91728 0.14399,-2.46295 -0.72594,-4.91728 -0.72594,-4.91728 0,0 0.86993,2.45433 0.72594,4.91728 -0.14348,2.45433 -1.30087,4.91728 -1.30087,4.91728 z"
       style="color:#000000;clip-rule:nonzero;display:inline;overflow:visible;visibility:visible;opacity:0.93000034;isolation:auto;mix-blend-mode:normal;color-interpolation:sRGB;color-interpolation-filters:linearRGB;solid-color:#000000;solid-opacity:1;fill:none;fill-opacity:1;fill-rule:nonzero;stroke:#424242;stroke-width:2.78972697;stroke-linecap:butt;stroke-linejoin:miter;stroke-miterlimit:4;stroke-dasharray:none;stroke-dashoffset:0;stroke-opacity:1;color-rendering:auto;image-rendering:auto;shape-rendering:auto;text-rendering:auto;enable-background:accumulate" />
    <path
       style="color:#000000;clip-rule:nonzero;display:inline;overflow:visible;visibility:visible;opacity:0.93000034;isolation:auto;mix-blend-mode:normal;color-interpolation:sRGB;color-interpolation-filters:linearRGB;solid-color:#000000;solid-opacity:1;fill:none;fill-opacity:1;fill-rule:nonzero;stroke:#424242;stroke-width:2.78972697;stroke-linecap:butt;stroke-linejoin:miter;stroke-miterlimit:4;stroke-dasharray:none;stroke-dashoffset:0;stroke-opacity:1;color-rendering:auto;image-rendering:auto;shape-rendering:auto;text-rendering:auto;enable-background:accumulate"
       d="m 164.39152,913.58728 c 0,0 0.73252,2.36942 0.34074,4.76095 -0.38997,2.38048 -1.83134,4.76096 -2.58331,4.76096 -0.80653,0 -0.3018,-2.28944 -0.72538,-4.57889 -0.42358,-2.28945 -1.77548,-4.5789 -3.16478,-4.5789 -1.43857,0 -1.45701,2.46974 -2.2715,4.93947 -0.81449,2.46974 -2.42502,4.93947 -3.40484,4.93947 -1.02907,0 -0.49722,-2.28945 -0.61661,-4.57889 -0.11939,-2.28945 -0.89001,-4.5789 -1.39357,-4.5789 -0.56653,0 -0.34181,2.23098 -0.86332,4.46195 -0.52151,2.23098 -1.78926,4.46195 -2.36812,4.46195 -0.64183,0 0.0387,-2.28944 -0.20453,-4.57889 -0.24328,-2.28945 -1.41042,-4.57889 -2.61723,-4.57889 -1.2882,0 -1.45899,1.86309 -2.0618,3.72618 -0.60282,1.8631 -1.63766,3.72619 -2.5809,3.72619 -1.02462,0 -0.86271,-2.28945 -1.58906,-4.5789 -0.72634,-2.28944 -2.34095,-4.57889 -3.78811,-4.57889 -1.47865,0 -1.04619,2.74845 -1.39504,5.4969 -0.34738,2.73691 -1.57134,5.49689 -1.57134,5.49689 0,0 1.35447,-2.51555 1.92192,-4.99794 0.57124,-2.49897 0.43938,-4.99794 1.43298,-4.99794 1.32191,0 2.68237,2.28945 3.21721,4.5789 0.53484,2.28944 0.24406,4.57889 1.39394,4.57889 1.44428,0 2.88549,-1.86309 3.64415,-3.72619 0.75866,-1.86309 0.83477,-3.72618 1.62192,-3.72618 1.08155,0 1.99456,2.28944 2.04633,4.57889 0.0518,2.28945 -0.75769,4.5789 0.009,4.5789 1.07991,0 2.7848,-2.23098 3.49292,-4.46196 0.70813,-2.23097 0.4195,-4.46195 0.48499,-4.46195 0.37829,0 0.89478,2.28945 0.82266,4.5789 -0.0721,2.28944 -0.73284,4.57889 0.42149,4.57889 1.48086,0 3.54851,-2.46973 4.56958,-4.93947 1.02108,-2.46973 0.99559,-4.93946 1.93311,-4.93946 1.26404,0 2.3618,2.28944 2.59387,4.57889 0.23208,2.28945 -0.40153,4.57889 0.53026,4.57889 1.2683,0 3.02379,-2.62995 3.40835,-5.25991 0.38633,-2.64206 -0.68638,-5.25991 -0.68638,-5.25991 z m -34.15384,-0.0159 c 0,0 0.67909,2.23353 0.45499,4.45464 -0.22138,2.19419 -1.27982,4.42481 -1.57418,4.30351 -0.34378,-0.14165 0.0634,-2.27403 -0.0554,-4.28584 -0.12019,-2.03537 -0.80583,-4.03406 -0.80583,-4.03406 0,0 0.6994,2.22308 0.6963,4.49946 -0.003,2.24256 -0.66829,4.63952 -0.24924,4.81836 0.70396,0.30042 2.10636,-2.18006 2.33944,-4.66827 0.2358,-2.51723 -0.80607,-5.0878 -0.80607,-5.0878 z"
       id="path5835"
       inkscape:path-effect="#path-effect5837-8"
       inkscape:original-d="m 130.25232,913.57134 33.71689,0 c 1.43686,0 2.59361,0.5436 2.59361,1.2187 l 0,7.7183 c 0,0.6751 -1.15675,1.2187 -2.59361,1.2187 l -33.71689,0 c -1.43686,0 -2.59361,-0.5436 -2.59361,-1.2187 l 0,-7.7183 c 0,-0.6751 1.15675,-1.2187 2.59361,-1.2187 z"
       inkscape:connector-curvature="0" />
    <path
       inkscape:connector-curvature="0"
       inkscape:original-d="m 130.25232,931.57134 33.71689,0 c 1.43686,0 2.59361,0.5436 2.59361,1.2187 l 0,7.7183 c 0,0.6751 -1.15675,1.2187 -2.59361,1.2187 l -33.71689,0 c -1.43686,0 -2.59361,-0.5436 -2.59361,-1.2187 l 0,-7.7183 c 0,-0.6751 1.15675,-1.2187 2.59361,-1.2187 z"
       inkscape:path-effect="#path-effect5841-1"
       id="path5839"
       d="m 166.56282,933.60412 c 0,0 -0.57282,-1.38499 -2.65632,-1.51788 -1.08992,-0.0695 -0.23681,2.25767 -0.66179,4.53822 -0.42588,2.28536 -2.13382,4.5026 -3.28747,4.50287 -1.15399,2.7e-4 -0.61279,-2.03736 -1.16119,-4.14559 -0.5462,-2.09975 -2.18238,-4.27009 -3.44445,-4.2706 -1.24868,-5.1e-4 -0.87048,2.35964 -1.50634,4.63249 -0.63901,2.28411 -2.28519,4.48312 -2.51918,4.48311 -0.21769,0 1.24104,-2.25586 1.19859,-4.60123 -0.0422,-2.33432 -1.58266,-4.75712 -2.49213,-4.75741 -0.87718,-2.9e-4 -0.30551,2.36424 -1.02731,4.64185 -0.72542,2.28903 -2.74358,4.49125 -3.71443,4.4913 -0.91713,4e-5 0.47335,-2.61319 -0.018,-5.3454 -0.48875,-2.7176 -2.85849,-5.55401 -4.1623,-5.5536 -1.23341,3.8e-4 -0.44171,2.39519 -0.92876,4.70167 -0.48956,2.31831 -2.25647,4.54862 -3.46872,4.54947 -1.21666,8.4e-4 -0.69402,-2.02415 -1.07132,-4.11884 -0.37575,-2.08609 -1.65599,-4.2431 -2.27462,-4.24311 -0.60488,0 0.10396,2.36394 -0.39572,4.63214 -0.49925,2.26623 -2.20913,4.47773 -2.57205,4.4294 -0.32984,-0.0439 0.79954,-2.11607 0.7818,-4.06709 -0.0179,-1.96264 -1.1134,-3.82026 -1.88445,-3.28288 -1.75184,1.22095 -1.63791,3.40313 -1.63791,3.40313 0,0 0.79403,-1.74002 1.83168,-2.39166 0.74562,-0.46825 1.50403,1.38247 1.25083,3.30117 -0.25275,1.91534 -1.58259,3.93694 -1.13414,3.99706 0.82364,0.11043 3.11986,-2.08274 3.93592,-4.3484 0.8167,-2.26742 0.15917,-4.64779 0.27811,-4.64774 0.50181,1.9e-4 1.43452,2.14251 1.52809,4.21385 0.094,2.07988 -0.64539,4.09044 0.71097,4.09001 1.74516,-5.5e-4 4.06657,-2.21393 4.86057,-4.51605 0.78995,-2.29036 0.0566,-4.66786 0.81895,-4.66782 1.19338,7e-5 3.13093,2.81738 3.25209,5.51573 0.12182,2.71286 -1.57176,5.30717 -0.51575,5.30751 1.50629,4.8e-4 4.07913,-2.18477 5.10679,-4.45773 1.02252,-2.26161 0.5045,-4.60914 0.90349,-4.60886 0.79481,5.4e-4 1.95314,2.40684 1.67694,4.7245 -0.27751,2.32863 -1.99091,4.56809 -1.6396,4.56823 0.76382,3.1e-4 2.96178,-2.18186 3.90181,-4.44996 0.9354,-2.25693 0.61164,-4.60007 1.38477,-4.59947 1.14977,8.8e-4 2.43922,2.15654 2.70262,4.24151 0.26445,2.09338 -0.49531,4.1165 0.79776,4.11668 1.68283,2.4e-4 3.93767,-2.18523 4.66994,-4.44642 0.73069,-2.25628 -0.0578,-4.56654 0.52977,-4.52906 1.75178,0.11176 2.0525,0.4849 2.0525,0.4849 z"
       style="color:#000000;clip-rule:nonzero;display:inline;overflow:visible;visibility:visible;opacity:0.93000034;isolation:auto;mix-blend-mode:normal;color-interpolation:sRGB;color-interpolation-filters:linearRGB;solid-color:#000000;solid-opacity:1;fill:none;fill-opacity:1;fill-rule:nonzero;stroke:#424242;stroke-width:2.78972697;stroke-linecap:butt;stroke-linejoin:miter;stroke-miterlimit:4;stroke-dasharray:none;stroke-dashoffset:0;stroke-opacity:1;color-rendering:auto;image-rendering:auto;shape-rendering:auto;text-rendering:auto;enable-background:accumulate" />
    <path
       style="color:#000000;clip-rule:nonzero;display:inline;overflow:visible;visibility:visible;opacity:0.93000034;isolation:auto;mix-blend-mode:normal;color-interpolation:sRGB;color-interpolation-filters:linearRGB;solid-color:#000000;solid-opacity:1;fill:none;fill-opacity:1;fill-rule:nonzero;stroke:#424242;stroke-width:2.78972697;stroke-linecap:butt;stroke-linejoin:miter;stroke-miterlimit:4;stroke-dasharray:none;stroke-dashoffset:0;stroke-opacity:1;color-rendering:auto;image-rendering:auto;shape-rendering:auto;text-rendering:auto;enable-background:accumulate"
       d="m 166.56282,957.93281 c 0,0 -0.76343,0.75228 -2.21998,0.93264 -0.86638,0.10728 -0.39432,-2.10841 -0.82784,-4.37175 -0.43229,-2.25694 -1.77473,-4.5423 -3.16673,-4.5423 -1.43856,0 -1.45701,2.46974 -2.2715,4.93947 -0.81449,2.46974 -2.42502,4.93947 -3.40483,4.93947 -1.02908,0 -0.49723,-2.28945 -0.61662,-4.57889 -0.11938,-2.28945 -0.89001,-4.5789 -1.39357,-4.5789 -0.56653,0 -0.34181,2.23098 -0.86332,4.46195 -0.52151,2.23098 -1.78925,4.46195 -2.36811,4.46195 -0.64184,0 0.0387,-2.28944 -0.20453,-4.57889 -0.24328,-2.28945 -1.41042,-4.57889 -2.61724,-4.57889 -1.2882,0 -1.45899,1.86309 -2.0618,3.72618 -0.60281,1.8631 -1.63766,3.72619 -2.58089,3.72619 -1.02462,0 -0.86272,-2.28945 -1.58906,-4.5789 -0.72635,-2.28944 -2.34095,-4.57889 -3.78812,-4.57889 -1.49435,0 -1.27692,2.50384 -1.70051,5.00768 -0.42359,2.50385 -1.48821,5.00769 -1.80245,5.00769 -0.36142,0 0.29666,-2.28945 0.0976,-4.57888 -0.19901,-2.28943 -1.25511,-4.57886 -1.91442,-4.57877 -0.70529,9e-5 -0.14299,2.52325 -0.37432,5.04636 -0.23069,2.51605 -1.33413,5.04622 -1.33413,5.04622 0,0 1.23414,-2.28534 1.66768,-4.54731 0.43579,-2.27365 0.13864,-4.54733 0.35755,-4.54736 0.53406,-7e-5 1.33602,2.28936 1.34352,4.57878 0.007,2.28943 -0.77945,4.57887 -0.29277,4.57887 0.81529,0 2.33987,-2.50384 2.9729,-5.00768 0.63304,-2.50385 0.37452,-5.00769 1.36782,-5.00769 1.32191,0 2.68238,2.28945 3.21721,4.5789 0.53484,2.28944 0.24406,4.57889 1.39394,4.57889 1.44429,0 2.8855,-1.86309 3.64415,-3.72619 0.75866,-1.86309 0.83477,-3.72618 1.62192,-3.72618 1.08156,0 1.99456,2.28944 2.04633,4.57889 0.0518,2.28945 -0.75769,4.5789 0.009,4.5789 1.0799,0 2.78479,-2.23098 3.49292,-4.46196 0.70812,-2.23097 0.4195,-4.46195 0.48498,-4.46195 0.3783,0 0.89478,2.28945 0.82266,4.5789 -0.0721,2.28944 -0.73284,4.57889 0.42149,4.57889 1.48087,0 3.54851,-2.46973 4.56958,-4.93947 1.02108,-2.46973 0.99559,-4.93946 1.93311,-4.93946 1.26763,0 2.3566,2.29353 2.59722,4.55456 0.24129,2.26729 -0.35827,4.48326 0.65171,4.35948 2.59911,-0.31854 2.67899,-1.93055 2.67899,-1.93055 z"
       id="path5843"
       inkscape:path-effect="#path-effect5845-6"
       inkscape:original-d="m 130.25232,949.57134 33.71689,0 c 1.43686,0 2.59361,0.5436 2.59361,1.2187 l 0,7.7183 c 0,0.6751 -1.15675,1.2187 -2.59361,1.2187 l -33.71689,0 c -1.43686,0 -2.59361,-0.5436 -2.59361,-1.2187 l 0,-7.7183 c 0,-0.6751 1.15675,-1.2187 2.59361,-1.2187 z"
       inkscape:connector-curvature="0" />
  </g>
</svg>
